<?xml version="1.0" encoding="utf-8"?>
<!-- Generator: Adobe Illustrator 25.0.0, SVG Export Plug-In . SVG Version: 6.00 Build 0)  -->
<svg version="1.1" id="Layer_1" xmlns="http://www.w3.org/2000/svg" xmlns:xlink="http://www.w3.org/1999/xlink" x="0px" y="0px"
	 viewBox="0 0 500 500" style="enable-background:new 0 0 500 500;" xml:space="preserve">
<style type="text/css">
	.st0{fill:url(#SVGID_1_);}
	.st1{fill:url(#SVGID_2_);}
	.st2{fill:url(#SVGID_3_);}
	.st3{fill:url(#SVGID_4_);}
	.st4{fill:url(#SVGID_5_);}
	.st5{fill:url(#SVGID_6_);}
	.st6{fill:url(#SVGID_7_);}
</style>
<g>
	<g>
		<linearGradient id="SVGID_1_" gradientUnits="userSpaceOnUse" x1="63.5845" y1="271.8798" x2="220.9073" y2="271.8798">
			<stop  offset="0" style="stop-color:#F3A181"/>
			<stop  offset="1" style="stop-color:#F7C198"/>
		</linearGradient>
		<path class="st0" d="M142.31,207.51c12.61-0.01,24.93,3.7,35.43,10.68c3.29,2.18,7.73,1.28,9.91-2.01
			c2.18-3.29,1.28-7.73-2.01-9.91c-36.23-23.96-85.03-14.01-109,22.22s-14.01,85.03,22.22,109c36.23,23.96,85.03,14.01,109-22.22
			c17.4-26.31,17.4-60.46,0-86.77c-2.16-3.3-6.59-4.22-9.89-2.05c-3.3,2.16-4.22,6.59-2.05,9.89c0.01,0.02,0.02,0.04,0.04,0.06
			c19.53,29.5,11.52,69.24-17.91,88.87v-17.71c-0.03-10.06-5.37-19.37-14.04-24.47c4.42-5.11,6.87-11.64,6.9-18.4
			c0-15.79-12.8-28.58-28.58-28.58s-28.58,12.8-28.58,28.58c0.03,6.76,2.47,13.29,6.9,18.4c-8.67,5.11-14.01,14.41-14.04,24.47
			c0,3.95,3.2,7.15,7.15,7.15c3.95,0,7.15-3.2,7.15-7.15c0-7.89,6.4-14.29,14.29-14.29h14.29c7.89,0,14.29,6.4,14.29,14.29v24.83
			c-33.45,11.95-70.25-5.47-82.2-38.92s5.47-70.25,38.92-82.2C127.47,208.76,134.86,207.49,142.31,207.51z M142.31,250.39
			c7.89,0,14.29,6.4,14.29,14.29s-6.4,14.29-14.29,14.29c-7.89,0-14.29-6.4-14.29-14.29S134.41,250.39,142.31,250.39z"/>
		<linearGradient id="SVGID_2_" gradientUnits="userSpaceOnUse" x1="249.4886" y1="268.2505" x2="292.3613" y2="268.2505">
			<stop  offset="0" style="stop-color:#F3A181"/>
			<stop  offset="1" style="stop-color:#F7C198"/>
		</linearGradient>
		<path class="st1" d="M256.63,314.7h28.58c3.95,0,7.15-3.2,7.15-7.15v-78.6c0-3.95-3.2-7.15-7.15-7.15h-28.58
			c-3.95,0-7.15,3.2-7.15,7.15v78.6C249.49,311.5,252.69,314.7,256.63,314.7z M263.78,236.1h14.29v64.31h-14.29V236.1z"/>
		<linearGradient id="SVGID_3_" gradientUnits="userSpaceOnUse" x1="35.1739" y1="250" x2="464.8261" y2="250">
			<stop  offset="0" style="stop-color:#F3A181"/>
			<stop  offset="1" style="stop-color:#F7C198"/>
		</linearGradient>
		<path class="st2" d="M434.35,77.3c11.15,4.72,24.01-0.49,28.74-11.64s-0.49-24.01-11.64-28.74c-11.15-4.72-24.01,0.49-28.74,11.64
			c-2.63,6.21-2.26,13.28,1.01,19.18l-30.4,34.2c-8.16-3.36-17.55-1.32-23.58,5.12l-27.52-12.23c0.04-0.55,0.16-1.08,0.16-1.64
			c0-11.84-9.6-21.44-21.44-21.44c-11.84,0-21.44,9.6-21.44,21.44c0.01,3.99,1.15,7.89,3.28,11.26l-32.03,40.01
			c-2.24-0.81-4.6-1.23-6.98-1.26c-11.84,0-21.44,9.6-21.44,21.44c0.02,2.49,0.48,4.95,1.36,7.27l-27.4,22.56
			c-42.67-40.92-110.44-39.49-151.35,3.18c-36.27,37.83-39.82,96.35-8.39,138.28c2.37,3.16,6.85,3.8,10,1.43s3.8-6.85,1.43-10l0,0
			c-12.08-16-18.6-35.5-18.58-55.54c0-51.3,41.59-92.89,92.89-92.89s92.89,41.59,92.89,92.89s-41.59,92.89-92.89,92.89
			c-20.04,0.03-39.55-6.5-55.54-18.58c-3.16-2.36-7.64-1.72-10,1.44c-2.36,3.15-1.72,7.62,1.43,9.99
			c36.15,27.17,85.5,28.6,123.17,3.57l28.35,28.35c-3.9,8.17-2.25,17.91,4.12,24.34l10.1,10.1l0,0l30.31,30.31
			c13.89,14.02,36.51,14.12,50.53,0.23c14.02-13.89,14.12-36.51,0.23-50.53c-0.07-0.07-0.15-0.15-0.22-0.22l-30.32-30.32l0,0
			l-10.1-10.1c-6.51-6.19-16.13-7.8-24.29-4.06l-28.41-28.41c25.7-38.72,23.39-89.62-5.72-125.85l26.8-22.07
			c3.32,2.05,7.15,3.15,11.05,3.17c11.84,0,21.44-9.6,21.44-21.44c-0.01-3.99-1.15-7.89-3.28-11.26l32.03-40.01
			c7.91,2.89,16.78,0.74,22.49-5.45l27.52,12.23c-0.04,0.55-0.16,1.08-0.16,1.64c0,11.84,9.6,21.44,21.44,21.44
			s21.44-9.6,21.44-21.44c-0.02-3.6-0.97-7.14-2.74-10.28L434.35,77.3z M320.94,429.02c0,11.84-9.59,21.44-21.43,21.44
			c-5.69,0-11.14-2.26-15.17-6.28l-25.26-25.26l30.32-30.32l25.27,25.27C318.7,417.88,320.96,423.34,320.94,429.02z M269.19,371.35
			c1.9-0.01,3.72,0.75,5.05,2.09l5.06,5.05l-30.32,30.32l-5.05-5.05c-2.79-2.79-2.79-7.31-0.01-10.11c0,0,0,0,0.01-0.01l20.21-20.21
			C265.48,372.1,267.29,371.34,269.19,371.35z M248.98,368.39l-10.1,10.1l-26.11-26.11c3.59-3.14,6.96-6.52,10.1-10.1L248.98,368.39
			z M263.78,171.79c-3.95,0-7.15-3.2-7.15-7.15s3.2-7.15,7.15-7.15s7.15,3.2,7.15,7.15S267.73,171.79,263.78,171.79z M320.94,100.33
			c-3.95,0-7.15-3.2-7.15-7.15c0-3.95,3.2-7.15,7.15-7.15s7.15,3.2,7.15,7.15C328.09,97.13,324.89,100.33,320.94,100.33z
			 M442.42,50.31c3.95,0,7.15,3.2,7.15,7.15s-3.2,7.15-7.15,7.15s-7.15-3.2-7.15-7.15S438.47,50.31,442.42,50.31z M385.25,128.91
			c-3.95,0-7.15-3.2-7.15-7.15s3.2-7.15,7.15-7.15s7.15,3.2,7.15,7.15S389.2,128.91,385.25,128.91z"/>
		<linearGradient id="SVGID_4_" gradientUnits="userSpaceOnUse" x1="63.7046" y1="93.1864" x2="206.6175" y2="93.1864">
			<stop  offset="0" style="stop-color:#F3A181"/>
			<stop  offset="1" style="stop-color:#F7C198"/>
		</linearGradient>
		<path class="st3" d="M70.85,93.19h21.44v50.02c0,3.95,3.2,7.15,7.15,7.15h42.87c3.95,0,7.15-3.2,7.15-7.15
			c0-3.95-3.2-7.15-7.15-7.15h-35.73V86.04c0-3.95-3.2-7.15-7.15-7.15h-5l40.73-27.15l40.73,27.15h-5c-3.95,0-7.15,3.2-7.15,7.15
			v57.16c0,3.95,3.2,7.15,7.15,7.15s7.15-3.2,7.15-7.15V93.19h21.44c3.95,0,7.15-3.2,7.15-7.14c0-2.39-1.19-4.62-3.18-5.95
			l-64.31-42.87c-2.4-1.6-5.53-1.6-7.93,0L66.89,80.1c-3.28,2.19-4.17,6.63-1.98,9.91C66.23,91.99,68.46,93.19,70.85,93.19z"/>
		<linearGradient id="SVGID_5_" gradientUnits="userSpaceOnUse" x1="420.9794" y1="214.6596" x2="463.8521" y2="214.6596">
			<stop  offset="0" style="stop-color:#F3A181"/>
			<stop  offset="1" style="stop-color:#F7C198"/>
		</linearGradient>
		<path class="st4" d="M456.71,114.62h-28.58c-3.95,0-7.15,3.2-7.15,7.15v185.78c0,3.95,3.2,7.15,7.15,7.15h28.58
			c3.95,0,7.15-3.2,7.15-7.15v-21.44c0-3.95-3.2-7.15-7.15-7.15s-7.15,3.2-7.15,7.15v14.29h-14.29V128.91h14.29v128.62
			c0,3.95,3.2,7.15,7.15,7.15s7.15-3.2,7.15-7.15V121.77C463.85,117.82,460.65,114.62,456.71,114.62z"/>
		<linearGradient id="SVGID_6_" gradientUnits="userSpaceOnUse" x1="363.8158" y1="250.3868" x2="406.6885" y2="250.3868">
			<stop  offset="0" style="stop-color:#F3A181"/>
			<stop  offset="1" style="stop-color:#F7C198"/>
		</linearGradient>
		<path class="st5" d="M399.54,186.08h-28.58c-3.95,0-7.15,3.2-7.15,7.15v114.33c0,3.95,3.2,7.15,7.15,7.15h28.58
			c3.95,0,7.15-3.2,7.15-7.15v-14.29c0-3.95-3.2-7.15-7.15-7.15s-7.15,3.2-7.15,7.15v7.15h-14.29V200.37h14.29v64.31
			c0,3.95,3.2,7.15,7.15,7.15s7.15-3.2,7.15-7.15v-71.45C406.69,189.28,403.49,186.08,399.54,186.08z"/>
		<linearGradient id="SVGID_7_" gradientUnits="userSpaceOnUse" x1="306.6522" y1="236.0959" x2="349.5249" y2="236.0959">
			<stop  offset="0" style="stop-color:#F3A181"/>
			<stop  offset="1" style="stop-color:#F7C198"/>
		</linearGradient>
		<path class="st6" d="M342.38,157.5H313.8c-3.95,0-7.15,3.2-7.15,7.15v142.91c0,3.95,3.2,7.15,7.15,7.15h28.58
			c3.95,0,7.15-3.2,7.15-7.15v-21.44c0-3.95-3.2-7.15-7.15-7.15s-7.15,3.2-7.15,7.15v14.29h-14.29V171.79h14.29v85.75
			c0,3.95,3.2,7.15,7.15,7.15s7.15-3.2,7.15-7.15v-92.89C349.52,160.7,346.33,157.5,342.38,157.5z"/>
	</g>
</g>
</svg>
