<?xml version="1.0" encoding="utf-8"?>
<!-- Generator: Adobe Illustrator 25.0.0, SVG Export Plug-In . SVG Version: 6.00 Build 0)  -->
<svg version="1.1" id="Layer_1" xmlns="http://www.w3.org/2000/svg" xmlns:xlink="http://www.w3.org/1999/xlink" x="0px" y="0px"
	 viewBox="0 0 500 500" style="enable-background:new 0 0 500 500;" xml:space="preserve">
<style type="text/css">
	.st0{fill:url(#SVGID_1_);}
	.st1{fill:#FFFFFF;}
</style>
<g>
	<linearGradient id="SVGID_1_" gradientUnits="userSpaceOnUse" x1="81.9947" y1="250" x2="418.0053" y2="250">
		<stop  offset="0" style="stop-color:#7CC3BE"/>
		<stop  offset="1" style="stop-color:#445CA4"/>
	</linearGradient>
	<path class="st0" d="M339.14,151.96c-2.06,1.39-4.4,2.12-6.85,2.12c-6.74,0-12.2-5.46-12.2-12.15c0-1.17,0.17-2.28,0.5-3.4
		c-1.11-0.17-2.28-0.28-3.4-0.28c-13.49,0-24.46,10.98-24.46,24.52c0,13.49,10.98,24.46,24.46,24.46
		c13.49,0,24.46-10.98,24.46-24.46C341.65,159.03,340.75,155.3,339.14,151.96z M209.74,151.96c-2.01,1.39-4.4,2.12-6.85,2.12
		c-6.69,0-12.15-5.46-12.15-12.15c0-1.17,0.17-2.28,0.5-3.4c-1.17-0.17-2.28-0.28-3.45-0.28c-13.49,0-24.46,10.98-24.46,24.52
		c0,13.49,10.98,24.46,24.46,24.46c13.49,0,24.46-10.98,24.46-24.46C212.25,159.03,211.42,155.3,209.74,151.96z M209.74,151.96
		c-2.01,1.39-4.4,2.12-6.85,2.12c-6.69,0-12.15-5.46-12.15-12.15c0-1.17,0.17-2.28,0.5-3.4c-1.17-0.17-2.28-0.28-3.45-0.28
		c-13.49,0-24.46,10.98-24.46,24.52c0,13.49,10.98,24.46,24.46,24.46c13.49,0,24.46-10.98,24.46-24.46
		C212.25,159.03,211.42,155.3,209.74,151.96z M207.85,272.16c-4.63,0-8.41,3.79-8.41,8.47v15.44c0,4.68,3.79,8.47,8.41,8.47
		c4.68,0,8.47-3.79,8.47-8.47v-15.44C216.32,275.94,212.53,272.16,207.85,272.16z M230.42,325.54c-4.63,0-8.42,3.79-8.42,8.47v14.27
		c0,4.68,3.79,8.47,8.42,8.47c4.68,0,8.47-3.79,8.47-8.47v-14.27C238.89,329.33,235.1,325.54,230.42,325.54z M249.98,272.16
		c-4.62,0-8.41,3.79-8.41,8.47v15.44c0,4.68,3.79,8.47,8.41,8.47c4.68,0,8.47-3.79,8.47-8.47v-15.44
		C258.45,275.94,254.66,272.16,249.98,272.16z M272.6,325.54c-4.68,0-8.47,3.79-8.47,8.47v14.27c0,4.68,3.79,8.47,8.47,8.47
		c4.63,0,8.41-3.79,8.41-8.47v-14.27C281.02,329.33,277.23,325.54,272.6,325.54z M292.16,272.16c-4.68,0-8.47,3.79-8.47,8.47v15.44
		c0,4.68,3.79,8.47,8.47,8.47c4.63,0,8.41-3.79,8.41-8.47v-15.44C300.58,275.94,296.79,272.16,292.16,272.16z M339.14,151.96
		c-2.06,1.39-4.4,2.12-6.85,2.12c-6.74,0-12.2-5.46-12.2-12.15c0-1.17,0.17-2.28,0.5-3.4c-1.11-0.17-2.28-0.28-3.4-0.28
		c-13.49,0-24.46,10.98-24.46,24.52c0,13.49,10.98,24.46,24.46,24.46c13.49,0,24.46-10.98,24.46-24.46
		C341.65,159.03,340.75,155.3,339.14,151.96z M209.74,151.96c-2.01,1.39-4.4,2.12-6.85,2.12c-6.69,0-12.15-5.46-12.15-12.15
		c0-1.17,0.17-2.28,0.5-3.4c-1.17-0.17-2.28-0.28-3.45-0.28c-13.49,0-24.46,10.98-24.46,24.52c0,13.49,10.98,24.46,24.46,24.46
		c13.49,0,24.46-10.98,24.46-24.46C212.25,159.03,211.42,155.3,209.74,151.96z M339.14,151.96c-2.06,1.39-4.4,2.12-6.85,2.12
		c-6.74,0-12.2-5.46-12.2-12.15c0-1.17,0.17-2.28,0.5-3.4c-1.11-0.17-2.28-0.28-3.4-0.28c-13.49,0-24.46,10.98-24.46,24.52
		c0,13.49,10.98,24.46,24.46,24.46c13.49,0,24.46-10.98,24.46-24.46C341.65,159.03,340.75,155.3,339.14,151.96z M292.16,272.16
		c-4.68,0-8.47,3.79-8.47,8.47v15.44c0,4.68,3.79,8.47,8.47,8.47c4.63,0,8.41-3.79,8.41-8.47v-15.44
		C300.58,275.94,296.79,272.16,292.16,272.16z M272.6,325.54c-4.68,0-8.47,3.79-8.47,8.47v14.27c0,4.68,3.79,8.47,8.47,8.47
		c4.63,0,8.41-3.79,8.41-8.47v-14.27C281.02,329.33,277.23,325.54,272.6,325.54z M249.98,272.16c-4.62,0-8.41,3.79-8.41,8.47v15.44
		c0,4.68,3.79,8.47,8.41,8.47c4.68,0,8.47-3.79,8.47-8.47v-15.44C258.45,275.94,254.66,272.16,249.98,272.16z M230.42,325.54
		c-4.63,0-8.42,3.79-8.42,8.47v14.27c0,4.68,3.79,8.47,8.42,8.47c4.68,0,8.47-3.79,8.47-8.47v-14.27
		C238.89,329.33,235.1,325.54,230.42,325.54z M207.85,272.16c-4.63,0-8.41,3.79-8.41,8.47v15.44c0,4.68,3.79,8.47,8.41,8.47
		c4.68,0,8.47-3.79,8.47-8.47v-15.44C216.32,275.94,212.53,272.16,207.85,272.16z M209.74,151.96c-2.01,1.39-4.4,2.12-6.85,2.12
		c-6.69,0-12.15-5.46-12.15-12.15c0-1.17,0.17-2.28,0.5-3.4c-1.17-0.17-2.28-0.28-3.45-0.28c-13.49,0-24.46,10.98-24.46,24.52
		c0,13.49,10.98,24.46,24.46,24.46c13.49,0,24.46-10.98,24.46-24.46C212.25,159.03,211.42,155.3,209.74,151.96z M207.85,272.16
		c-4.63,0-8.41,3.79-8.41,8.47v15.44c0,4.68,3.79,8.47,8.41,8.47c4.68,0,8.47-3.79,8.47-8.47v-15.44
		C216.32,275.94,212.53,272.16,207.85,272.16z M230.42,325.54c-4.63,0-8.42,3.79-8.42,8.47v14.27c0,4.68,3.79,8.47,8.42,8.47
		c4.68,0,8.47-3.79,8.47-8.47v-14.27C238.89,329.33,235.1,325.54,230.42,325.54z M249.98,272.16c-4.62,0-8.41,3.79-8.41,8.47v15.44
		c0,4.68,3.79,8.47,8.41,8.47c4.68,0,8.47-3.79,8.47-8.47v-15.44C258.45,275.94,254.66,272.16,249.98,272.16z M272.6,325.54
		c-4.68,0-8.47,3.79-8.47,8.47v14.27c0,4.68,3.79,8.47,8.47,8.47c4.63,0,8.41-3.79,8.41-8.47v-14.27
		C281.02,329.33,277.23,325.54,272.6,325.54z M292.16,272.16c-4.68,0-8.47,3.79-8.47,8.47v15.44c0,4.68,3.79,8.47,8.47,8.47
		c4.63,0,8.41-3.79,8.41-8.47v-15.44C300.58,275.94,296.79,272.16,292.16,272.16z M339.14,151.96c-2.06,1.39-4.4,2.12-6.85,2.12
		c-6.74,0-12.2-5.46-12.2-12.15c0-1.17,0.17-2.28,0.5-3.4c-1.11-0.17-2.28-0.28-3.4-0.28c-13.49,0-24.46,10.98-24.46,24.52
		c0,13.49,10.98,24.46,24.46,24.46c13.49,0,24.46-10.98,24.46-24.46C341.65,159.03,340.75,155.3,339.14,151.96z M209.74,151.96
		c-2.01,1.39-4.4,2.12-6.85,2.12c-6.69,0-12.15-5.46-12.15-12.15c0-1.17,0.17-2.28,0.5-3.4c-1.17-0.17-2.28-0.28-3.45-0.28
		c-13.49,0-24.46,10.98-24.46,24.52c0,13.49,10.98,24.46,24.46,24.46c13.49,0,24.46-10.98,24.46-24.46
		C212.25,159.03,211.42,155.3,209.74,151.96z M339.14,151.96c-2.06,1.39-4.4,2.12-6.85,2.12c-6.74,0-12.2-5.46-12.2-12.15
		c0-1.17,0.17-2.28,0.5-3.4c-1.11-0.17-2.28-0.28-3.4-0.28c-13.49,0-24.46,10.98-24.46,24.52c0,13.49,10.98,24.46,24.46,24.46
		c13.49,0,24.46-10.98,24.46-24.46C341.65,159.03,340.75,155.3,339.14,151.96z M292.16,272.16c-4.68,0-8.47,3.79-8.47,8.47v15.44
		c0,4.68,3.79,8.47,8.47,8.47c4.63,0,8.41-3.79,8.41-8.47v-15.44C300.58,275.94,296.79,272.16,292.16,272.16z M272.6,325.54
		c-4.68,0-8.47,3.79-8.47,8.47v14.27c0,4.68,3.79,8.47,8.47,8.47c4.63,0,8.41-3.79,8.41-8.47v-14.27
		C281.02,329.33,277.23,325.54,272.6,325.54z M249.98,272.16c-4.62,0-8.41,3.79-8.41,8.47v15.44c0,4.68,3.79,8.47,8.41,8.47
		c4.68,0,8.47-3.79,8.47-8.47v-15.44C258.45,275.94,254.66,272.16,249.98,272.16z M230.42,325.54c-4.63,0-8.42,3.79-8.42,8.47v14.27
		c0,4.68,3.79,8.47,8.42,8.47c4.68,0,8.47-3.79,8.47-8.47v-14.27C238.89,329.33,235.1,325.54,230.42,325.54z M207.85,272.16
		c-4.63,0-8.41,3.79-8.41,8.47v15.44c0,4.68,3.79,8.47,8.41,8.47c4.68,0,8.47-3.79,8.47-8.47v-15.44
		C216.32,275.94,212.53,272.16,207.85,272.16z M209.74,151.96c-2.01,1.39-4.4,2.12-6.85,2.12c-6.69,0-12.15-5.46-12.15-12.15
		c0-1.17,0.17-2.28,0.5-3.4c-1.17-0.17-2.28-0.28-3.45-0.28c-13.49,0-24.46,10.98-24.46,24.52c0,13.49,10.98,24.46,24.46,24.46
		c13.49,0,24.46-10.98,24.46-24.46C212.25,159.03,211.42,155.3,209.74,151.96z M207.85,272.16c-4.63,0-8.41,3.79-8.41,8.47v15.44
		c0,4.68,3.79,8.47,8.41,8.47c4.68,0,8.47-3.79,8.47-8.47v-15.44C216.32,275.94,212.53,272.16,207.85,272.16z M230.42,325.54
		c-4.63,0-8.42,3.79-8.42,8.47v14.27c0,4.68,3.79,8.47,8.42,8.47c4.68,0,8.47-3.79,8.47-8.47v-14.27
		C238.89,329.33,235.1,325.54,230.42,325.54z M249.98,272.16c-4.62,0-8.41,3.79-8.41,8.47v15.44c0,4.68,3.79,8.47,8.41,8.47
		c4.68,0,8.47-3.79,8.47-8.47v-15.44C258.45,275.94,254.66,272.16,249.98,272.16z M272.6,325.54c-4.68,0-8.47,3.79-8.47,8.47v14.27
		c0,4.68,3.79,8.47,8.47,8.47c4.63,0,8.41-3.79,8.41-8.47v-14.27C281.02,329.33,277.23,325.54,272.6,325.54z M292.16,272.16
		c-4.68,0-8.47,3.79-8.47,8.47v15.44c0,4.68,3.79,8.47,8.47,8.47c4.63,0,8.41-3.79,8.41-8.47v-15.44
		C300.58,275.94,296.79,272.16,292.16,272.16z M339.14,151.96c-2.06,1.39-4.4,2.12-6.85,2.12c-6.74,0-12.2-5.46-12.2-12.15
		c0-1.17,0.17-2.28,0.5-3.4c-1.11-0.17-2.28-0.28-3.4-0.28c-13.49,0-24.46,10.98-24.46,24.52c0,13.49,10.98,24.46,24.46,24.46
		c13.49,0,24.46-10.98,24.46-24.46C341.65,159.03,340.75,155.3,339.14,151.96z M292.16,272.16c-4.68,0-8.47,3.79-8.47,8.47v15.44
		c0,4.68,3.79,8.47,8.47,8.47c4.63,0,8.41-3.79,8.41-8.47v-15.44C300.58,275.94,296.79,272.16,292.16,272.16z M272.6,325.54
		c-4.68,0-8.47,3.79-8.47,8.47v14.27c0,4.68,3.79,8.47,8.47,8.47c4.63,0,8.41-3.79,8.41-8.47v-14.27
		C281.02,329.33,277.23,325.54,272.6,325.54z M249.98,272.16c-4.62,0-8.41,3.79-8.41,8.47v15.44c0,4.68,3.79,8.47,8.41,8.47
		c4.68,0,8.47-3.79,8.47-8.47v-15.44C258.45,275.94,254.66,272.16,249.98,272.16z M230.42,325.54c-4.63,0-8.42,3.79-8.42,8.47v14.27
		c0,4.68,3.79,8.47,8.42,8.47c4.68,0,8.47-3.79,8.47-8.47v-14.27C238.89,329.33,235.1,325.54,230.42,325.54z M207.85,272.16
		c-4.63,0-8.41,3.79-8.41,8.47v15.44c0,4.68,3.79,8.47,8.41,8.47c4.68,0,8.47-3.79,8.47-8.47v-15.44
		C216.32,275.94,212.53,272.16,207.85,272.16z M209.74,151.96c-2.01,1.39-4.4,2.12-6.85,2.12c-6.69,0-12.15-5.46-12.15-12.15
		c0-1.17,0.17-2.28,0.5-3.4c-1.17-0.17-2.28-0.28-3.45-0.28c-13.49,0-24.46,10.98-24.46,24.52c0,13.49,10.98,24.46,24.46,24.46
		c13.49,0,24.46-10.98,24.46-24.46C212.25,159.03,211.42,155.3,209.74,151.96z M339.14,151.96c-2.06,1.39-4.4,2.12-6.85,2.12
		c-6.74,0-12.2-5.46-12.2-12.15c0-1.17,0.17-2.28,0.5-3.4c-1.11-0.17-2.28-0.28-3.4-0.28c-13.49,0-24.46,10.98-24.46,24.52
		c0,13.49,10.98,24.46,24.46,24.46c13.49,0,24.46-10.98,24.46-24.46C341.65,159.03,340.75,155.3,339.14,151.96z M209.74,151.96
		c-2.01,1.39-4.4,2.12-6.85,2.12c-6.69,0-12.15-5.46-12.15-12.15c0-1.17,0.17-2.28,0.5-3.4c-1.17-0.17-2.28-0.28-3.45-0.28
		c-13.49,0-24.46,10.98-24.46,24.52c0,13.49,10.98,24.46,24.46,24.46c13.49,0,24.46-10.98,24.46-24.46
		C212.25,159.03,211.42,155.3,209.74,151.96z M207.85,272.16c-4.63,0-8.41,3.79-8.41,8.47v15.44c0,4.68,3.79,8.47,8.41,8.47
		c4.68,0,8.47-3.79,8.47-8.47v-15.44C216.32,275.94,212.53,272.16,207.85,272.16z M230.42,325.54c-4.63,0-8.42,3.79-8.42,8.47v14.27
		c0,4.68,3.79,8.47,8.42,8.47c4.68,0,8.47-3.79,8.47-8.47v-14.27C238.89,329.33,235.1,325.54,230.42,325.54z M249.98,272.16
		c-4.62,0-8.41,3.79-8.41,8.47v15.44c0,4.68,3.79,8.47,8.41,8.47c4.68,0,8.47-3.79,8.47-8.47v-15.44
		C258.45,275.94,254.66,272.16,249.98,272.16z M272.6,325.54c-4.68,0-8.47,3.79-8.47,8.47v14.27c0,4.68,3.79,8.47,8.47,8.47
		c4.63,0,8.41-3.79,8.41-8.47v-14.27C281.02,329.33,277.23,325.54,272.6,325.54z M292.16,272.16c-4.68,0-8.47,3.79-8.47,8.47v15.44
		c0,4.68,3.79,8.47,8.47,8.47c4.63,0,8.41-3.79,8.41-8.47v-15.44C300.58,275.94,296.79,272.16,292.16,272.16z M339.14,151.96
		c-2.06,1.39-4.4,2.12-6.85,2.12c-6.74,0-12.2-5.46-12.2-12.15c0-1.17,0.17-2.28,0.5-3.4c-1.11-0.17-2.28-0.28-3.4-0.28
		c-13.49,0-24.46,10.98-24.46,24.52c0,13.49,10.98,24.46,24.46,24.46c13.49,0,24.46-10.98,24.46-24.46
		C341.65,159.03,340.75,155.3,339.14,151.96z M292.16,272.16c-4.68,0-8.47,3.79-8.47,8.47v15.44c0,4.68,3.79,8.47,8.47,8.47
		c4.63,0,8.41-3.79,8.41-8.47v-15.44C300.58,275.94,296.79,272.16,292.16,272.16z M272.6,325.54c-4.68,0-8.47,3.79-8.47,8.47v14.27
		c0,4.68,3.79,8.47,8.47,8.47c4.63,0,8.41-3.79,8.41-8.47v-14.27C281.02,329.33,277.23,325.54,272.6,325.54z M249.98,272.16
		c-4.62,0-8.41,3.79-8.41,8.47v15.44c0,4.68,3.79,8.47,8.41,8.47c4.68,0,8.47-3.79,8.47-8.47v-15.44
		C258.45,275.94,254.66,272.16,249.98,272.16z M230.42,325.54c-4.63,0-8.42,3.79-8.42,8.47v14.27c0,4.68,3.79,8.47,8.42,8.47
		c4.68,0,8.47-3.79,8.47-8.47v-14.27C238.89,329.33,235.1,325.54,230.42,325.54z M207.85,272.16c-4.63,0-8.41,3.79-8.41,8.47v15.44
		c0,4.68,3.79,8.47,8.41,8.47c4.68,0,8.47-3.79,8.47-8.47v-15.44C216.32,275.94,212.53,272.16,207.85,272.16z M209.74,151.96
		c-2.01,1.39-4.4,2.12-6.85,2.12c-6.69,0-12.15-5.46-12.15-12.15c0-1.17,0.17-2.28,0.5-3.4c-1.17-0.17-2.28-0.28-3.45-0.28
		c-13.49,0-24.46,10.98-24.46,24.52c0,13.49,10.98,24.46,24.46,24.46c13.49,0,24.46-10.98,24.46-24.46
		C212.25,159.03,211.42,155.3,209.74,151.96z M339.14,151.96c-2.06,1.39-4.4,2.12-6.85,2.12c-6.74,0-12.2-5.46-12.2-12.15
		c0-1.17,0.17-2.28,0.5-3.4c-1.11-0.17-2.28-0.28-3.4-0.28c-13.49,0-24.46,10.98-24.46,24.52c0,13.49,10.98,24.46,24.46,24.46
		c13.49,0,24.46-10.98,24.46-24.46C341.65,159.03,340.75,155.3,339.14,151.96z M209.74,151.96c-2.01,1.39-4.4,2.12-6.85,2.12
		c-6.69,0-12.15-5.46-12.15-12.15c0-1.17,0.17-2.28,0.5-3.4c-1.17-0.17-2.28-0.28-3.45-0.28c-13.49,0-24.46,10.98-24.46,24.52
		c0,13.49,10.98,24.46,24.46,24.46c13.49,0,24.46-10.98,24.46-24.46C212.25,159.03,211.42,155.3,209.74,151.96z M207.85,272.16
		c-4.63,0-8.41,3.79-8.41,8.47v15.44c0,4.68,3.79,8.47,8.41,8.47c4.68,0,8.47-3.79,8.47-8.47v-15.44
		C216.32,275.94,212.53,272.16,207.85,272.16z M230.42,325.54c-4.63,0-8.42,3.79-8.42,8.47v14.27c0,4.68,3.79,8.47,8.42,8.47
		c4.68,0,8.47-3.79,8.47-8.47v-14.27C238.89,329.33,235.1,325.54,230.42,325.54z M249.98,272.16c-4.62,0-8.41,3.79-8.41,8.47v15.44
		c0,4.68,3.79,8.47,8.41,8.47c4.68,0,8.47-3.79,8.47-8.47v-15.44C258.45,275.94,254.66,272.16,249.98,272.16z M272.6,325.54
		c-4.68,0-8.47,3.79-8.47,8.47v14.27c0,4.68,3.79,8.47,8.47,8.47c4.63,0,8.41-3.79,8.41-8.47v-14.27
		C281.02,329.33,277.23,325.54,272.6,325.54z M292.16,272.16c-4.68,0-8.47,3.79-8.47,8.47v15.44c0,4.68,3.79,8.47,8.47,8.47
		c4.63,0,8.41-3.79,8.41-8.47v-15.44C300.58,275.94,296.79,272.16,292.16,272.16z M339.14,151.96c-2.06,1.39-4.4,2.12-6.85,2.12
		c-6.74,0-12.2-5.46-12.2-12.15c0-1.17,0.17-2.28,0.5-3.4c-1.11-0.17-2.28-0.28-3.4-0.28c-13.49,0-24.46,10.98-24.46,24.52
		c0,13.49,10.98,24.46,24.46,24.46c13.49,0,24.46-10.98,24.46-24.46C341.65,159.03,340.75,155.3,339.14,151.96z M292.16,272.16
		c-4.68,0-8.47,3.79-8.47,8.47v15.44c0,4.68,3.79,8.47,8.47,8.47c4.63,0,8.41-3.79,8.41-8.47v-15.44
		C300.58,275.94,296.79,272.16,292.16,272.16z M272.6,325.54c-4.68,0-8.47,3.79-8.47,8.47v14.27c0,4.68,3.79,8.47,8.47,8.47
		c4.63,0,8.41-3.79,8.41-8.47v-14.27C281.02,329.33,277.23,325.54,272.6,325.54z M249.98,272.16c-4.62,0-8.41,3.79-8.41,8.47v15.44
		c0,4.68,3.79,8.47,8.41,8.47c4.68,0,8.47-3.79,8.47-8.47v-15.44C258.45,275.94,254.66,272.16,249.98,272.16z M230.42,325.54
		c-4.63,0-8.42,3.79-8.42,8.47v14.27c0,4.68,3.79,8.47,8.42,8.47c4.68,0,8.47-3.79,8.47-8.47v-14.27
		C238.89,329.33,235.1,325.54,230.42,325.54z M207.85,272.16c-4.63,0-8.41,3.79-8.41,8.47v15.44c0,4.68,3.79,8.47,8.41,8.47
		c4.68,0,8.47-3.79,8.47-8.47v-15.44C216.32,275.94,212.53,272.16,207.85,272.16z M209.74,151.96c-2.01,1.39-4.4,2.12-6.85,2.12
		c-6.69,0-12.15-5.46-12.15-12.15c0-1.17,0.17-2.28,0.5-3.4c-1.17-0.17-2.28-0.28-3.45-0.28c-13.49,0-24.46,10.98-24.46,24.52
		c0,13.49,10.98,24.46,24.46,24.46c13.49,0,24.46-10.98,24.46-24.46C212.25,159.03,211.42,155.3,209.74,151.96z M339.14,151.96
		c-2.06,1.39-4.4,2.12-6.85,2.12c-6.74,0-12.2-5.46-12.2-12.15c0-1.17,0.17-2.28,0.5-3.4c-1.11-0.17-2.28-0.28-3.4-0.28
		c-13.49,0-24.46,10.98-24.46,24.52c0,13.49,10.98,24.46,24.46,24.46c13.49,0,24.46-10.98,24.46-24.46
		C341.65,159.03,340.75,155.3,339.14,151.96z M209.74,151.96c-2.01,1.39-4.4,2.12-6.85,2.12c-6.69,0-12.15-5.46-12.15-12.15
		c0-1.17,0.17-2.28,0.5-3.4c-1.17-0.17-2.28-0.28-3.45-0.28c-13.49,0-24.46,10.98-24.46,24.52c0,13.49,10.98,24.46,24.46,24.46
		c13.49,0,24.46-10.98,24.46-24.46C212.25,159.03,211.42,155.3,209.74,151.96z M207.85,272.16c-4.63,0-8.41,3.79-8.41,8.47v15.44
		c0,4.68,3.79,8.47,8.41,8.47c4.68,0,8.47-3.79,8.47-8.47v-15.44C216.32,275.94,212.53,272.16,207.85,272.16z M230.42,325.54
		c-4.63,0-8.42,3.79-8.42,8.47v14.27c0,4.68,3.79,8.47,8.42,8.47c4.68,0,8.47-3.79,8.47-8.47v-14.27
		C238.89,329.33,235.1,325.54,230.42,325.54z M249.98,272.16c-4.62,0-8.41,3.79-8.41,8.47v15.44c0,4.68,3.79,8.47,8.41,8.47
		c4.68,0,8.47-3.79,8.47-8.47v-15.44C258.45,275.94,254.66,272.16,249.98,272.16z M272.6,325.54c-4.68,0-8.47,3.79-8.47,8.47v14.27
		c0,4.68,3.79,8.47,8.47,8.47c4.63,0,8.41-3.79,8.41-8.47v-14.27C281.02,329.33,277.23,325.54,272.6,325.54z M292.16,272.16
		c-4.68,0-8.47,3.79-8.47,8.47v15.44c0,4.68,3.79,8.47,8.47,8.47c4.63,0,8.41-3.79,8.41-8.47v-15.44
		C300.58,275.94,296.79,272.16,292.16,272.16z M339.14,151.96c-2.06,1.39-4.4,2.12-6.85,2.12c-6.74,0-12.2-5.46-12.2-12.15
		c0-1.17,0.17-2.28,0.5-3.4c-1.11-0.17-2.28-0.28-3.4-0.28c-13.49,0-24.46,10.98-24.46,24.52c0,13.49,10.98,24.46,24.46,24.46
		c13.49,0,24.46-10.98,24.46-24.46C341.65,159.03,340.75,155.3,339.14,151.96z M292.16,272.16c-4.68,0-8.47,3.79-8.47,8.47v15.44
		c0,4.68,3.79,8.47,8.47,8.47c4.63,0,8.41-3.79,8.41-8.47v-15.44C300.58,275.94,296.79,272.16,292.16,272.16z M272.6,325.54
		c-4.68,0-8.47,3.79-8.47,8.47v14.27c0,4.68,3.79,8.47,8.47,8.47c4.63,0,8.41-3.79,8.41-8.47v-14.27
		C281.02,329.33,277.23,325.54,272.6,325.54z M249.98,272.16c-4.62,0-8.41,3.79-8.41,8.47v15.44c0,4.68,3.79,8.47,8.41,8.47
		c4.68,0,8.47-3.79,8.47-8.47v-15.44C258.45,275.94,254.66,272.16,249.98,272.16z M230.42,325.54c-4.63,0-8.42,3.79-8.42,8.47v14.27
		c0,4.68,3.79,8.47,8.42,8.47c4.68,0,8.47-3.79,8.47-8.47v-14.27C238.89,329.33,235.1,325.54,230.42,325.54z M207.85,272.16
		c-4.63,0-8.41,3.79-8.41,8.47v15.44c0,4.68,3.79,8.47,8.41,8.47c4.68,0,8.47-3.79,8.47-8.47v-15.44
		C216.32,275.94,212.53,272.16,207.85,272.16z M209.74,151.96c-2.01,1.39-4.4,2.12-6.85,2.12c-6.69,0-12.15-5.46-12.15-12.15
		c0-1.17,0.17-2.28,0.5-3.4c-1.17-0.17-2.28-0.28-3.45-0.28c-13.49,0-24.46,10.98-24.46,24.52c0,13.49,10.98,24.46,24.46,24.46
		c13.49,0,24.46-10.98,24.46-24.46C212.25,159.03,211.42,155.3,209.74,151.96z M339.14,151.96c-2.06,1.39-4.4,2.12-6.85,2.12
		c-6.74,0-12.2-5.46-12.2-12.15c0-1.17,0.17-2.28,0.5-3.4c-1.11-0.17-2.28-0.28-3.4-0.28c-13.49,0-24.46,10.98-24.46,24.52
		c0,13.49,10.98,24.46,24.46,24.46c13.49,0,24.46-10.98,24.46-24.46C341.65,159.03,340.75,155.3,339.14,151.96z M209.74,151.96
		c-2.01,1.39-4.4,2.12-6.85,2.12c-6.69,0-12.15-5.46-12.15-12.15c0-1.17,0.17-2.28,0.5-3.4c-1.17-0.17-2.28-0.28-3.45-0.28
		c-13.49,0-24.46,10.98-24.46,24.52c0,13.49,10.98,24.46,24.46,24.46c13.49,0,24.46-10.98,24.46-24.46
		C212.25,159.03,211.42,155.3,209.74,151.96z M207.85,272.16c-4.63,0-8.41,3.79-8.41,8.47v15.44c0,4.68,3.79,8.47,8.41,8.47
		c4.68,0,8.47-3.79,8.47-8.47v-15.44C216.32,275.94,212.53,272.16,207.85,272.16z M230.42,325.54c-4.63,0-8.42,3.79-8.42,8.47v14.27
		c0,4.68,3.79,8.47,8.42,8.47c4.68,0,8.47-3.79,8.47-8.47v-14.27C238.89,329.33,235.1,325.54,230.42,325.54z M249.98,272.16
		c-4.62,0-8.41,3.79-8.41,8.47v15.44c0,4.68,3.79,8.47,8.41,8.47c4.68,0,8.47-3.79,8.47-8.47v-15.44
		C258.45,275.94,254.66,272.16,249.98,272.16z M272.6,325.54c-4.68,0-8.47,3.79-8.47,8.47v14.27c0,4.68,3.79,8.47,8.47,8.47
		c4.63,0,8.41-3.79,8.41-8.47v-14.27C281.02,329.33,277.23,325.54,272.6,325.54z M292.16,272.16c-4.68,0-8.47,3.79-8.47,8.47v15.44
		c0,4.68,3.79,8.47,8.47,8.47c4.63,0,8.41-3.79,8.41-8.47v-15.44C300.58,275.94,296.79,272.16,292.16,272.16z M339.14,151.96
		c-2.06,1.39-4.4,2.12-6.85,2.12c-6.74,0-12.2-5.46-12.2-12.15c0-1.17,0.17-2.28,0.5-3.4c-1.11-0.17-2.28-0.28-3.4-0.28
		c-13.49,0-24.46,10.98-24.46,24.52c0,13.49,10.98,24.46,24.46,24.46c13.49,0,24.46-10.98,24.46-24.46
		C341.65,159.03,340.75,155.3,339.14,151.96z M292.16,272.16c-4.68,0-8.47,3.79-8.47,8.47v15.44c0,4.68,3.79,8.47,8.47,8.47
		c4.63,0,8.41-3.79,8.41-8.47v-15.44C300.58,275.94,296.79,272.16,292.16,272.16z M272.6,325.54c-4.68,0-8.47,3.79-8.47,8.47v14.27
		c0,4.68,3.79,8.47,8.47,8.47c4.63,0,8.41-3.79,8.41-8.47v-14.27C281.02,329.33,277.23,325.54,272.6,325.54z M249.98,272.16
		c-4.62,0-8.41,3.79-8.41,8.47v15.44c0,4.68,3.79,8.47,8.41,8.47c4.68,0,8.47-3.79,8.47-8.47v-15.44
		C258.45,275.94,254.66,272.16,249.98,272.16z M230.42,325.54c-4.63,0-8.42,3.79-8.42,8.47v14.27c0,4.68,3.79,8.47,8.42,8.47
		c4.68,0,8.47-3.79,8.47-8.47v-14.27C238.89,329.33,235.1,325.54,230.42,325.54z M207.85,272.16c-4.63,0-8.41,3.79-8.41,8.47v15.44
		c0,4.68,3.79,8.47,8.41,8.47c4.68,0,8.47-3.79,8.47-8.47v-15.44C216.32,275.94,212.53,272.16,207.85,272.16z M209.74,151.96
		c-2.01,1.39-4.4,2.12-6.85,2.12c-6.69,0-12.15-5.46-12.15-12.15c0-1.17,0.17-2.28,0.5-3.4c-1.17-0.17-2.28-0.28-3.45-0.28
		c-13.49,0-24.46,10.98-24.46,24.52c0,13.49,10.98,24.46,24.46,24.46c13.49,0,24.46-10.98,24.46-24.46
		C212.25,159.03,211.42,155.3,209.74,151.96z M339.14,151.96c-2.06,1.39-4.4,2.12-6.85,2.12c-6.74,0-12.2-5.46-12.2-12.15
		c0-1.17,0.17-2.28,0.5-3.4c-1.11-0.17-2.28-0.28-3.4-0.28c-13.49,0-24.46,10.98-24.46,24.52c0,13.49,10.98,24.46,24.46,24.46
		c13.49,0,24.46-10.98,24.46-24.46C341.65,159.03,340.75,155.3,339.14,151.96z M209.74,151.96c-2.01,1.39-4.4,2.12-6.85,2.12
		c-6.69,0-12.15-5.46-12.15-12.15c0-1.17,0.17-2.28,0.5-3.4c-1.17-0.17-2.28-0.28-3.45-0.28c-13.49,0-24.46,10.98-24.46,24.52
		c0,13.49,10.98,24.46,24.46,24.46c13.49,0,24.46-10.98,24.46-24.46C212.25,159.03,211.42,155.3,209.74,151.96z M207.85,272.16
		c-4.63,0-8.41,3.79-8.41,8.47v15.44c0,4.68,3.79,8.47,8.41,8.47c4.68,0,8.47-3.79,8.47-8.47v-15.44
		C216.32,275.94,212.53,272.16,207.85,272.16z M230.42,325.54c-4.63,0-8.42,3.79-8.42,8.47v14.27c0,4.68,3.79,8.47,8.42,8.47
		c4.68,0,8.47-3.79,8.47-8.47v-14.27C238.89,329.33,235.1,325.54,230.42,325.54z M249.98,272.16c-4.62,0-8.41,3.79-8.41,8.47v15.44
		c0,4.68,3.79,8.47,8.41,8.47c4.68,0,8.47-3.79,8.47-8.47v-15.44C258.45,275.94,254.66,272.16,249.98,272.16z M272.6,325.54
		c-4.68,0-8.47,3.79-8.47,8.47v14.27c0,4.68,3.79,8.47,8.47,8.47c4.63,0,8.41-3.79,8.41-8.47v-14.27
		C281.02,329.33,277.23,325.54,272.6,325.54z M292.16,272.16c-4.68,0-8.47,3.79-8.47,8.47v15.44c0,4.68,3.79,8.47,8.47,8.47
		c4.63,0,8.41-3.79,8.41-8.47v-15.44C300.58,275.94,296.79,272.16,292.16,272.16z M339.14,151.96c-2.06,1.39-4.4,2.12-6.85,2.12
		c-6.74,0-12.2-5.46-12.2-12.15c0-1.17,0.17-2.28,0.5-3.4c-1.11-0.17-2.28-0.28-3.4-0.28c-13.49,0-24.46,10.98-24.46,24.52
		c0,13.49,10.98,24.46,24.46,24.46c13.49,0,24.46-10.98,24.46-24.46C341.65,159.03,340.75,155.3,339.14,151.96z M292.16,272.16
		c-4.68,0-8.47,3.79-8.47,8.47v15.44c0,4.68,3.79,8.47,8.47,8.47c4.63,0,8.41-3.79,8.41-8.47v-15.44
		C300.58,275.94,296.79,272.16,292.16,272.16z M272.6,325.54c-4.68,0-8.47,3.79-8.47,8.47v14.27c0,4.68,3.79,8.47,8.47,8.47
		c4.63,0,8.41-3.79,8.41-8.47v-14.27C281.02,329.33,277.23,325.54,272.6,325.54z M249.98,272.16c-4.62,0-8.41,3.79-8.41,8.47v15.44
		c0,4.68,3.79,8.47,8.41,8.47c4.68,0,8.47-3.79,8.47-8.47v-15.44C258.45,275.94,254.66,272.16,249.98,272.16z M230.42,325.54
		c-4.63,0-8.42,3.79-8.42,8.47v14.27c0,4.68,3.79,8.47,8.42,8.47c4.68,0,8.47-3.79,8.47-8.47v-14.27
		C238.89,329.33,235.1,325.54,230.42,325.54z M207.85,272.16c-4.63,0-8.41,3.79-8.41,8.47v15.44c0,4.68,3.79,8.47,8.41,8.47
		c4.68,0,8.47-3.79,8.47-8.47v-15.44C216.32,275.94,212.53,272.16,207.85,272.16z M209.74,151.96c-2.01,1.39-4.4,2.12-6.85,2.12
		c-6.69,0-12.15-5.46-12.15-12.15c0-1.17,0.17-2.28,0.5-3.4c-1.17-0.17-2.28-0.28-3.45-0.28c-13.49,0-24.46,10.98-24.46,24.52
		c0,13.49,10.98,24.46,24.46,24.46c13.49,0,24.46-10.98,24.46-24.46C212.25,159.03,211.42,155.3,209.74,151.96z M339.14,151.96
		c-2.06,1.39-4.4,2.12-6.85,2.12c-6.74,0-12.2-5.46-12.2-12.15c0-1.17,0.17-2.28,0.5-3.4c-1.11-0.17-2.28-0.28-3.4-0.28
		c-13.49,0-24.46,10.98-24.46,24.52c0,13.49,10.98,24.46,24.46,24.46c13.49,0,24.46-10.98,24.46-24.46
		C341.65,159.03,340.75,155.3,339.14,151.96z M410.3,239.33l-0.44-1.34c-0.06-0.17-0.11-0.33-0.17-0.56l-0.61-1
		c-0.11-0.11-0.17-0.28-0.22-0.39l-0.28-0.33l0.11-2.95c0.06-1.45,0.11-2.9,0.11-4.35c0-49.99-13.87-93.79-40.18-126.78l-0.22-0.45
		l-19.56-65.31c-0.84-2.62-2.84-4.74-5.46-5.63c-2.68-0.84-5.52-0.33-7.75,1.28l-40.01,30.09l-0.67-0.17
		c-29.14-8.58-60.74-8.58-89.88,0l-0.67,0.17l-40.01-30.09c-2.23-1.62-5.13-2.12-7.75-1.23c-2.62,0.84-4.68,2.95-5.46,5.57
		l-19.78,65.76c-26.3,32.99-40.23,76.79-40.23,126.78c0,1.45,0.11,2.9,0.17,4.4l0.11,2.95l-0.56,0.78c-0.22,0.39-0.33,0.5-0.45,0.67
		c-0.17,0.33-0.22,0.56-0.28,0.72l-0.11,0.33l-1.39-0.22l1.23,0.67l-0.11,0.45c-20.79,72.05,0.84,139.04,56.28,174.75
		c4.29,2.73,9.42,1.28,11.81-2.51c3.34-5.35,6.41-11.2,9.08-17.39l0.67-1.5l1.39,0.89c8.69,5.79,18.28,10.64,28.53,14.54l0.89,0.33
		v12.87l-25.97,25.97c-3.29,3.29-3.29,8.64,0,11.93c3.18,3.23,8.75,3.23,11.92,0l14.04-13.99v16.66c0,4.62,3.79,8.41,8.47,8.41
		c4.63,0,8.41-3.79,8.41-8.41v-16.66l14.04,13.99c3.18,3.23,8.75,3.23,11.93,0c1.61-1.56,2.51-3.68,2.51-5.96
		c0-2.23-0.89-4.4-2.51-5.96l-25.97-25.97v-7.75l1.73,0.33c22.4,5.07,44.69,4.96,66.81-0.17l1.73-0.39l-0.11,7.13l-26.8,26.8
		c-1.56,1.56-2.45,3.73-2.45,5.96c0,2.28,0.89,4.4,2.45,5.96c1.62,1.62,3.73,2.51,6.02,2.51c2.23,0,4.35-0.89,5.96-2.51l14.32-14.32
		l-0.28,16.83c-0.05,2.23,0.78,4.4,2.34,6.02c1.56,1.62,3.68,2.56,5.91,2.56c4.74,0,8.58-3.68,8.64-8.25l0.33-16.55l13.71,13.71
		c3.18,3.23,8.75,3.23,11.93,0c1.61-1.56,2.51-3.68,2.51-5.96c0-2.23-0.89-4.4-2.51-5.96l-25.19-25.24l0.28-13.99l0.84-0.33
		c9.92-3.85,19.17-8.58,27.53-14.15l1.39-0.95l0.67,1.56c2.67,6.13,5.68,11.93,8.97,17.16l0.11,0.11l0.17,0.33
		c0.06,0,0.06,0.06,0.11,0.11l0.61,0.67c0.17,0.28,0.33,0.5,0.56,0.67c0.17,0.11,0.28,0.22,0.39,0.28c2.84,2.34,6.85,2.51,9.81,0.67
		C409.35,378.26,430.97,311.33,410.3,239.33z M368.78,162.77c0,28.48-24.52,51.66-54.67,51.66c-30.15,0-54.72-23.18-54.72-51.66
		c0-28.53,24.52-51.71,54.72-51.71C344.27,111.05,368.78,134.23,368.78,162.77z M260.57,213.36l-9.58,18.67l-9.64-18.67l9.64-16.33
		L260.57,213.36z M163.88,52.37l33.94,25.47c0.39,0.28,0.78,0.5,1.17,0.67l0.56,0.22c0.28,0.17,0.61,0.28,1,0.39l0.56,0.06
		c0.33,0.11,0.67,0.17,1.06,0.17h0.61c0.39,0,0.73,0,1-0.06c0.22,0,0.45-0.11,0.73-0.17l0.56-0.11c14.32-4.74,29.31-7.13,44.91-7.13
		c15.6,0,30.65,2.4,44.69,7.08c0.78,0.22,1.56,0.33,2.4,0.39l0.39,0.06c0.78-0.06,1.5-0.17,2.29-0.39l0.45-0.17
		c0.67-0.28,1.28-0.56,1.84-0.89l0.28-0.22l33.82-25.35l15.55,51.94l-2.95-1.56c-10.53-5.63-22.51-8.58-34.61-8.58
		c-25.41,0-49.15,13.15-61.97,34.33l-1.17,2.01l-1.23-2.01c-12.82-21.18-36.55-34.33-61.97-34.33c-12.93,0-25.69,3.4-36.89,9.92
		l-3.01,1.73L163.88,52.37z M187.79,111.05c30.2,0,54.72,23.18,54.72,51.71c0,28.48-24.52,51.66-54.72,51.66
		c-30.15,0-54.67-23.18-54.67-51.66C133.12,134.23,157.64,111.05,187.79,111.05z M155.36,376.64c-1.67,5.52-3.9,11.03-6.63,16.55
		l-0.78,1.5l-1.34-1.06c-39.62-30.54-55.89-82.14-43.63-138.03l0.45-1.95l1.67,1.06c17,10.42,30.98,24.46,40.46,40.68
		C160.2,320.58,163.71,349.39,155.36,376.64z M326.6,374.75l0.22,0.89l-0.78,0.56c-22.07,15.94-48.37,24.41-76.07,24.41
		c-13.21,0-26.36-2.01-39.06-5.96l-0.22-0.06c-0.89-0.45-1.84-0.72-2.84-0.84c-12.09-4.12-23.4-9.97-33.88-17.55l-0.78-0.56
		l0.22-0.89c7.19-29.65,2.51-60.85-13.26-87.88c-11.81-20.23-29.48-37.34-51.1-49.48l-0.67-0.33l-0.11-2.84
		c-0.11-1.95-0.17-3.9-0.17-5.8c0-19,2.17-37.22,6.47-54.16l1.62-6.3l1.11,6.35c5.91,33.04,35.55,57.01,70.49,57.01
		c12.98,0,25.74-3.4,37-9.92l1.28-0.78l17.39,33.77c0.33,0.61,0.72,1.23,1.23,1.73l0.45,0.45c0.33,0.33,0.73,0.67,1.17,0.95
		l0.84,0.56c0.17,0.06,0.39,0.11,0.67,0.22l0.67,0.22c0.11,0.06,0.22,0.11,0.33,0.17c1.56,0.39,2.73,0.33,4.24,0l1.11-0.45
		c0.22-0.06,0.45-0.11,0.67-0.22l0.56-0.39c0.61-0.45,1.06-0.72,1.39-1.11l0.44-0.39c0.45-0.56,0.89-1.11,1.17-1.67l17.44-33.83
		l1.28,0.72c11.2,6.52,24.02,9.98,36.95,9.98c33.44,0,62.08-21.79,69.66-52.94l1.45-5.74l1.28,5.74
		c3.62,15.71,5.46,32.54,5.46,50.04c0,1.9-0.11,3.85-0.17,5.8l-0.11,2.84l-0.67,0.39c-21.68,12.15-39.34,29.26-51.16,49.48
		C324.15,313.84,319.41,345.04,326.6,374.75z M353.4,393.64l-1.34,1l-0.78-1.5c-2.79-5.57-5.02-11.15-6.69-16.55
		c-8.25-27.25-4.79-56.06,9.86-81.14c9.53-16.38,23.18-30.09,40.46-40.74l1.67-1.06l0.45,1.95
		C409.3,311.5,393.03,363.1,353.4,393.64z M292.72,162.77c0,13.49,10.98,24.46,24.46,24.46c13.49,0,24.46-10.98,24.46-24.46
		c0-3.73-0.89-7.47-2.51-10.81c-2.06,1.39-4.4,2.12-6.85,2.12c-6.74,0-12.2-5.46-12.2-12.15c0-1.17,0.17-2.28,0.5-3.4
		c-1.11-0.17-2.28-0.28-3.4-0.28C303.7,138.25,292.72,149.22,292.72,162.77z M292.16,272.16c-4.68,0-8.47,3.79-8.47,8.47v15.44
		c0,4.68,3.79,8.47,8.47,8.47c4.63,0,8.41-3.79,8.41-8.47v-15.44C300.58,275.94,296.79,272.16,292.16,272.16z M272.6,325.54
		c-4.68,0-8.47,3.79-8.47,8.47v14.27c0,4.68,3.79,8.47,8.47,8.47c4.63,0,8.41-3.79,8.41-8.47v-14.27
		C281.02,329.33,277.23,325.54,272.6,325.54z M249.98,272.16c-4.62,0-8.41,3.79-8.41,8.47v15.44c0,4.68,3.79,8.47,8.41,8.47
		c4.68,0,8.47-3.79,8.47-8.47v-15.44C258.45,275.94,254.66,272.16,249.98,272.16z M230.42,325.54c-4.63,0-8.42,3.79-8.42,8.47v14.27
		c0,4.68,3.79,8.47,8.42,8.47c4.68,0,8.47-3.79,8.47-8.47v-14.27C238.89,329.33,235.1,325.54,230.42,325.54z M207.85,272.16
		c-4.63,0-8.41,3.79-8.41,8.47v15.44c0,4.68,3.79,8.47,8.41,8.47c4.68,0,8.47-3.79,8.47-8.47v-15.44
		C216.32,275.94,212.53,272.16,207.85,272.16z M187.79,187.23c13.49,0,24.46-10.98,24.46-24.46c0-3.73-0.84-7.47-2.51-10.81
		c-2.01,1.39-4.4,2.12-6.85,2.12c-6.69,0-12.15-5.46-12.15-12.15c0-1.17,0.17-2.28,0.5-3.4c-1.17-0.17-2.28-0.28-3.45-0.28
		c-13.49,0-24.46,10.98-24.46,24.52C163.33,176.25,174.3,187.23,187.79,187.23z M339.14,151.96c-2.06,1.39-4.4,2.12-6.85,2.12
		c-6.74,0-12.2-5.46-12.2-12.15c0-1.17,0.17-2.28,0.5-3.4c-1.11-0.17-2.28-0.28-3.4-0.28c-13.49,0-24.46,10.98-24.46,24.52
		c0,13.49,10.98,24.46,24.46,24.46c13.49,0,24.46-10.98,24.46-24.46C341.65,159.03,340.75,155.3,339.14,151.96z M209.74,151.96
		c-2.01,1.39-4.4,2.12-6.85,2.12c-6.69,0-12.15-5.46-12.15-12.15c0-1.17,0.17-2.28,0.5-3.4c-1.17-0.17-2.28-0.28-3.45-0.28
		c-13.49,0-24.46,10.98-24.46,24.52c0,13.49,10.98,24.46,24.46,24.46c13.49,0,24.46-10.98,24.46-24.46
		C212.25,159.03,211.42,155.3,209.74,151.96z M207.85,272.16c-4.63,0-8.41,3.79-8.41,8.47v15.44c0,4.68,3.79,8.47,8.41,8.47
		c4.68,0,8.47-3.79,8.47-8.47v-15.44C216.32,275.94,212.53,272.16,207.85,272.16z M230.42,325.54c-4.63,0-8.42,3.79-8.42,8.47v14.27
		c0,4.68,3.79,8.47,8.42,8.47c4.68,0,8.47-3.79,8.47-8.47v-14.27C238.89,329.33,235.1,325.54,230.42,325.54z M249.98,272.16
		c-4.62,0-8.41,3.79-8.41,8.47v15.44c0,4.68,3.79,8.47,8.41,8.47c4.68,0,8.47-3.79,8.47-8.47v-15.44
		C258.45,275.94,254.66,272.16,249.98,272.16z M272.6,325.54c-4.68,0-8.47,3.79-8.47,8.47v14.27c0,4.68,3.79,8.47,8.47,8.47
		c4.63,0,8.41-3.79,8.41-8.47v-14.27C281.02,329.33,277.23,325.54,272.6,325.54z M292.16,272.16c-4.68,0-8.47,3.79-8.47,8.47v15.44
		c0,4.68,3.79,8.47,8.47,8.47c4.63,0,8.41-3.79,8.41-8.47v-15.44C300.58,275.94,296.79,272.16,292.16,272.16z M339.14,151.96
		c-2.06,1.39-4.4,2.12-6.85,2.12c-6.74,0-12.2-5.46-12.2-12.15c0-1.17,0.17-2.28,0.5-3.4c-1.11-0.17-2.28-0.28-3.4-0.28
		c-13.49,0-24.46,10.98-24.46,24.52c0,13.49,10.98,24.46,24.46,24.46c13.49,0,24.46-10.98,24.46-24.46
		C341.65,159.03,340.75,155.3,339.14,151.96z M292.16,272.16c-4.68,0-8.47,3.79-8.47,8.47v15.44c0,4.68,3.79,8.47,8.47,8.47
		c4.63,0,8.41-3.79,8.41-8.47v-15.44C300.58,275.94,296.79,272.16,292.16,272.16z M272.6,325.54c-4.68,0-8.47,3.79-8.47,8.47v14.27
		c0,4.68,3.79,8.47,8.47,8.47c4.63,0,8.41-3.79,8.41-8.47v-14.27C281.02,329.33,277.23,325.54,272.6,325.54z M249.98,272.16
		c-4.62,0-8.41,3.79-8.41,8.47v15.44c0,4.68,3.79,8.47,8.41,8.47c4.68,0,8.47-3.79,8.47-8.47v-15.44
		C258.45,275.94,254.66,272.16,249.98,272.16z M230.42,325.54c-4.63,0-8.42,3.79-8.42,8.47v14.27c0,4.68,3.79,8.47,8.42,8.47
		c4.68,0,8.47-3.79,8.47-8.47v-14.27C238.89,329.33,235.1,325.54,230.42,325.54z M207.85,272.16c-4.63,0-8.41,3.79-8.41,8.47v15.44
		c0,4.68,3.79,8.47,8.41,8.47c4.68,0,8.47-3.79,8.47-8.47v-15.44C216.32,275.94,212.53,272.16,207.85,272.16z M209.74,151.96
		c-2.01,1.39-4.4,2.12-6.85,2.12c-6.69,0-12.15-5.46-12.15-12.15c0-1.17,0.17-2.28,0.5-3.4c-1.17-0.17-2.28-0.28-3.45-0.28
		c-13.49,0-24.46,10.98-24.46,24.52c0,13.49,10.98,24.46,24.46,24.46c13.49,0,24.46-10.98,24.46-24.46
		C212.25,159.03,211.42,155.3,209.74,151.96z M339.14,151.96c-2.06,1.39-4.4,2.12-6.85,2.12c-6.74,0-12.2-5.46-12.2-12.15
		c0-1.17,0.17-2.28,0.5-3.4c-1.11-0.17-2.28-0.28-3.4-0.28c-13.49,0-24.46,10.98-24.46,24.52c0,13.49,10.98,24.46,24.46,24.46
		c13.49,0,24.46-10.98,24.46-24.46C341.65,159.03,340.75,155.3,339.14,151.96z M209.74,151.96c-2.01,1.39-4.4,2.12-6.85,2.12
		c-6.69,0-12.15-5.46-12.15-12.15c0-1.17,0.17-2.28,0.5-3.4c-1.17-0.17-2.28-0.28-3.45-0.28c-13.49,0-24.46,10.98-24.46,24.52
		c0,13.49,10.98,24.46,24.46,24.46c13.49,0,24.46-10.98,24.46-24.46C212.25,159.03,211.42,155.3,209.74,151.96z M207.85,272.16
		c-4.63,0-8.41,3.79-8.41,8.47v15.44c0,4.68,3.79,8.47,8.41,8.47c4.68,0,8.47-3.79,8.47-8.47v-15.44
		C216.32,275.94,212.53,272.16,207.85,272.16z M230.42,325.54c-4.63,0-8.42,3.79-8.42,8.47v14.27c0,4.68,3.79,8.47,8.42,8.47
		c4.68,0,8.47-3.79,8.47-8.47v-14.27C238.89,329.33,235.1,325.54,230.42,325.54z M249.98,272.16c-4.62,0-8.41,3.79-8.41,8.47v15.44
		c0,4.68,3.79,8.47,8.41,8.47c4.68,0,8.47-3.79,8.47-8.47v-15.44C258.45,275.94,254.66,272.16,249.98,272.16z M272.6,325.54
		c-4.68,0-8.47,3.79-8.47,8.47v14.27c0,4.68,3.79,8.47,8.47,8.47c4.63,0,8.41-3.79,8.41-8.47v-14.27
		C281.02,329.33,277.23,325.54,272.6,325.54z M292.16,272.16c-4.68,0-8.47,3.79-8.47,8.47v15.44c0,4.68,3.79,8.47,8.47,8.47
		c4.63,0,8.41-3.79,8.41-8.47v-15.44C300.58,275.94,296.79,272.16,292.16,272.16z M339.14,151.96c-2.06,1.39-4.4,2.12-6.85,2.12
		c-6.74,0-12.2-5.46-12.2-12.15c0-1.17,0.17-2.28,0.5-3.4c-1.11-0.17-2.28-0.28-3.4-0.28c-13.49,0-24.46,10.98-24.46,24.52
		c0,13.49,10.98,24.46,24.46,24.46c13.49,0,24.46-10.98,24.46-24.46C341.65,159.03,340.75,155.3,339.14,151.96z M292.16,272.16
		c-4.68,0-8.47,3.79-8.47,8.47v15.44c0,4.68,3.79,8.47,8.47,8.47c4.63,0,8.41-3.79,8.41-8.47v-15.44
		C300.58,275.94,296.79,272.16,292.16,272.16z M272.6,325.54c-4.68,0-8.47,3.79-8.47,8.47v14.27c0,4.68,3.79,8.47,8.47,8.47
		c4.63,0,8.41-3.79,8.41-8.47v-14.27C281.02,329.33,277.23,325.54,272.6,325.54z M249.98,272.16c-4.62,0-8.41,3.79-8.41,8.47v15.44
		c0,4.68,3.79,8.47,8.41,8.47c4.68,0,8.47-3.79,8.47-8.47v-15.44C258.45,275.94,254.66,272.16,249.98,272.16z M230.42,325.54
		c-4.63,0-8.42,3.79-8.42,8.47v14.27c0,4.68,3.79,8.47,8.42,8.47c4.68,0,8.47-3.79,8.47-8.47v-14.27
		C238.89,329.33,235.1,325.54,230.42,325.54z M207.85,272.16c-4.63,0-8.41,3.79-8.41,8.47v15.44c0,4.68,3.79,8.47,8.41,8.47
		c4.68,0,8.47-3.79,8.47-8.47v-15.44C216.32,275.94,212.53,272.16,207.85,272.16z M209.74,151.96c-2.01,1.39-4.4,2.12-6.85,2.12
		c-6.69,0-12.15-5.46-12.15-12.15c0-1.17,0.17-2.28,0.5-3.4c-1.17-0.17-2.28-0.28-3.45-0.28c-13.49,0-24.46,10.98-24.46,24.52
		c0,13.49,10.98,24.46,24.46,24.46c13.49,0,24.46-10.98,24.46-24.46C212.25,159.03,211.42,155.3,209.74,151.96z M339.14,151.96
		c-2.06,1.39-4.4,2.12-6.85,2.12c-6.74,0-12.2-5.46-12.2-12.15c0-1.17,0.17-2.28,0.5-3.4c-1.11-0.17-2.28-0.28-3.4-0.28
		c-13.49,0-24.46,10.98-24.46,24.52c0,13.49,10.98,24.46,24.46,24.46c13.49,0,24.46-10.98,24.46-24.46
		C341.65,159.03,340.75,155.3,339.14,151.96z M209.74,151.96c-2.01,1.39-4.4,2.12-6.85,2.12c-6.69,0-12.15-5.46-12.15-12.15
		c0-1.17,0.17-2.28,0.5-3.4c-1.17-0.17-2.28-0.28-3.45-0.28c-13.49,0-24.46,10.98-24.46,24.52c0,13.49,10.98,24.46,24.46,24.46
		c13.49,0,24.46-10.98,24.46-24.46C212.25,159.03,211.42,155.3,209.74,151.96z M207.85,272.16c-4.63,0-8.41,3.79-8.41,8.47v15.44
		c0,4.68,3.79,8.47,8.41,8.47c4.68,0,8.47-3.79,8.47-8.47v-15.44C216.32,275.94,212.53,272.16,207.85,272.16z M230.42,325.54
		c-4.63,0-8.42,3.79-8.42,8.47v14.27c0,4.68,3.79,8.47,8.42,8.47c4.68,0,8.47-3.79,8.47-8.47v-14.27
		C238.89,329.33,235.1,325.54,230.42,325.54z M249.98,272.16c-4.62,0-8.41,3.79-8.41,8.47v15.44c0,4.68,3.79,8.47,8.41,8.47
		c4.68,0,8.47-3.79,8.47-8.47v-15.44C258.45,275.94,254.66,272.16,249.98,272.16z M272.6,325.54c-4.68,0-8.47,3.79-8.47,8.47v14.27
		c0,4.68,3.79,8.47,8.47,8.47c4.63,0,8.41-3.79,8.41-8.47v-14.27C281.02,329.33,277.23,325.54,272.6,325.54z M292.16,272.16
		c-4.68,0-8.47,3.79-8.47,8.47v15.44c0,4.68,3.79,8.47,8.47,8.47c4.63,0,8.41-3.79,8.41-8.47v-15.44
		C300.58,275.94,296.79,272.16,292.16,272.16z M339.14,151.96c-2.06,1.39-4.4,2.12-6.85,2.12c-6.74,0-12.2-5.46-12.2-12.15
		c0-1.17,0.17-2.28,0.5-3.4c-1.11-0.17-2.28-0.28-3.4-0.28c-13.49,0-24.46,10.98-24.46,24.52c0,13.49,10.98,24.46,24.46,24.46
		c13.49,0,24.46-10.98,24.46-24.46C341.65,159.03,340.75,155.3,339.14,151.96z M292.16,272.16c-4.68,0-8.47,3.79-8.47,8.47v15.44
		c0,4.68,3.79,8.47,8.47,8.47c4.63,0,8.41-3.79,8.41-8.47v-15.44C300.58,275.94,296.79,272.16,292.16,272.16z M272.6,325.54
		c-4.68,0-8.47,3.79-8.47,8.47v14.27c0,4.68,3.79,8.47,8.47,8.47c4.63,0,8.41-3.79,8.41-8.47v-14.27
		C281.02,329.33,277.23,325.54,272.6,325.54z M249.98,272.16c-4.62,0-8.41,3.79-8.41,8.47v15.44c0,4.68,3.79,8.47,8.41,8.47
		c4.68,0,8.47-3.79,8.47-8.47v-15.44C258.45,275.94,254.66,272.16,249.98,272.16z M230.42,325.54c-4.63,0-8.42,3.79-8.42,8.47v14.27
		c0,4.68,3.79,8.47,8.42,8.47c4.68,0,8.47-3.79,8.47-8.47v-14.27C238.89,329.33,235.1,325.54,230.42,325.54z M207.85,272.16
		c-4.63,0-8.41,3.79-8.41,8.47v15.44c0,4.68,3.79,8.47,8.41,8.47c4.68,0,8.47-3.79,8.47-8.47v-15.44
		C216.32,275.94,212.53,272.16,207.85,272.16z M209.74,151.96c-2.01,1.39-4.4,2.12-6.85,2.12c-6.69,0-12.15-5.46-12.15-12.15
		c0-1.17,0.17-2.28,0.5-3.4c-1.17-0.17-2.28-0.28-3.45-0.28c-13.49,0-24.46,10.98-24.46,24.52c0,13.49,10.98,24.46,24.46,24.46
		c13.49,0,24.46-10.98,24.46-24.46C212.25,159.03,211.42,155.3,209.74,151.96z M339.14,151.96c-2.06,1.39-4.4,2.12-6.85,2.12
		c-6.74,0-12.2-5.46-12.2-12.15c0-1.17,0.17-2.28,0.5-3.4c-1.11-0.17-2.28-0.28-3.4-0.28c-13.49,0-24.46,10.98-24.46,24.52
		c0,13.49,10.98,24.46,24.46,24.46c13.49,0,24.46-10.98,24.46-24.46C341.65,159.03,340.75,155.3,339.14,151.96z M209.74,151.96
		c-2.01,1.39-4.4,2.12-6.85,2.12c-6.69,0-12.15-5.46-12.15-12.15c0-1.17,0.17-2.28,0.5-3.4c-1.17-0.17-2.28-0.28-3.45-0.28
		c-13.49,0-24.46,10.98-24.46,24.52c0,13.49,10.98,24.46,24.46,24.46c13.49,0,24.46-10.98,24.46-24.46
		C212.25,159.03,211.42,155.3,209.74,151.96z M207.85,272.16c-4.63,0-8.41,3.79-8.41,8.47v15.44c0,4.68,3.79,8.47,8.41,8.47
		c4.68,0,8.47-3.79,8.47-8.47v-15.44C216.32,275.94,212.53,272.16,207.85,272.16z M230.42,325.54c-4.63,0-8.42,3.79-8.42,8.47v14.27
		c0,4.68,3.79,8.47,8.42,8.47c4.68,0,8.47-3.79,8.47-8.47v-14.27C238.89,329.33,235.1,325.54,230.42,325.54z M249.98,272.16
		c-4.62,0-8.41,3.79-8.41,8.47v15.44c0,4.68,3.79,8.47,8.41,8.47c4.68,0,8.47-3.79,8.47-8.47v-15.44
		C258.45,275.94,254.66,272.16,249.98,272.16z M272.6,325.54c-4.68,0-8.47,3.79-8.47,8.47v14.27c0,4.68,3.79,8.47,8.47,8.47
		c4.63,0,8.41-3.79,8.41-8.47v-14.27C281.02,329.33,277.23,325.54,272.6,325.54z M292.16,272.16c-4.68,0-8.47,3.79-8.47,8.47v15.44
		c0,4.68,3.79,8.47,8.47,8.47c4.63,0,8.41-3.79,8.41-8.47v-15.44C300.58,275.94,296.79,272.16,292.16,272.16z M339.14,151.96
		c-2.06,1.39-4.4,2.12-6.85,2.12c-6.74,0-12.2-5.46-12.2-12.15c0-1.17,0.17-2.28,0.5-3.4c-1.11-0.17-2.28-0.28-3.4-0.28
		c-13.49,0-24.46,10.98-24.46,24.52c0,13.49,10.98,24.46,24.46,24.46c13.49,0,24.46-10.98,24.46-24.46
		C341.65,159.03,340.75,155.3,339.14,151.96z M292.16,272.16c-4.68,0-8.47,3.79-8.47,8.47v15.44c0,4.68,3.79,8.47,8.47,8.47
		c4.63,0,8.41-3.79,8.41-8.47v-15.44C300.58,275.94,296.79,272.16,292.16,272.16z M272.6,325.54c-4.68,0-8.47,3.79-8.47,8.47v14.27
		c0,4.68,3.79,8.47,8.47,8.47c4.63,0,8.41-3.79,8.41-8.47v-14.27C281.02,329.33,277.23,325.54,272.6,325.54z M249.98,272.16
		c-4.62,0-8.41,3.79-8.41,8.47v15.44c0,4.68,3.79,8.47,8.41,8.47c4.68,0,8.47-3.79,8.47-8.47v-15.44
		C258.45,275.94,254.66,272.16,249.98,272.16z M230.42,325.54c-4.63,0-8.42,3.79-8.42,8.47v14.27c0,4.68,3.79,8.47,8.42,8.47
		c4.68,0,8.47-3.79,8.47-8.47v-14.27C238.89,329.33,235.1,325.54,230.42,325.54z M207.85,272.16c-4.63,0-8.41,3.79-8.41,8.47v15.44
		c0,4.68,3.79,8.47,8.41,8.47c4.68,0,8.47-3.79,8.47-8.47v-15.44C216.32,275.94,212.53,272.16,207.85,272.16z M209.74,151.96
		c-2.01,1.39-4.4,2.12-6.85,2.12c-6.69,0-12.15-5.46-12.15-12.15c0-1.17,0.17-2.28,0.5-3.4c-1.17-0.17-2.28-0.28-3.45-0.28
		c-13.49,0-24.46,10.98-24.46,24.52c0,13.49,10.98,24.46,24.46,24.46c13.49,0,24.46-10.98,24.46-24.46
		C212.25,159.03,211.42,155.3,209.74,151.96z M339.14,151.96c-2.06,1.39-4.4,2.12-6.85,2.12c-6.74,0-12.2-5.46-12.2-12.15
		c0-1.17,0.17-2.28,0.5-3.4c-1.11-0.17-2.28-0.28-3.4-0.28c-13.49,0-24.46,10.98-24.46,24.52c0,13.49,10.98,24.46,24.46,24.46
		c13.49,0,24.46-10.98,24.46-24.46C341.65,159.03,340.75,155.3,339.14,151.96z M209.74,151.96c-2.01,1.39-4.4,2.12-6.85,2.12
		c-6.69,0-12.15-5.46-12.15-12.15c0-1.17,0.17-2.28,0.5-3.4c-1.17-0.17-2.28-0.28-3.45-0.28c-13.49,0-24.46,10.98-24.46,24.52
		c0,13.49,10.98,24.46,24.46,24.46c13.49,0,24.46-10.98,24.46-24.46C212.25,159.03,211.42,155.3,209.74,151.96z M207.85,272.16
		c-4.63,0-8.41,3.79-8.41,8.47v15.44c0,4.68,3.79,8.47,8.41,8.47c4.68,0,8.47-3.79,8.47-8.47v-15.44
		C216.32,275.94,212.53,272.16,207.85,272.16z M230.42,325.54c-4.63,0-8.42,3.79-8.42,8.47v14.27c0,4.68,3.79,8.47,8.42,8.47
		c4.68,0,8.47-3.79,8.47-8.47v-14.27C238.89,329.33,235.1,325.54,230.42,325.54z M249.98,272.16c-4.62,0-8.41,3.79-8.41,8.47v15.44
		c0,4.68,3.79,8.47,8.41,8.47c4.68,0,8.47-3.79,8.47-8.47v-15.44C258.45,275.94,254.66,272.16,249.98,272.16z M272.6,325.54
		c-4.68,0-8.47,3.79-8.47,8.47v14.27c0,4.68,3.79,8.47,8.47,8.47c4.63,0,8.41-3.79,8.41-8.47v-14.27
		C281.02,329.33,277.23,325.54,272.6,325.54z M292.16,272.16c-4.68,0-8.47,3.79-8.47,8.47v15.44c0,4.68,3.79,8.47,8.47,8.47
		c4.63,0,8.41-3.79,8.41-8.47v-15.44C300.58,275.94,296.79,272.16,292.16,272.16z M339.14,151.96c-2.06,1.39-4.4,2.12-6.85,2.12
		c-6.74,0-12.2-5.46-12.2-12.15c0-1.17,0.17-2.28,0.5-3.4c-1.11-0.17-2.28-0.28-3.4-0.28c-13.49,0-24.46,10.98-24.46,24.52
		c0,13.49,10.98,24.46,24.46,24.46c13.49,0,24.46-10.98,24.46-24.46C341.65,159.03,340.75,155.3,339.14,151.96z M292.16,272.16
		c-4.68,0-8.47,3.79-8.47,8.47v15.44c0,4.68,3.79,8.47,8.47,8.47c4.63,0,8.41-3.79,8.41-8.47v-15.44
		C300.58,275.94,296.79,272.16,292.16,272.16z M272.6,325.54c-4.68,0-8.47,3.79-8.47,8.47v14.27c0,4.68,3.79,8.47,8.47,8.47
		c4.63,0,8.41-3.79,8.41-8.47v-14.27C281.02,329.33,277.23,325.54,272.6,325.54z M249.98,272.16c-4.62,0-8.41,3.79-8.41,8.47v15.44
		c0,4.68,3.79,8.47,8.41,8.47c4.68,0,8.47-3.79,8.47-8.47v-15.44C258.45,275.94,254.66,272.16,249.98,272.16z M230.42,325.54
		c-4.63,0-8.42,3.79-8.42,8.47v14.27c0,4.68,3.79,8.47,8.42,8.47c4.68,0,8.47-3.79,8.47-8.47v-14.27
		C238.89,329.33,235.1,325.54,230.42,325.54z M207.85,272.16c-4.63,0-8.41,3.79-8.41,8.47v15.44c0,4.68,3.79,8.47,8.41,8.47
		c4.68,0,8.47-3.79,8.47-8.47v-15.44C216.32,275.94,212.53,272.16,207.85,272.16z M209.74,151.96c-2.01,1.39-4.4,2.12-6.85,2.12
		c-6.69,0-12.15-5.46-12.15-12.15c0-1.17,0.17-2.28,0.5-3.4c-1.17-0.17-2.28-0.28-3.45-0.28c-13.49,0-24.46,10.98-24.46,24.52
		c0,13.49,10.98,24.46,24.46,24.46c13.49,0,24.46-10.98,24.46-24.46C212.25,159.03,211.42,155.3,209.74,151.96z M339.14,151.96
		c-2.06,1.39-4.4,2.12-6.85,2.12c-6.74,0-12.2-5.46-12.2-12.15c0-1.17,0.17-2.28,0.5-3.4c-1.11-0.17-2.28-0.28-3.4-0.28
		c-13.49,0-24.46,10.98-24.46,24.52c0,13.49,10.98,24.46,24.46,24.46c13.49,0,24.46-10.98,24.46-24.46
		C341.65,159.03,340.75,155.3,339.14,151.96z M209.74,151.96c-2.01,1.39-4.4,2.12-6.85,2.12c-6.69,0-12.15-5.46-12.15-12.15
		c0-1.17,0.17-2.28,0.5-3.4c-1.17-0.17-2.28-0.28-3.45-0.28c-13.49,0-24.46,10.98-24.46,24.52c0,13.49,10.98,24.46,24.46,24.46
		c13.49,0,24.46-10.98,24.46-24.46C212.25,159.03,211.42,155.3,209.74,151.96z M207.85,272.16c-4.63,0-8.41,3.79-8.41,8.47v15.44
		c0,4.68,3.79,8.47,8.41,8.47c4.68,0,8.47-3.79,8.47-8.47v-15.44C216.32,275.94,212.53,272.16,207.85,272.16z M230.42,325.54
		c-4.63,0-8.42,3.79-8.42,8.47v14.27c0,4.68,3.79,8.47,8.42,8.47c4.68,0,8.47-3.79,8.47-8.47v-14.27
		C238.89,329.33,235.1,325.54,230.42,325.54z M249.98,272.16c-4.62,0-8.41,3.79-8.41,8.47v15.44c0,4.68,3.79,8.47,8.41,8.47
		c4.68,0,8.47-3.79,8.47-8.47v-15.44C258.45,275.94,254.66,272.16,249.98,272.16z M272.6,325.54c-4.68,0-8.47,3.79-8.47,8.47v14.27
		c0,4.68,3.79,8.47,8.47,8.47c4.63,0,8.41-3.79,8.41-8.47v-14.27C281.02,329.33,277.23,325.54,272.6,325.54z M292.16,272.16
		c-4.68,0-8.47,3.79-8.47,8.47v15.44c0,4.68,3.79,8.47,8.47,8.47c4.63,0,8.41-3.79,8.41-8.47v-15.44
		C300.58,275.94,296.79,272.16,292.16,272.16z M339.14,151.96c-2.06,1.39-4.4,2.12-6.85,2.12c-6.74,0-12.2-5.46-12.2-12.15
		c0-1.17,0.17-2.28,0.5-3.4c-1.11-0.17-2.28-0.28-3.4-0.28c-13.49,0-24.46,10.98-24.46,24.52c0,13.49,10.98,24.46,24.46,24.46
		c13.49,0,24.46-10.98,24.46-24.46C341.65,159.03,340.75,155.3,339.14,151.96z M292.16,272.16c-4.68,0-8.47,3.79-8.47,8.47v15.44
		c0,4.68,3.79,8.47,8.47,8.47c4.63,0,8.41-3.79,8.41-8.47v-15.44C300.58,275.94,296.79,272.16,292.16,272.16z M272.6,325.54
		c-4.68,0-8.47,3.79-8.47,8.47v14.27c0,4.68,3.79,8.47,8.47,8.47c4.63,0,8.41-3.79,8.41-8.47v-14.27
		C281.02,329.33,277.23,325.54,272.6,325.54z M249.98,272.16c-4.62,0-8.41,3.79-8.41,8.47v15.44c0,4.68,3.79,8.47,8.41,8.47
		c4.68,0,8.47-3.79,8.47-8.47v-15.44C258.45,275.94,254.66,272.16,249.98,272.16z M230.42,325.54c-4.63,0-8.42,3.79-8.42,8.47v14.27
		c0,4.68,3.79,8.47,8.42,8.47c4.68,0,8.47-3.79,8.47-8.47v-14.27C238.89,329.33,235.1,325.54,230.42,325.54z M207.85,272.16
		c-4.63,0-8.41,3.79-8.41,8.47v15.44c0,4.68,3.79,8.47,8.41,8.47c4.68,0,8.47-3.79,8.47-8.47v-15.44
		C216.32,275.94,212.53,272.16,207.85,272.16z M209.74,151.96c-2.01,1.39-4.4,2.12-6.85,2.12c-6.69,0-12.15-5.46-12.15-12.15
		c0-1.17,0.17-2.28,0.5-3.4c-1.17-0.17-2.28-0.28-3.45-0.28c-13.49,0-24.46,10.98-24.46,24.52c0,13.49,10.98,24.46,24.46,24.46
		c13.49,0,24.46-10.98,24.46-24.46C212.25,159.03,211.42,155.3,209.74,151.96z M207.85,272.16c-4.63,0-8.41,3.79-8.41,8.47v15.44
		c0,4.68,3.79,8.47,8.41,8.47c4.68,0,8.47-3.79,8.47-8.47v-15.44C216.32,275.94,212.53,272.16,207.85,272.16z M230.42,325.54
		c-4.63,0-8.42,3.79-8.42,8.47v14.27c0,4.68,3.79,8.47,8.42,8.47c4.68,0,8.47-3.79,8.47-8.47v-14.27
		C238.89,329.33,235.1,325.54,230.42,325.54z M249.98,272.16c-4.62,0-8.41,3.79-8.41,8.47v15.44c0,4.68,3.79,8.47,8.41,8.47
		c4.68,0,8.47-3.79,8.47-8.47v-15.44C258.45,275.94,254.66,272.16,249.98,272.16z M272.6,325.54c-4.68,0-8.47,3.79-8.47,8.47v14.27
		c0,4.68,3.79,8.47,8.47,8.47c4.63,0,8.41-3.79,8.41-8.47v-14.27C281.02,329.33,277.23,325.54,272.6,325.54z M292.16,272.16
		c-4.68,0-8.47,3.79-8.47,8.47v15.44c0,4.68,3.79,8.47,8.47,8.47c4.63,0,8.41-3.79,8.41-8.47v-15.44
		C300.58,275.94,296.79,272.16,292.16,272.16z M339.14,151.96c-2.06,1.39-4.4,2.12-6.85,2.12c-6.74,0-12.2-5.46-12.2-12.15
		c0-1.17,0.17-2.28,0.5-3.4c-1.11-0.17-2.28-0.28-3.4-0.28c-13.49,0-24.46,10.98-24.46,24.52c0,13.49,10.98,24.46,24.46,24.46
		c13.49,0,24.46-10.98,24.46-24.46C341.65,159.03,340.75,155.3,339.14,151.96z M209.74,151.96c-2.01,1.39-4.4,2.12-6.85,2.12
		c-6.69,0-12.15-5.46-12.15-12.15c0-1.17,0.17-2.28,0.5-3.4c-1.17-0.17-2.28-0.28-3.45-0.28c-13.49,0-24.46,10.98-24.46,24.52
		c0,13.49,10.98,24.46,24.46,24.46c13.49,0,24.46-10.98,24.46-24.46C212.25,159.03,211.42,155.3,209.74,151.96z M339.14,151.96
		c-2.06,1.39-4.4,2.12-6.85,2.12c-6.74,0-12.2-5.46-12.2-12.15c0-1.17,0.17-2.28,0.5-3.4c-1.11-0.17-2.28-0.28-3.4-0.28
		c-13.49,0-24.46,10.98-24.46,24.52c0,13.49,10.98,24.46,24.46,24.46c13.49,0,24.46-10.98,24.46-24.46
		C341.65,159.03,340.75,155.3,339.14,151.96z M292.16,272.16c-4.68,0-8.47,3.79-8.47,8.47v15.44c0,4.68,3.79,8.47,8.47,8.47
		c4.63,0,8.41-3.79,8.41-8.47v-15.44C300.58,275.94,296.79,272.16,292.16,272.16z M272.6,325.54c-4.68,0-8.47,3.79-8.47,8.47v14.27
		c0,4.68,3.79,8.47,8.47,8.47c4.63,0,8.41-3.79,8.41-8.47v-14.27C281.02,329.33,277.23,325.54,272.6,325.54z M249.98,272.16
		c-4.62,0-8.41,3.79-8.41,8.47v15.44c0,4.68,3.79,8.47,8.41,8.47c4.68,0,8.47-3.79,8.47-8.47v-15.44
		C258.45,275.94,254.66,272.16,249.98,272.16z M230.42,325.54c-4.63,0-8.42,3.79-8.42,8.47v14.27c0,4.68,3.79,8.47,8.42,8.47
		c4.68,0,8.47-3.79,8.47-8.47v-14.27C238.89,329.33,235.1,325.54,230.42,325.54z M207.85,272.16c-4.63,0-8.41,3.79-8.41,8.47v15.44
		c0,4.68,3.79,8.47,8.41,8.47c4.68,0,8.47-3.79,8.47-8.47v-15.44C216.32,275.94,212.53,272.16,207.85,272.16z M209.74,151.96
		c-2.01,1.39-4.4,2.12-6.85,2.12c-6.69,0-12.15-5.46-12.15-12.15c0-1.17,0.17-2.28,0.5-3.4c-1.17-0.17-2.28-0.28-3.45-0.28
		c-13.49,0-24.46,10.98-24.46,24.52c0,13.49,10.98,24.46,24.46,24.46c13.49,0,24.46-10.98,24.46-24.46
		C212.25,159.03,211.42,155.3,209.74,151.96z M209.74,151.96c-2.01,1.39-4.4,2.12-6.85,2.12c-6.69,0-12.15-5.46-12.15-12.15
		c0-1.17,0.17-2.28,0.5-3.4c-1.17-0.17-2.28-0.28-3.45-0.28c-13.49,0-24.46,10.98-24.46,24.52c0,13.49,10.98,24.46,24.46,24.46
		c13.49,0,24.46-10.98,24.46-24.46C212.25,159.03,211.42,155.3,209.74,151.96z M339.14,151.96c-2.06,1.39-4.4,2.12-6.85,2.12
		c-6.74,0-12.2-5.46-12.2-12.15c0-1.17,0.17-2.28,0.5-3.4c-1.11-0.17-2.28-0.28-3.4-0.28c-13.49,0-24.46,10.98-24.46,24.52
		c0,13.49,10.98,24.46,24.46,24.46c13.49,0,24.46-10.98,24.46-24.46C341.65,159.03,340.75,155.3,339.14,151.96z M207.85,272.16
		c-4.63,0-8.41,3.79-8.41,8.47v15.44c0,4.68,3.79,8.47,8.41,8.47c4.68,0,8.47-3.79,8.47-8.47v-15.44
		C216.32,275.94,212.53,272.16,207.85,272.16z M230.42,325.54c-4.63,0-8.42,3.79-8.42,8.47v14.27c0,4.68,3.79,8.47,8.42,8.47
		c4.68,0,8.47-3.79,8.47-8.47v-14.27C238.89,329.33,235.1,325.54,230.42,325.54z M249.98,272.16c-4.62,0-8.41,3.79-8.41,8.47v15.44
		c0,4.68,3.79,8.47,8.41,8.47c4.68,0,8.47-3.79,8.47-8.47v-15.44C258.45,275.94,254.66,272.16,249.98,272.16z M272.6,325.54
		c-4.68,0-8.47,3.79-8.47,8.47v14.27c0,4.68,3.79,8.47,8.47,8.47c4.63,0,8.41-3.79,8.41-8.47v-14.27
		C281.02,329.33,277.23,325.54,272.6,325.54z M292.16,272.16c-4.68,0-8.47,3.79-8.47,8.47v15.44c0,4.68,3.79,8.47,8.47,8.47
		c4.63,0,8.41-3.79,8.41-8.47v-15.44C300.58,275.94,296.79,272.16,292.16,272.16z M207.85,272.16c-4.63,0-8.41,3.79-8.41,8.47v15.44
		c0,4.68,3.79,8.47,8.41,8.47c4.68,0,8.47-3.79,8.47-8.47v-15.44C216.32,275.94,212.53,272.16,207.85,272.16z M249.98,272.16
		c-4.62,0-8.41,3.79-8.41,8.47v15.44c0,4.68,3.79,8.47,8.41,8.47c4.68,0,8.47-3.79,8.47-8.47v-15.44
		C258.45,275.94,254.66,272.16,249.98,272.16z M292.16,272.16c-4.68,0-8.47,3.79-8.47,8.47v15.44c0,4.68,3.79,8.47,8.47,8.47
		c4.63,0,8.41-3.79,8.41-8.47v-15.44C300.58,275.94,296.79,272.16,292.16,272.16z M230.42,325.54c-4.63,0-8.42,3.79-8.42,8.47v14.27
		c0,4.68,3.79,8.47,8.42,8.47c4.68,0,8.47-3.79,8.47-8.47v-14.27C238.89,329.33,235.1,325.54,230.42,325.54z M272.6,325.54
		c-4.68,0-8.47,3.79-8.47,8.47v14.27c0,4.68,3.79,8.47,8.47,8.47c4.63,0,8.41-3.79,8.41-8.47v-14.27
		C281.02,329.33,277.23,325.54,272.6,325.54z"/>
	<path class="st1" d="M412.64,237.49l-1.34,0.44c0.05,0.17,0.11,0.22,0.17,0.39c0.06,0.06,0.06,0.11,0.06,0.22l1.28-0.61
		C412.75,237.77,412.7,237.66,412.64,237.49z M412.53,237.16c-0.11-0.28-0.17-0.61-0.33-0.89l-0.17-0.28
		c-0.11-0.17-0.17-0.39-0.28-0.56l-1.23,0.78c0.11,0.11,0.22,0.22,0.28,0.39c0,0.11,0.11,0.17,0.17,0.28c0.11,0.33,0.22,0.67,0.33,1
		v0.06L412.53,237.16z"/>
</g>
</svg>
