<?xml version="1.0" encoding="utf-8"?>
<!-- Generator: Adobe Illustrator 25.0.0, SVG Export Plug-In . SVG Version: 6.00 Build 0)  -->
<svg version="1.1" id="Layer_1" xmlns="http://www.w3.org/2000/svg" xmlns:xlink="http://www.w3.org/1999/xlink" x="0px" y="0px"
	 viewBox="0 0 500 500" style="enable-background:new 0 0 500 500;" xml:space="preserve">
<style type="text/css">
	.st0{fill:url(#SVGID_1_);}
	.st1{fill:url(#SVGID_2_);}
	.st2{fill:url(#SVGID_3_);}
	.st3{fill:url(#SVGID_4_);}
	.st4{fill:url(#SVGID_5_);}
	.st5{fill:url(#SVGID_6_);}
	.st6{fill:url(#SVGID_7_);}
	.st7{fill:url(#SVGID_8_);}
	.st8{fill:url(#SVGID_9_);}
	.st9{fill:url(#SVGID_10_);}
	.st10{fill:url(#SVGID_11_);}
	.st11{fill:url(#SVGID_12_);}
	.st12{fill:url(#SVGID_13_);}
</style>
<g>
	<g>
		<linearGradient id="SVGID_1_" gradientUnits="userSpaceOnUse" x1="227.9987" y1="250" x2="272.0061" y2="250">
			<stop  offset="0" style="stop-color:#48B1CC"/>
			<stop  offset="1" style="stop-color:#B5EDFF"/>
		</linearGradient>
		<circle class="st0" cx="250" cy="250" r="22"/>
		<linearGradient id="SVGID_2_" gradientUnits="userSpaceOnUse" x1="192.9181" y1="243.0072" x2="259.3181" y2="243.0072">
			<stop  offset="0" style="stop-color:#48B1CC"/>
			<stop  offset="1" style="stop-color:#B5EDFF"/>
		</linearGradient>
		<path class="st1" d="M250,211.56c5.15,0,9.32-4.17,9.32-9.32c0-5.15-4.16-9.32-9.32-9.32c-15.25,0-29.58,5.94-40.36,16.72
			c-10.78,10.78-16.72,25.12-16.72,40.36c0,15.25,5.94,29.58,16.72,40.37c1.82,1.81,4.2,2.73,6.58,2.73s4.77-0.91,6.58-2.73
			c3.64-3.64,3.64-9.54,0-13.18c-7.26-7.26-11.25-16.91-11.25-27.18c0-10.27,4-19.92,11.26-27.18
			C230.07,215.56,239.73,211.56,250,211.56z"/>
		<linearGradient id="SVGID_3_" gradientUnits="userSpaceOnUse" x1="240.682" y1="256.9949" x2="307.0867" y2="256.9949">
			<stop  offset="0" style="stop-color:#48B1CC"/>
			<stop  offset="1" style="stop-color:#B5EDFF"/>
		</linearGradient>
		<path class="st2" d="M250,288.45c-5.15,0-9.32,4.16-9.32,9.32c0,5.15,4.17,9.31,9.32,9.31c15.25,0,29.58-5.93,40.36-16.71
			c10.78-10.78,16.72-25.12,16.72-40.37c0-15.24-5.94-29.58-16.72-40.36c-3.63-3.64-9.54-3.64-13.17,0c-3.64,3.64-3.64,9.54,0,13.18
			c7.26,7.26,11.25,16.91,11.25,27.18s-3.99,19.92-11.25,27.18C269.92,284.44,260.27,288.45,250,288.45z"/>
		<linearGradient id="SVGID_4_" gradientUnits="userSpaceOnUse" x1="240.682" y1="291.7429" x2="342.8039" y2="291.7429">
			<stop  offset="0" style="stop-color:#48B1CC"/>
			<stop  offset="1" style="stop-color:#B5EDFF"/>
		</linearGradient>
		<path class="st3" d="M250,342.81c24.79,0,48.09-9.65,65.62-27.18c17.53-17.53,27.18-40.83,27.18-65.62c0-5.15-4.16-9.32-9.32-9.32
			c-5.15,0-9.31,4.17-9.31,9.32c0,19.81-7.72,38.44-21.73,52.45c-14.01,14-32.63,21.72-52.44,21.72c-5.15,0-9.32,4.17-9.32,9.32
			S244.86,342.81,250,342.81z"/>
		<linearGradient id="SVGID_5_" gradientUnits="userSpaceOnUse" x1="157.201" y1="237.7711" x2="318.3583" y2="237.7711">
			<stop  offset="0" style="stop-color:#48B1CC"/>
			<stop  offset="1" style="stop-color:#B5EDFF"/>
		</linearGradient>
		<path class="st4" d="M315.62,197.56c3.64-3.64,3.64-9.54,0-13.18c-17.52-17.53-40.83-27.18-65.62-27.18
			c-24.79,0-48.09,9.65-65.62,27.18c-17.53,17.53-27.18,40.83-27.18,65.62s9.66,48.1,27.18,65.62c1.82,1.82,4.2,2.73,6.59,2.73
			c2.38,0,4.77-0.9,6.58-2.73c3.64-3.64,3.64-9.54,0-13.17c-14.01-14.01-21.72-32.64-21.72-52.45s7.71-38.44,21.72-52.44
			c14.01-14.01,32.63-21.72,52.44-21.72c19.82,0,38.44,7.71,52.44,21.72C306.09,201.2,311.99,201.2,315.62,197.56z"/>
		<linearGradient id="SVGID_6_" gradientUnits="userSpaceOnUse" x1="115.0547" y1="268.3986" x2="259.3181" y2="268.3986">
			<stop  offset="0" style="stop-color:#48B1CC"/>
			<stop  offset="1" style="stop-color:#B5EDFF"/>
		</linearGradient>
		<path class="st5" d="M250,384.95c5.15,0,9.32-4.16,9.32-9.31c0-5.16-4.16-9.32-9.32-9.32c-31.07,0-60.28-12.1-82.25-34.07
			c-21.97-21.96-34.06-51.18-34.06-82.24c0-31.07,12.1-60.28,34.06-82.24c3.64-3.64,3.64-9.54,0-13.18c-3.63-3.64-9.54-3.64-13.18,0
			c-25.49,25.48-39.52,59.37-39.52,95.42s14.04,69.93,39.53,95.43C180.07,370.91,213.95,384.95,250,384.95z"/>
		<linearGradient id="SVGID_7_" gradientUnits="userSpaceOnUse" x1="240.682" y1="231.5972" x2="384.955" y2="231.5972">
			<stop  offset="0" style="stop-color:#48B1CC"/>
			<stop  offset="1" style="stop-color:#B5EDFF"/>
		</linearGradient>
		<path class="st6" d="M338.84,348.15c2.38,0,4.77-0.91,6.58-2.73c25.49-25.49,39.53-59.38,39.53-95.43s-14.04-69.94-39.53-95.43
			c-25.49-25.48-59.37-39.52-95.42-39.52c-5.15,0-9.32,4.17-9.32,9.32c0,5.15,4.17,9.32,9.32,9.32c31.06,0,60.28,12.1,82.25,34.07
			c21.96,21.96,34.06,51.18,34.06,82.24s-12.1,60.28-34.06,82.24c-3.64,3.63-3.64,9.54,0,13.18
			C334.07,347.24,336.46,348.15,338.84,348.15z"/>
		<linearGradient id="SVGID_8_" gradientUnits="userSpaceOnUse" x1="76.0331" y1="167.6756" x2="375.7414" y2="167.6756">
			<stop  offset="0" style="stop-color:#48B1CC"/>
			<stop  offset="1" style="stop-color:#B5EDFF"/>
		</linearGradient>
		<path class="st7" d="M85.35,259.32c5.15,0,9.32-4.17,9.32-9.32c0-41.5,16.15-80.5,45.49-109.83S208.51,94.67,250,94.67
			c41.49,0,80.49,16.16,109.83,45.49c3.64,3.64,9.55,3.64,13.18,0c3.63-3.64,3.63-9.54,0-13.18C340.16,94.13,296.47,76.03,250,76.03
			c-46.47,0-90.16,18.1-123.01,50.95S76.03,203.53,76.03,250C76.03,255.15,80.21,259.32,85.35,259.32z"/>
		<linearGradient id="SVGID_9_" gradientUnits="userSpaceOnUse" x1="124.2549" y1="332.322" x2="423.9766" y2="332.322">
			<stop  offset="0" style="stop-color:#48B1CC"/>
			<stop  offset="1" style="stop-color:#B5EDFF"/>
		</linearGradient>
		<path class="st8" d="M414.66,240.68c-5.16,0-9.32,4.17-9.32,9.32c0,41.49-16.15,80.5-45.5,109.83
			c-29.34,29.34-68.35,45.5-109.83,45.5c-41.49,0-80.5-16.16-109.84-45.5c-3.63-3.63-9.54-3.63-13.18,0
			c-3.64,3.63-3.64,9.54,0,13.17c32.86,32.85,76.55,50.96,123.02,50.96s90.15-18.1,123.01-50.96s50.96-76.54,50.96-123.01
			C423.98,244.85,419.8,240.68,414.66,240.68z"/>
		<linearGradient id="SVGID_10_" gradientUnits="userSpaceOnUse" x1="387.2487" y1="176.7172" x2="466.5894" y2="176.7172">
			<stop  offset="0" style="stop-color:#48B1CC"/>
			<stop  offset="1" style="stop-color:#B5EDFF"/>
		</linearGradient>
		<path class="st9" d="M403.15,96.84c-3.63-3.64-9.54-3.64-13.17,0c-3.63,3.64-3.63,9.54,0,13.18
			c37.39,37.39,57.98,87.1,57.98,139.98c0,5.15,4.16,9.32,9.32,9.32c5.15,0,9.31-4.17,9.31-9.32
			C466.59,192.15,444.07,137.76,403.15,96.84z"/>
		<linearGradient id="SVGID_11_" gradientUnits="userSpaceOnUse" x1="94.1164" y1="73.0834" x2="259.3181" y2="73.0834">
			<stop  offset="0" style="stop-color:#48B1CC"/>
			<stop  offset="1" style="stop-color:#B5EDFF"/>
		</linearGradient>
		<path class="st10" d="M103.44,112.75c2.39,0,4.77-0.91,6.59-2.73c37.39-37.39,87.1-57.97,139.98-57.97c5.15,0,9.32-4.17,9.32-9.32
			s-4.16-9.32-9.32-9.32c-57.86,0-112.25,22.53-153.16,63.44c-3.64,3.64-3.64,9.54,0,13.18
			C98.67,111.84,101.05,112.75,103.44,112.75z"/>
		<linearGradient id="SVGID_12_" gradientUnits="userSpaceOnUse" x1="33.4106" y1="323.2809" x2="112.7556" y2="323.2809">
			<stop  offset="0" style="stop-color:#48B1CC"/>
			<stop  offset="1" style="stop-color:#B5EDFF"/>
		</linearGradient>
		<path class="st11" d="M52.05,250c0-5.15-4.17-9.32-9.32-9.32c-5.15,0-9.32,4.17-9.32,9.32c0,57.85,22.53,112.24,63.44,153.15
			c1.82,1.82,4.2,2.73,6.58,2.73c2.39,0,4.77-0.91,6.59-2.73c3.64-3.63,3.64-9.54,0-13.17C72.64,352.58,52.05,302.88,52.05,250z"/>
		<linearGradient id="SVGID_13_" gradientUnits="userSpaceOnUse" x1="240.682" y1="426.9151" x2="405.8836" y2="426.9151">
			<stop  offset="0" style="stop-color:#48B1CC"/>
			<stop  offset="1" style="stop-color:#B5EDFF"/>
		</linearGradient>
		<path class="st12" d="M389.97,389.98c-37.39,37.38-87.1,57.97-139.97,57.97c-5.15,0-9.32,4.17-9.32,9.32
			c0,5.16,4.17,9.32,9.32,9.32c57.85,0,112.24-22.53,153.15-63.44c3.64-3.63,3.64-9.54,0.01-13.17
			C399.51,386.33,393.62,386.33,389.97,389.98z"/>
	</g>
</g>
</svg>
