<?xml version="1.0" encoding="utf-8"?>
<!-- Generator: Adobe Illustrator 25.0.0, SVG Export Plug-In . SVG Version: 6.00 Build 0)  -->
<svg version="1.1" id="Layer_1" xmlns="http://www.w3.org/2000/svg" xmlns:xlink="http://www.w3.org/1999/xlink" x="0px" y="0px"
	 viewBox="0 0 500 500" style="enable-background:new 0 0 500 500;" xml:space="preserve">
<style type="text/css">
	.st0{fill:url(#SVGID_1_);}
	.st1{fill:url(#SVGID_2_);}
	.st2{fill:url(#SVGID_3_);}
	.st3{fill:url(#SVGID_4_);}
	.st4{fill:url(#SVGID_5_);}
	.st5{fill:url(#SVGID_6_);}
	.st6{fill:url(#SVGID_7_);}
	.st7{fill:url(#SVGID_8_);}
	.st8{fill:url(#SVGID_9_);}
	.st9{fill:url(#SVGID_10_);}
	.st10{fill:url(#SVGID_11_);}
	.st11{fill:url(#SVGID_12_);}
	.st12{fill:url(#SVGID_13_);}
	.st13{fill:url(#SVGID_14_);}
</style>
<g>
	<g>
		<linearGradient id="SVGID_1_" gradientUnits="userSpaceOnUse" x1="134.4334" y1="365.5666" x2="188.8177" y2="365.5666">
			<stop  offset="0" style="stop-color:#F3837A"/>
			<stop  offset="1" style="stop-color:#F7A891"/>
		</linearGradient>
		<path class="st0" d="M161.63,338.37c7.5,0,13.6,6.1,13.6,13.6h13.6c0-15-12.2-27.19-27.19-27.19c-15,0-27.19,12.2-27.19,27.19
			v27.19c0,15,12.2,27.19,27.19,27.19c15,0,27.19-12.2,27.19-27.19h-13.6c0,7.5-6.1,13.6-13.6,13.6c-7.5,0-13.6-6.1-13.6-13.6
			v-27.19C148.03,344.47,154.13,338.37,161.63,338.37z"/>
		<linearGradient id="SVGID_2_" gradientUnits="userSpaceOnUse" x1="202.4137" y1="365.5666" x2="256.798" y2="365.5666">
			<stop  offset="0" style="stop-color:#F3837A"/>
			<stop  offset="1" style="stop-color:#F7A891"/>
		</linearGradient>
		<path class="st1" d="M229.61,324.78c-15,0-27.19,12.2-27.19,27.19v27.19c0,15,12.2,27.19,27.19,27.19c15,0,27.19-12.2,27.19-27.19
			v-27.19C256.8,336.97,244.6,324.78,229.61,324.78z M243.2,379.16c0,7.5-6.1,13.6-13.6,13.6c-7.5,0-13.6-6.1-13.6-13.6v-27.19
			c0-7.5,6.1-13.6,13.6-13.6c7.5,0,13.6,6.1,13.6,13.6V379.16z"/>
		<linearGradient id="SVGID_3_" gradientUnits="userSpaceOnUse" x1="263.5961" y1="402.9558" x2="304.3843" y2="402.9558">
			<stop  offset="0" style="stop-color:#F3837A"/>
			<stop  offset="1" style="stop-color:#F7A891"/>
		</linearGradient>
		<path class="st2" d="M304.38,392.76c0-11.24-9.15-20.39-20.39-20.39c-11.24,0-20.39,9.15-20.39,20.39h13.6
			c0-3.75,3.05-6.8,6.8-6.8c3.75,0,6.8,3.05,6.8,6.8c0,2.13-1.01,4.16-2.72,5.44l-24.47,18.35v17h40.79v-13.6h-22.66l14.51-10.88
			C301.34,405.24,304.38,399.14,304.38,392.76z"/>
		<linearGradient id="SVGID_4_" gradientUnits="userSpaceOnUse" x1="93.6452" y1="328.1774" x2="154.8275" y2="328.1774">
			<stop  offset="0" style="stop-color:#F3837A"/>
			<stop  offset="1" style="stop-color:#F7A891"/>
		</linearGradient>
		<path class="st3" d="M154.83,297.59c-33.73,0-61.18,27.45-61.18,61.18h13.6c0-26.24,21.35-47.59,47.59-47.59V297.59z"/>
		<linearGradient id="SVGID_5_" gradientUnits="userSpaceOnUse" x1="66.453" y1="423.3499" x2="120.8373" y2="423.3499">
			<stop  offset="0" style="stop-color:#F3837A"/>
			<stop  offset="1" style="stop-color:#F7A891"/>
		</linearGradient>
		<path class="st4" d="M80.05,413.15h-13.6c0,11.24,9.15,20.39,20.39,20.39h33.99v-13.6H86.85C83.1,419.95,80.05,416.9,80.05,413.15
			z"/>
		<linearGradient id="SVGID_6_" gradientUnits="userSpaceOnUse" x1="134.4334" y1="426.749" x2="148.0294" y2="426.749">
			<stop  offset="0" style="stop-color:#F3837A"/>
			<stop  offset="1" style="stop-color:#F7A891"/>
		</linearGradient>
		<rect x="134.43" y="419.95" class="st5" width="13.6" height="13.6"/>
		<linearGradient id="SVGID_7_" gradientUnits="userSpaceOnUse" x1="39.2609" y1="250" x2="460.7391" y2="250">
			<stop  offset="0" style="stop-color:#F3837A"/>
			<stop  offset="1" style="stop-color:#F7A891"/>
		</linearGradient>
		<path class="st6" d="M385.96,243.2c-25.29,0-47.64,12.65-61.18,31.92v-59.46c45.55-3.49,81.58-41.59,81.58-88.03
			c0-48.73-39.65-88.37-88.37-88.37s-88.37,39.65-88.37,88.37c0,46.44,36.02,84.54,81.58,88.03v28.29
			c-8.65-8.84-20.68-14.34-33.99-14.34H243.2v6.8c0,26.24,21.35,47.59,47.59,47.59h20.39v31.87
			c-13.68-19.42-36.28-31.87-61.18-31.87c-12.6,0-24.92,3.18-35.93,9.24c-16.28-14.77-37.11-22.83-59.24-22.83
			c-48.73,0-88.37,39.65-88.37,88.37c0,3.62,0.24,7.31,0.71,11.04c-16.91,7.62-27.91,24.37-27.91,43.34
			c0,26.24,21.35,47.59,47.59,47.59h231.13c33.73,0,61.18-27.45,61.18-61.18c0-31.43-23.85-57.33-54.38-60.73v-14.04h61.18
			c41.23,0,74.78-33.55,74.78-74.78v-6.8H385.96z M290.79,270.39c-16.42,0-30.15-11.7-33.3-27.19h19.71
			c16.42,0,30.15,11.7,33.3,27.19H290.79z M297.53,175.22h40.91c-5.36,16.81-13.15,27.19-20.46,27.19
			C310.68,202.41,302.89,192.03,297.53,175.22z M243.55,134.43h33.79c0.31,9.65,1.25,18.78,2.78,27.19h-28.67
			C247.2,153.33,244.43,144.15,243.55,134.43z M317.98,52.86c7.31,0,15.09,10.38,20.46,27.19h-40.91
			C302.89,63.24,310.67,52.86,317.98,52.86z M341.9,93.65c1.66,8.22,2.77,17.36,3.13,27.19h-54.1c0.35-9.84,1.48-18.97,3.13-27.19
			H341.9z M392.41,120.84h-33.79c-0.31-9.65-1.25-18.78-2.78-27.19h28.67C388.76,101.95,391.54,111.12,392.41,120.84z
			 M392.41,134.43c-0.88,9.72-3.65,18.89-7.91,27.19h-28.67c1.53-8.41,2.47-17.55,2.78-27.19H392.41z M277.34,120.84h-33.79
			c0.88-9.72,3.65-18.89,7.91-27.19h28.67C278.59,102.05,277.65,111.19,277.34,120.84z M290.93,134.43h54.1
			c-0.35,9.84-1.48,18.97-3.13,27.19h-47.84C292.4,153.41,291.28,144.27,290.93,134.43z M343.23,197.93
			c3.76-6.25,6.95-13.91,9.46-22.71h22.94C367.14,185.47,355.97,193.35,343.23,197.93z M375.62,80.05h-22.94
			c-2.5-8.8-5.7-16.46-9.46-22.71C355.97,61.93,367.14,69.8,375.62,80.05z M292.73,57.34c-3.76,6.25-6.95,13.91-9.46,22.71h-22.94
			C268.82,69.8,279.99,61.93,292.73,57.34z M260.34,175.22h22.94c2.5,8.8,5.7,16.46,9.46,22.71
			C279.99,193.35,268.82,185.47,260.34,175.22z M365.57,399.56c0,26.24-21.35,47.59-47.59,47.59H86.85
			c-18.74,0-33.99-15.25-33.99-33.99c0-14.99,9.61-28.04,23.91-32.47l5.81-1.8l-1.14-5.97c-0.92-4.79-1.38-9.54-1.38-14.15
			c0-41.23,33.55-74.78,74.78-74.78c20.24,0,39.21,7.99,53.41,22.49l3.89,3.97l4.67-3.03c9.93-6.44,21.41-9.84,33.2-9.84
			c29.01,0,54.23,20.61,59.97,49l1.14,5.62l6.88-0.24C344.22,351.97,365.57,373.32,365.57,399.56z M385.96,311.18h-60.81
			c3.39-30.55,29.37-54.38,60.81-54.38h60.81C443.38,287.35,417.4,311.18,385.96,311.18z"/>
		<linearGradient id="SVGID_8_" gradientUnits="userSpaceOnUse" x1="175.2216" y1="127.6353" x2="188.8177" y2="127.6353">
			<stop  offset="0" style="stop-color:#F3837A"/>
			<stop  offset="1" style="stop-color:#F7A891"/>
		</linearGradient>
		<rect x="175.22" y="120.84" class="st7" width="13.6" height="13.6"/>
		<linearGradient id="SVGID_9_" gradientUnits="userSpaceOnUse" x1="202.4137" y1="127.6353" x2="216.0098" y2="127.6353">
			<stop  offset="0" style="stop-color:#F3837A"/>
			<stop  offset="1" style="stop-color:#F7A891"/>
		</linearGradient>
		<rect x="202.41" y="120.84" class="st8" width="13.6" height="13.6"/>
		<linearGradient id="SVGID_10_" gradientUnits="userSpaceOnUse" x1="52.8569" y1="127.6353" x2="161.6255" y2="127.6353">
			<stop  offset="0" style="stop-color:#F3837A"/>
			<stop  offset="1" style="stop-color:#F7A891"/>
		</linearGradient>
		<path class="st9" d="M73.25,148.03c8.85,0,16.33-5.7,19.14-13.6h69.23v-13.6H92.39c-2.81-7.89-10.29-13.6-19.14-13.6
			c-11.24,0-20.39,9.15-20.39,20.39S62.01,148.03,73.25,148.03z M73.25,120.84c3.75,0,6.8,3.05,6.8,6.8c0,3.75-3.05,6.8-6.8,6.8
			s-6.8-3.05-6.8-6.8C66.45,123.89,69.51,120.84,73.25,120.84z"/>
		<linearGradient id="SVGID_11_" gradientUnits="userSpaceOnUse" x1="127.6353" y1="93.6452" x2="216.0098" y2="93.6452">
			<stop  offset="0" style="stop-color:#F3837A"/>
			<stop  offset="1" style="stop-color:#F7A891"/>
		</linearGradient>
		<polygon class="st10" points="179.21,107.24 216.01,107.24 216.01,93.65 184.83,93.65 171.24,80.05 127.64,80.05 127.64,93.65 
			165.61,93.65 		"/>
		<linearGradient id="SVGID_12_" gradientUnits="userSpaceOnUse" x1="100.4432" y1="86.8471" x2="114.0393" y2="86.8471">
			<stop  offset="0" style="stop-color:#F3837A"/>
			<stop  offset="1" style="stop-color:#F7A891"/>
		</linearGradient>
		<rect x="100.44" y="80.05" class="st11" width="13.6" height="13.6"/>
		<linearGradient id="SVGID_13_" gradientUnits="userSpaceOnUse" x1="127.6353" y1="161.6255" x2="216.0098" y2="161.6255">
			<stop  offset="0" style="stop-color:#F3837A"/>
			<stop  offset="1" style="stop-color:#F7A891"/>
		</linearGradient>
		<polygon class="st12" points="127.64,161.63 127.64,175.22 171.24,175.22 184.83,161.63 216.01,161.63 216.01,148.03 
			179.21,148.03 165.61,161.63 		"/>
		<linearGradient id="SVGID_14_" gradientUnits="userSpaceOnUse" x1="100.4432" y1="168.4236" x2="114.0393" y2="168.4236">
			<stop  offset="0" style="stop-color:#F3837A"/>
			<stop  offset="1" style="stop-color:#F7A891"/>
		</linearGradient>
		<rect x="100.44" y="161.63" class="st13" width="13.6" height="13.6"/>
	</g>
</g>
</svg>
