<?xml version="1.0" encoding="utf-8"?>
<!-- Generator: Adobe Illustrator 25.0.0, SVG Export Plug-In . SVG Version: 6.00 Build 0)  -->
<svg version="1.1" id="Layer_1" xmlns="http://www.w3.org/2000/svg" xmlns:xlink="http://www.w3.org/1999/xlink" x="0px" y="0px"
	 viewBox="0 0 500 500" style="enable-background:new 0 0 500 500;" xml:space="preserve">
<style type="text/css">
	.st0{fill:url(#SVGID_1_);}
	.st1{fill:url(#SVGID_2_);}
	.st2{fill:url(#SVGID_3_);}
	.st3{fill:url(#SVGID_4_);}
</style>
<g>
	<g>
		<linearGradient id="SVGID_1_" gradientUnits="userSpaceOnUse" x1="196.4971" y1="101.1364" x2="302.6831" y2="101.1364">
			<stop  offset="0" style="stop-color:#70C49C"/>
			<stop  offset="1" style="stop-color:#7BCEDC"/>
		</linearGradient>
		<path class="st0" d="M234.61,177.1c-0.74,0-1.49-0.07-2.23-0.22l-0.4-0.09c-13.24-3.48-35.45-14.89-35.47-52.1
			c-0.45-26.86,23.08-68.38,37.25-90.88c2.86-5.16,8.07-8.38,13.98-8.62c6.1-0.23,11.93,2.79,15.23,7.92
			c25.98,40.32,39.34,70.6,39.7,90c0.47,25.55-10.15,43.83-29.91,51.51c-3.17,1.45-6.74,1.36-9.85-0.27
			c-3.3-1.73-5.59-5.01-6.12-8.77l-0.02-0.19c-0.85-7.39-2.33-15.6-4.43-24.57c-1.84,10.57-4.01,19.97-6.48,28.08l-0.2,0.55
			C243.78,174.13,239.35,177.1,234.61,177.1z M248.42,38.96c-0.04,0-0.09,0-0.12,0c-0.78,0.03-1.85,0.33-2.51,1.58l-0.25,0.43
			c-22.71,36.02-35.56,66.46-35.25,83.52l0,0.13c0,20.4,7.73,33.24,22.98,38.18c3.67-12.68,6.61-28.63,8.75-47.45
			c0.26-4.1,3.43-7.39,7.73-7.92c4.38-0.53,8.31,2.01,9.45,6.09c5.42,17.81,9.07,33.69,10.87,47.25
			c12.83-6.04,19.16-18.61,18.81-37.41c-0.21-11.55-6.89-35.29-37.51-82.8C250.44,39.12,249,38.96,248.42,38.96z"/>
	</g>
	<g>
		<linearGradient id="SVGID_2_" gradientUnits="userSpaceOnUse" x1="120.0351" y1="211.0707" x2="248.0425" y2="211.0707">
			<stop  offset="0" style="stop-color:#70C49C"/>
			<stop  offset="1" style="stop-color:#7BCEDC"/>
		</linearGradient>
		<path class="st1" d="M192.62,277.64c-11.52,0-25.42-4.64-39.77-20.1c-17-18.38-27.08-60.56-32.54-92.7
			c-1.03-5.84,0.89-11.73,5.15-15.7c4.31-4.02,10.36-5.55,16.18-4.09c31.58,8.34,72.7,22.13,89.79,40.61
			c16.95,18.83,21.07,39.52,11.68,58.32c-1.54,3.08-4.37,5.27-7.77,6.02c-3.5,0.77-7.26-0.1-10.06-2.34l-0.29-0.25
			c-4.24-3.8-10.58-9.01-19.51-15.32c5.69,9.03,10.26,17.39,13.84,25.26l0.13,0.29c2.32,5.81-0.27,12.35-5.78,14.78
			C208.52,275.04,201.23,277.64,192.62,277.64z M137.27,158.28c-1.23,0-2.07,0.63-2.41,0.95c-0.61,0.56-1.26,1.59-0.97,3.26
			c7.28,42.87,17.6,73.28,29.06,85.68c13.74,14.8,28.51,19.18,42.82,12.75c-5.74-12.12-14.08-25.64-25.42-41.24
			c-2.43-3.23-2.34-7.56,0.26-10.69c2.68-3.22,7.37-4.18,11.15-2.29l0.51,0.28c19.29,11.76,31.99,21.57,39.69,28.21
			c5.25-12.97,1.65-26.49-10.72-40.23c-11.35-12.27-41.64-25.62-83.04-36.55C137.88,158.32,137.56,158.28,137.27,158.28z
			 M191.45,211.48c0.03,0.04,0.05,0.07,0.08,0.11C191.5,211.55,191.47,211.52,191.45,211.48z"/>
	</g>
	<g>
		<linearGradient id="SVGID_3_" gradientUnits="userSpaceOnUse" x1="251.2539" y1="210.5664" x2="379.9649" y2="210.5664">
			<stop  offset="0" style="stop-color:#70C49C"/>
			<stop  offset="1" style="stop-color:#7BCEDC"/>
		</linearGradient>
		<path class="st2" d="M307.14,277.22c-8.65,0-15.98-2.62-21.18-5.26c-2.71-1.2-4.85-3.49-5.9-6.33c-1.01-2.73-0.96-5.73,0.13-8.45
			l0.12-0.29c3.23-7.11,7.91-15.53,13.99-25.16c-8.14,5.71-14.72,10.8-19.66,15.23l-0.29,0.25c-2.79,2.23-6.55,3.1-10.06,2.33
			c-3.37-0.74-6.18-2.9-7.72-5.93c-9.95-18.8-5.82-39.54,11.63-58.41c13.43-14.51,43.56-28.16,89.56-40.55
			c5.5-1.66,11.42-0.45,15.86,3.26c4.64,3.88,6.96,9.75,6.22,15.71l-0.04,0.3c-5.46,32.14-15.53,74.31-32.53,92.69
			C332.84,272.46,318.8,277.22,307.14,277.22z M293.85,260.46c14.7,6.65,29.24,2.23,43.24-13.17
			c11.49-12.42,21.79-42.76,29.07-85.49c0.12-1.25-0.4-2.48-1.39-3.31c-0.63-0.53-1.67-1.06-3.05-0.63l-0.26,0.08
			c-42.29,11.39-71.82,24.4-83.13,36.63c-12.77,13.81-16.37,27.32-10.72,40.22c9.18-7.88,22.19-17.14,39.65-28.21l0.61-0.34
			c3.48-1.74,7.65-1.08,10.37,1.64c2.72,2.72,3.38,6.89,1.64,10.37l-0.23,0.46l-0.3,0.42C307.56,235.84,299,249.73,293.85,260.46z"
			/>
	</g>
	<g>
		<linearGradient id="SVGID_4_" gradientUnits="userSpaceOnUse" x1="120.2106" y1="377.8532" x2="379.421" y2="377.8532">
			<stop  offset="0" style="stop-color:#70C49C"/>
			<stop  offset="1" style="stop-color:#7BCEDC"/>
		</linearGradient>
		<path class="st3" d="M307.73,474.83H191.91c-10.75,0-19.98-7.58-21.94-18.03l-19.23-101.49c-0.75-3.98-4.24-6.87-8.29-6.87
			c-12.26,0-22.23-9.97-22.23-22.23v-23.1c0-12.26,9.97-22.23,22.23-22.23h214.75c12.26,0,22.23,9.97,22.23,22.23v23.1
			c0,12.26-9.97,22.23-22.23,22.23c-4.05,0-7.54,2.89-8.29,6.87l-19.24,101.5C327.6,467.11,318.18,474.83,307.73,474.83z
			 M142.44,294.67c-4.65,0-8.44,3.79-8.44,8.44v23.1c0,4.65,3.79,8.44,8.44,8.44c10.67,0,19.85,7.61,21.84,18.09l19.24,101.5
			c0.75,4.01,4.2,6.8,8.39,6.8h115.82c3.94,0,7.64-3.02,8.41-6.87l19.22-101.43c1.99-10.48,11.17-18.09,21.84-18.09
			c4.65,0,8.44-3.79,8.44-8.44v-23.1c0-4.65-3.79-8.44-8.44-8.44H142.44z"/>
	</g>
</g>
</svg>
