<?xml version="1.0" encoding="utf-8"?>
<!-- Generator: Adobe Illustrator 25.0.0, SVG Export Plug-In . SVG Version: 6.00 Build 0)  -->
<svg version="1.1" id="Layer_1" xmlns="http://www.w3.org/2000/svg" xmlns:xlink="http://www.w3.org/1999/xlink" x="0px" y="0px"
	 viewBox="0 0 500 500" style="enable-background:new 0 0 500 500;" xml:space="preserve">
<style type="text/css">
	.st0{fill:url(#SVGID_1_);}
	.st1{fill:url(#SVGID_2_);}
	.st2{fill-rule:evenodd;clip-rule:evenodd;fill:url(#SVGID_3_);}
</style>
<linearGradient id="SVGID_1_" gradientUnits="userSpaceOnUse" x1="1650.7192" y1="102.3913" x2="1696.4404" y2="102.3913">
	<stop  offset="0" style="stop-color:#252159"/>
	<stop  offset="1" style="stop-color:#4C2E87"/>
</linearGradient>
<path class="st0" d="M1692.41,109.11V99.7c0.02-7.28-4.18-13.91-10.76-17.01v-1.82c0-4.46-3.61-8.07-8.07-8.07s-8.07,3.61-8.07,8.07
	v1.83c-6.57,3.11-10.75,9.73-10.76,17v9.41c0,1.87-0.3,3.74-0.9,5.51c-0.59,1.79-1.47,3.47-2.6,4.98c-0.89,1.19-0.65,2.87,0.54,3.77
	c0.47,0.35,1.03,0.54,1.61,0.54h12.1c0,4.46,3.61,8.07,8.07,8.07s8.07-3.61,8.07-8.07h12.1c1.49,0,2.69-1.2,2.69-2.69
	c0-0.58-0.19-1.15-0.54-1.61C1693.62,116.58,1692.4,112.9,1692.41,109.11z M1670.89,80.88c-0.01-1.49,1.19-2.7,2.67-2.71
	c0.72,0,1.4,0.28,1.91,0.78c0.51,0.51,0.8,1.2,0.79,1.92v0.19c-0.89-0.13-1.79-0.19-2.69-0.19c-0.54,0-1.06,0-1.6,0.08l0,0
	l-1.04,0.11L1670.89,80.88z M1673.58,126.6c-1.49,0-2.69-1.2-2.69-2.69h5.38C1676.27,125.39,1675.07,126.6,1673.58,126.6z
	 M1678.96,118.53h-20.86c0.32-0.71,0.61-1.43,0.86-2.18c0.78-2.33,1.17-4.78,1.17-7.23V99.7c0-7.43,6.02-13.45,13.44-13.45
	c0.76,0,1.53,0.06,2.28,0.19c2.74,0.48,5.26,1.78,7.23,3.74c2.53,2.52,3.95,5.95,3.94,9.52v9.41c-0.01,3.25,0.68,6.46,2.02,9.41
	H1678.96z"/>
<linearGradient id="SVGID_2_" gradientUnits="userSpaceOnUse" x1="1676.1559" y1="89.5028" x2="1701.9329" y2="89.5028">
	<stop  offset="0" style="stop-color:#F3837A"/>
	<stop  offset="1" style="stop-color:#F7A891"/>
</linearGradient>
<circle class="st1" cx="1689.04" cy="89.5" r="12.89"/>
<g>
	<g>
		<linearGradient id="SVGID_3_" gradientUnits="userSpaceOnUse" x1="60.5648" y1="140.6258" x2="439.4321" y2="359.365">
			<stop  offset="0" style="stop-color:#445CA4"/>
			<stop  offset="1" style="stop-color:#7CC3BE"/>
		</linearGradient>
		<path class="st2" d="M32.43,272.29c0-2.45,1.61-5.04,4.87-7.25l9.41-6.4c3.53-2.38,5.3-5.52,5.3-8.65c0-3.14-1.77-6.28-5.3-8.66
			l-9.41-6.37c-3.26-2.22-4.87-4.81-4.87-7.26c0-2.84,2.15-5.51,6.37-7.21l10.55-4.29c4.7-1.9,7.17-5.36,7.17-9.14
			c0-2.59-1.16-5.32-3.56-7.81l-7.9-8.21c-2.28-2.37-3.37-4.75-3.37-6.87c-0.01-3.36,2.75-6.04,7.88-6.97l11.19-1.97
			c5.8-1.04,9.1-4.77,9.1-9.36c0-2.04-0.66-4.26-2.04-6.48l-6.04-9.66c-1.36-2.2-2.01-4.26-2.01-6.05c0-4.09,3.38-6.77,9.3-6.56
			l11.38,0.37c6.75,0.24,11.04-3.7,11.04-9.35c0-1.46-0.28-3.02-0.88-4.65l-3.87-10.71c-0.6-1.67-0.89-3.2-0.89-4.57
			c0-5.16,4.11-7.86,10.63-6.24l11.05,2.73c7.55,1.88,13.03-2.32,13.03-9.47c0-0.68-0.05-1.38-0.15-2.11l-1.59-11.3
			c-0.11-0.78-0.16-1.52-0.16-2.22c0-6.84,5.01-9.71,11.93-6.32l10.24,4.98c7.65,3.7,14.42-0.19,15-8.66l0.81-11.35
			c0.61-8.49,6.59-11.16,13.3-5.93l8.99,6.99c6.71,5.23,14.11,2.81,16.47-5.34l3.14-10.94c2.37-8.18,8.77-9.54,14.25-3.03l7.32,8.71
			c5.48,6.51,13.22,5.71,17.22-1.81l5.34-10.04c4.01-7.49,10.57-7.49,14.58,0l5.34,10.04c4.01,7.52,11.74,8.32,17.22,1.81l7.35-8.71
			c5.46-6.51,11.85-5.15,14.22,3.03l3.14,10.94c2.36,8.16,9.76,10.57,16.47,5.34l8.99-6.99c6.71-5.23,12.69-2.56,13.3,5.93
			l0.81,11.35c0.61,8.46,7.34,12.36,15,8.66l10.24-4.98c6.92-3.38,11.93-0.51,11.93,6.32c0,0.7-0.05,1.44-0.16,2.22l-1.59,11.3
			c-0.1,0.72-0.15,1.43-0.15,2.11c0,7.15,5.48,11.35,13.03,9.47l11.05-2.73c6.53-1.63,10.63,1.08,10.63,6.23
			c0,1.36-0.29,2.9-0.89,4.58l-3.87,10.71c-0.6,1.63-0.88,3.2-0.88,4.65c0,5.65,4.29,9.59,11.07,9.35l11.35-0.37
			c5.92-0.21,9.3,2.47,9.3,6.56c0,1.79-0.64,3.85-2.01,6.05l-6.04,9.66c-1.38,2.22-2.04,4.43-2.04,6.48c0,4.59,3.3,8.32,9.1,9.36
			l11.19,1.97c5.14,0.92,7.88,3.61,7.88,6.97c0,2.12-1.1,4.5-3.37,6.87l-7.9,8.21c-2.4,2.49-3.56,5.22-3.56,7.81
			c0,3.78,2.48,7.24,7.17,9.14l10.55,4.29c4.22,1.7,6.37,4.37,6.37,7.21c0,2.45-1.61,5.04-4.87,7.26l-9.41,6.37
			c-3.53,2.38-5.3,5.52-5.3,8.66c0,3.13,1.77,6.27,5.3,8.65l9.41,6.4c3.26,2.21,4.87,4.79,4.87,7.25c0,2.84-2.15,5.51-6.37,7.22
			l-10.55,4.26c-4.7,1.9-7.17,5.36-7.17,9.14c0,2.59,1.16,5.32,3.56,7.81l7.9,8.21c2.28,2.37,3.37,4.75,3.37,6.88
			c0,3.36-2.75,6.05-7.88,6.96l-11.19,2c-5.8,1.02-9.1,4.75-9.1,9.34c0,2.05,0.66,4.26,2.04,6.49l6.04,9.66
			c1.36,2.19,2.01,4.25,2.01,6.03c0,4.07-3.38,6.77-9.3,6.57l-11.35-0.39c-6.77-0.22-11.07,3.72-11.07,9.37
			c0,1.46,0.28,3.02,0.88,4.66l3.87,10.69c0.6,1.67,0.89,3.21,0.89,4.57c0,5.15-4.1,7.86-10.63,6.25l-11.05-2.76
			c-7.55-1.85-13.03,2.33-13.03,9.49c0,0.68,0.05,1.38,0.15,2.11l1.59,11.27c0.11,0.78,0.16,1.52,0.16,2.23
			c0,6.83-5.01,9.7-11.93,6.32l-10.24-4.98c-7.65-3.7-14.39,0.2-15,8.69l-0.81,11.35c-0.61,8.49-6.59,11.13-13.3,5.9l-8.99-6.99
			c-6.71-5.23-14.11-2.81-16.47,5.34l-3.14,10.94c-2.37,8.18-8.77,9.54-14.22,3.03l-7.35-8.71c-5.48-6.51-13.22-5.68-17.22,1.81
			l-5.34,10.04c-4.01,7.52-10.57,7.52-14.58,0l-5.34-10.04c-4.01-7.49-11.74-8.32-17.22-1.81l-7.32,8.71
			c-5.48,6.51-11.88,5.15-14.25-3.03l-3.14-10.94c-2.36-8.15-9.76-10.57-16.47-5.34l-8.99,6.99c-6.71,5.23-12.69,2.59-13.3-5.9
			l-0.81-11.35c-0.58-8.49-7.34-12.38-15-8.69l-10.24,4.98c-6.92,3.38-11.93,0.51-11.93-6.32c0-0.7,0.05-1.44,0.16-2.23l1.59-11.27
			c0.1-0.73,0.15-1.43,0.15-2.11c0-7.17-5.48-11.35-13.03-9.49l-11.05,2.76c-6.52,1.6-10.63-1.11-10.63-6.27
			c0-1.36,0.29-2.89,0.89-4.56l3.87-10.69c0.6-1.64,0.88-3.21,0.88-4.66c0-5.66-4.29-9.59-11.04-9.37l-11.38,0.39
			c-5.92,0.19-9.3-2.5-9.3-6.57c0-1.79,0.64-3.84,2.01-6.03l6.04-9.66c1.38-2.23,2.04-4.45,2.04-6.49c0-4.59-3.3-8.32-9.1-9.34
			l-11.19-2c-5.14-0.91-7.88-3.6-7.88-6.96c0-2.12,1.09-4.51,3.37-6.88l7.9-8.21c2.4-2.49,3.56-5.22,3.56-7.81
			c0-3.78-2.48-7.24-7.17-9.14l-10.55-4.26C34.58,277.8,32.43,275.13,32.43,272.29z"/>
	</g>
</g>
</svg>
