<?xml version="1.0" encoding="utf-8"?>
<!-- Generator: Adobe Illustrator 25.0.0, SVG Export Plug-In . SVG Version: 6.00 Build 0)  -->
<svg version="1.1" id="Layer_1" xmlns="http://www.w3.org/2000/svg" xmlns:xlink="http://www.w3.org/1999/xlink" x="0px" y="0px"
	 viewBox="0 0 500 500" style="enable-background:new 0 0 500 500;" xml:space="preserve">
<style type="text/css">
	.st0{fill:url(#SVGID_1_);}
	.st1{fill:url(#SVGID_2_);}
	.st2{fill:url(#SVGID_3_);}
	.st3{fill:url(#SVGID_4_);}
	.st4{fill:url(#SVGID_5_);}
	.st5{fill:url(#SVGID_6_);}
</style>
<g>
	<g>
		<g>
			<g>
				<linearGradient id="SVGID_1_" gradientUnits="userSpaceOnUse" x1="111.7226" y1="194.6791" x2="370.9236" y2="344.3289">
					<stop  offset="0" style="stop-color:#445CA4"/>
					<stop  offset="1" style="stop-color:#7CC3BE"/>
				</linearGradient>
				<path class="st0" d="M206.59,449.64h6.48c3.69,18.45,20.02,32.39,39.54,32.39s35.84-13.94,39.54-32.39h6.48
					c10.98,0,19.92-8.93,19.92-19.92v-23.53h3.76c4.38,0,7.94-3.56,7.94-7.94v-2.72c0-9.9,0.83-19.57,2.34-28.98
					c0.1-0.36,0.16-0.73,0.21-1.1c4.2-25.15,13.62-48.31,28.04-68.05c18.64-25.53,27.65-57.07,25.37-88.82
					c-4.77-66.5-58.57-119.73-125.14-123.82c-37.41-2.3-72.99,10.52-100.18,36.09c-26.82,25.22-42.19,60.79-42.19,97.58
					c0,27.44,8.24,53.82,23.83,76.3c21.24,30.64,32.47,65.49,32.47,100.79v2.73c0,4.38,3.55,7.94,7.94,7.94h3.76v23.53
					C186.68,440.7,195.61,449.64,206.59,449.64z M271.63,225.28c12.89-16.87,37.11-22.22,48.97-23.87
					c1.53,11.88,2.74,36.65-10.14,53.53c-9.44,12.36-24.94,18.5-37.23,21.57l24.12-31.58c2.66-3.48,1.99-8.46-1.49-11.13
					c-3.48-2.65-8.46-1.99-11.13,1.49l-24.13,31.6C260.32,254.22,262.19,237.64,271.63,225.28z M244.63,266.89l-24.13-31.6
					c-2.66-3.49-7.64-4.15-11.13-1.49c-3.48,2.66-4.15,7.64-1.49,11.13l24.15,31.62c-12.28-3.05-27.77-9.18-37.26-21.61
					c-12.89-16.87-11.67-41.65-10.14-53.53c11.86,1.65,36.08,7,48.97,23.87C243.04,237.64,244.9,254.22,244.63,266.89z
					 M315.78,372.44c-0.68,5.89-1.19,11.83-1.35,17.88h-3.82H194.61h-3.83c-0.17-5.99-0.74-11.94-1.5-17.88H315.78z M252.61,466.15
					c-10.69,0-19.7-6.94-23.01-16.51h46.02C272.31,459.21,263.3,466.15,252.61,466.15z M302.67,429.72c0,2.23-1.81,4.04-4.04,4.04
					H285h-64.77h-13.63c-2.23,0-4.04-1.81-4.04-4.04v-23.53h100.12V429.72z M134.55,218.44c0-32.91,13.21-63.46,37.19-86.02
					c23.97-22.54,55.36-33.85,88.34-31.81c58.66,3.61,106.07,50.51,110.27,109.11c2.01,28-5.93,55.82-22.36,78.32
					c-14.67,20.1-24.61,43.37-29.69,68.52h-57.76v-61.63c12.72-1.39,44.78-7.14,62.52-30.36c21.99-28.79,12.28-71.78,11.85-73.6
					c-0.87-3.7-4.26-6.36-8.02-6.13c-1.87,0.07-45.9,2.02-67.89,30.8c-2.55,3.34-4.64,6.89-6.4,10.52
					c-1.76-3.64-3.85-7.18-6.4-10.52c-21.98-28.79-66.02-30.74-67.89-30.8c-3.82-0.22-7.16,2.43-8.02,6.13
					c-0.42,1.81-10.13,44.81,11.85,73.6c17.74,23.22,49.8,28.97,62.52,30.36v61.63h-58.13c-5.38-24.87-15.75-48.9-30.99-70.87
					C141.82,265.88,134.55,242.63,134.55,218.44z"/>
			</g>
		</g>
		<g>
			<linearGradient id="SVGID_2_" gradientUnits="userSpaceOnUse" x1="238.0443" y1="28.2357" x2="259.2416" y2="40.474">
				<stop  offset="0" style="stop-color:#445CA4"/>
				<stop  offset="1" style="stop-color:#7CC3BE"/>
			</linearGradient>
			<path class="st1" d="M256.58,42.95v-17.2c0-4.38-3.55-7.94-7.94-7.94s-7.94,3.56-7.94,7.94v17.2c0,4.38,3.55,7.94,7.94,7.94
				S256.58,47.34,256.58,42.95z"/>
		</g>
		<g>
			<linearGradient id="SVGID_3_" gradientUnits="userSpaceOnUse" x1="96.9817" y1="84.3216" x2="125.1216" y2="100.5681">
				<stop  offset="0" style="stop-color:#445CA4"/>
				<stop  offset="1" style="stop-color:#7CC3BE"/>
			</linearGradient>
			<path class="st2" d="M122.74,92.92l-12.16-12.16c-3.1-3.1-8.12-3.1-11.22,0c-3.1,3.1-3.1,8.12,0,11.22l12.16,12.16
				c1.55,1.55,3.58,2.33,5.61,2.33s4.06-0.78,5.61-2.33C125.85,101.04,125.85,96.02,122.74,92.92z"/>
		</g>
		<g>
			<linearGradient id="SVGID_4_" gradientUnits="userSpaceOnUse" x1="52.0924" y1="223.1174" x2="78.7413" y2="238.5032">
				<stop  offset="0" style="stop-color:#445CA4"/>
				<stop  offset="1" style="stop-color:#7CC3BE"/>
			</linearGradient>
			<path class="st3" d="M81.95,230.81c0-4.38-3.55-7.94-7.94-7.94h-17.2c-4.38,0-7.94,3.56-7.94,7.94c0,4.38,3.55,7.94,7.94,7.94
				h17.2C78.4,238.75,81.95,235.19,81.95,230.81z"/>
		</g>
		<g>
			<linearGradient id="SVGID_5_" gradientUnits="userSpaceOnUse" x1="421.1905" y1="220.4715" x2="447.8394" y2="235.8573">
				<stop  offset="0" style="stop-color:#445CA4"/>
				<stop  offset="1" style="stop-color:#7CC3BE"/>
			</linearGradient>
			<path class="st4" d="M425.92,220.23c-4.38,0-7.94,3.56-7.94,7.94c0,4.38,3.55,7.94,7.94,7.94h17.2c4.38,0,7.94-3.56,7.94-7.94
				c0-4.38-3.55-7.94-7.94-7.94H425.92z"/>
		</g>
		<g>
			<linearGradient id="SVGID_6_" gradientUnits="userSpaceOnUse" x1="378.2061" y1="85.4889" x2="395.8132" y2="95.6543">
				<stop  offset="0" style="stop-color:#445CA4"/>
				<stop  offset="1" style="stop-color:#7CC3BE"/>
			</linearGradient>
			<path class="st5" d="M398.7,90.1c3.1-3.1,3.1-8.12,0-11.22c-3.1-3.1-8.12-3.1-11.22,0l-12.16,12.16c-3.1,3.1-3.1,8.12,0,11.22
				c1.55,1.55,3.58,2.33,5.61,2.33c2.03,0,4.06-0.78,5.61-2.33L398.7,90.1z"/>
		</g>
	</g>
</g>
</svg>
