<?xml version="1.0" encoding="utf-8"?>
<!-- Generator: Adobe Illustrator 25.0.0, SVG Export Plug-In . SVG Version: 6.00 Build 0)  -->
<svg version="1.1" id="Layer_1" xmlns="http://www.w3.org/2000/svg" xmlns:xlink="http://www.w3.org/1999/xlink" x="0px" y="0px"
	 viewBox="0 0 500 500" style="enable-background:new 0 0 500 500;" xml:space="preserve">
<style type="text/css">
	.st0{fill:url(#SVGID_1_);}
</style>
<g>
	<linearGradient id="SVGID_1_" gradientUnits="userSpaceOnUse" x1="104.6225" y1="250" x2="395.3775" y2="250">
		<stop  offset="0" style="stop-color:#353E96"/>
		<stop  offset="1" style="stop-color:#3F63AD"/>
	</linearGradient>
	<path class="st0" d="M363.63,172.79h-79.55c-17.49,0-31.74,14.25-31.74,31.77v39.76c0,11.32,6.1,21.85,15.89,27.51l1.17,0.67v22.95
		c0,3.63,1.95,6.7,5.24,8.2c3.3,1.51,6.9,1.01,9.66-1.35l30.6-26.24h48.74c17.52,0,31.74-14.22,31.74-31.74v-39.76
		C395.38,187.04,381.15,172.79,363.63,172.79z M377.34,244.33c0,7.55-6.15,13.7-13.7,13.7h-52.09c-2.13,0-4.23,0.75-5.87,2.15
		l-18.25,15.65v-9.5c0-4.13-2.78-7.71-6.77-8.75c-6.05-1.56-10.25-7.01-10.25-13.26v-39.76c0-7.55,6.13-13.7,13.68-13.7h79.55
		c7.55,0,13.7,6.15,13.7,13.7V244.33z M215.92,377.35c-8.12,0-14.72,6.59-14.72,14.69c0,8.12,6.59,14.72,14.72,14.72
		c8.1,0,14.69-6.59,14.69-14.72C230.61,383.94,224.02,377.35,215.92,377.35z M232.95,98.95h-34.08c-4.98,0-9.03,4.02-9.03,9.01
		c0,4.98,4.05,9.03,9.03,9.03h34.08c4.98,0,9.03-4.05,9.03-9.03C241.98,102.97,237.93,98.95,232.95,98.95z M215.92,377.35
		c-8.12,0-14.72,6.59-14.72,14.69c0,8.12,6.59,14.72,14.72,14.72c8.1,0,14.69-6.59,14.69-14.72
		C230.61,383.94,224.02,377.35,215.92,377.35z M232.95,98.95h-34.08c-4.98,0-9.03,4.02-9.03,9.01c0,4.98,4.05,9.03,9.03,9.03h34.08
		c4.98,0,9.03-4.05,9.03-9.03C241.98,102.97,237.93,98.95,232.95,98.95z M215.92,377.35c-8.12,0-14.72,6.59-14.72,14.69
		c0,8.12,6.59,14.72,14.72,14.72c8.1,0,14.69-6.59,14.69-14.72C230.61,383.94,224.02,377.35,215.92,377.35z M232.95,98.95h-34.08
		c-4.98,0-9.03,4.02-9.03,9.01c0,4.98,4.05,9.03,9.03,9.03h34.08c4.98,0,9.03-4.05,9.03-9.03
		C241.98,102.97,237.93,98.95,232.95,98.95z M215.92,377.35c-8.12,0-14.72,6.59-14.72,14.69c0,8.12,6.59,14.72,14.72,14.72
		c8.1,0,14.69-6.59,14.69-14.72C230.61,383.94,224.02,377.35,215.92,377.35z M232.95,98.95h-34.08c-4.98,0-9.03,4.02-9.03,9.01
		c0,4.98,4.05,9.03,9.03,9.03h34.08c4.98,0,9.03-4.05,9.03-9.03C241.98,102.97,237.93,98.95,232.95,98.95z M215.92,377.35
		c-8.12,0-14.72,6.59-14.72,14.69c0,8.12,6.59,14.72,14.72,14.72c8.1,0,14.69-6.59,14.69-14.72
		C230.61,383.94,224.02,377.35,215.92,377.35z M232.95,98.95h-34.08c-4.98,0-9.03,4.02-9.03,9.01c0,4.98,4.05,9.03,9.03,9.03h34.08
		c4.98,0,9.03-4.05,9.03-9.03C241.98,102.97,237.93,98.95,232.95,98.95z M215.92,377.35c-8.12,0-14.72,6.59-14.72,14.69
		c0,8.12,6.59,14.72,14.72,14.72c8.1,0,14.69-6.59,14.69-14.72C230.61,383.94,224.02,377.35,215.92,377.35z M232.95,98.95h-34.08
		c-4.98,0-9.03,4.02-9.03,9.01c0,4.98,4.05,9.03,9.03,9.03h34.08c4.98,0,9.03-4.05,9.03-9.03
		C241.98,102.97,237.93,98.95,232.95,98.95z M215.92,377.35c-8.12,0-14.72,6.59-14.72,14.69c0,8.12,6.59,14.72,14.72,14.72
		c8.1,0,14.69-6.59,14.69-14.72C230.61,383.94,224.02,377.35,215.92,377.35z M232.95,98.95h-34.08c-4.98,0-9.03,4.02-9.03,9.01
		c0,4.98,4.05,9.03,9.03,9.03h34.08c4.98,0,9.03-4.05,9.03-9.03C241.98,102.97,237.93,98.95,232.95,98.95z M215.92,377.35
		c-8.12,0-14.72,6.59-14.72,14.69c0,8.12,6.59,14.72,14.72,14.72c8.1,0,14.69-6.59,14.69-14.72
		C230.61,383.94,224.02,377.35,215.92,377.35z M232.95,98.95h-34.08c-4.98,0-9.03,4.02-9.03,9.01c0,4.98,4.05,9.03,9.03,9.03h34.08
		c4.98,0,9.03-4.05,9.03-9.03C241.98,102.97,237.93,98.95,232.95,98.95z M318.19,156.75c4.98,0,9.03-4.05,9.03-9.01v-45.5
		c0-23.75-19.36-43.09-43.16-43.09H147.76c-23.8,0-43.14,19.34-43.14,43.09v295.53c0,23.75,19.34,43.06,43.14,43.06h136.29
		c23.8,0,43.16-19.31,43.16-43.06V318.2c0-4.98-4.05-9.03-9.03-9.03s-9.03,4.05-9.03,9.03v25.05H122.66V156.75H318.19z
		 M122.66,102.25c0-13.81,11.26-25.02,25.1-25.02h136.29c13.83,0,25.1,11.21,25.1,25.02v36.47H122.66V102.25z M309.15,361.31v36.47
		c0,13.78-11.26,25.02-25.1,25.02H147.76c-13.83,0-25.1-11.24-25.1-25.02v-36.47H309.15z M232.95,98.95h-34.08
		c-4.98,0-9.03,4.02-9.03,9.01c0,4.98,4.05,9.03,9.03,9.03h34.08c4.98,0,9.03-4.05,9.03-9.03
		C241.98,102.97,237.93,98.95,232.95,98.95z M215.92,406.76c8.1,0,14.69-6.59,14.69-14.72c0-8.1-6.59-14.69-14.69-14.69
		c-8.12,0-14.72,6.59-14.72,14.69C201.2,400.17,207.8,406.76,215.92,406.76z M232.95,98.95h-34.08c-4.98,0-9.03,4.02-9.03,9.01
		c0,4.98,4.05,9.03,9.03,9.03h34.08c4.98,0,9.03-4.05,9.03-9.03C241.98,102.97,237.93,98.95,232.95,98.95z M215.92,377.35
		c-8.12,0-14.72,6.59-14.72,14.69c0,8.12,6.59,14.72,14.72,14.72c8.1,0,14.69-6.59,14.69-14.72
		C230.61,383.94,224.02,377.35,215.92,377.35z M232.95,98.95h-34.08c-4.98,0-9.03,4.02-9.03,9.01c0,4.98,4.05,9.03,9.03,9.03h34.08
		c4.98,0,9.03-4.05,9.03-9.03C241.98,102.97,237.93,98.95,232.95,98.95z M215.92,377.35c-8.12,0-14.72,6.59-14.72,14.69
		c0,8.12,6.59,14.72,14.72,14.72c8.1,0,14.69-6.59,14.69-14.72C230.61,383.94,224.02,377.35,215.92,377.35z M232.95,98.95h-34.08
		c-4.98,0-9.03,4.02-9.03,9.01c0,4.98,4.05,9.03,9.03,9.03h34.08c4.98,0,9.03-4.05,9.03-9.03
		C241.98,102.97,237.93,98.95,232.95,98.95z M215.92,377.35c-8.12,0-14.72,6.59-14.72,14.69c0,8.12,6.59,14.72,14.72,14.72
		c8.1,0,14.69-6.59,14.69-14.72C230.61,383.94,224.02,377.35,215.92,377.35z M232.95,98.95h-34.08c-4.98,0-9.03,4.02-9.03,9.01
		c0,4.98,4.05,9.03,9.03,9.03h34.08c4.98,0,9.03-4.05,9.03-9.03C241.98,102.97,237.93,98.95,232.95,98.95z M215.92,377.35
		c-8.12,0-14.72,6.59-14.72,14.69c0,8.12,6.59,14.72,14.72,14.72c8.1,0,14.69-6.59,14.69-14.72
		C230.61,383.94,224.02,377.35,215.92,377.35z M232.95,98.95h-34.08c-4.98,0-9.03,4.02-9.03,9.01c0,4.98,4.05,9.03,9.03,9.03h34.08
		c4.98,0,9.03-4.05,9.03-9.03C241.98,102.97,237.93,98.95,232.95,98.95z M215.92,377.35c-8.12,0-14.72,6.59-14.72,14.69
		c0,8.12,6.59,14.72,14.72,14.72c8.1,0,14.69-6.59,14.69-14.72C230.61,383.94,224.02,377.35,215.92,377.35z M232.95,98.95h-34.08
		c-4.98,0-9.03,4.02-9.03,9.01c0,4.98,4.05,9.03,9.03,9.03h34.08c4.98,0,9.03-4.05,9.03-9.03
		C241.98,102.97,237.93,98.95,232.95,98.95z M215.92,377.35c-8.12,0-14.72,6.59-14.72,14.69c0,8.12,6.59,14.72,14.72,14.72
		c8.1,0,14.69-6.59,14.69-14.72C230.61,383.94,224.02,377.35,215.92,377.35z M232.95,98.95h-34.08c-4.98,0-9.03,4.02-9.03,9.01
		c0,4.98,4.05,9.03,9.03,9.03h34.08c4.98,0,9.03-4.05,9.03-9.03C241.98,102.97,237.93,98.95,232.95,98.95z M215.92,377.35
		c-8.12,0-14.72,6.59-14.72,14.69c0,8.12,6.59,14.72,14.72,14.72c8.1,0,14.69-6.59,14.69-14.72
		C230.61,383.94,224.02,377.35,215.92,377.35z M232.95,98.95h-34.08c-4.98,0-9.03,4.02-9.03,9.01c0,4.98,4.05,9.03,9.03,9.03h34.08
		c4.98,0,9.03-4.05,9.03-9.03C241.98,102.97,237.93,98.95,232.95,98.95z M215.92,377.35c-8.12,0-14.72,6.59-14.72,14.69
		c0,8.12,6.59,14.72,14.72,14.72c8.1,0,14.69-6.59,14.69-14.72C230.61,383.94,224.02,377.35,215.92,377.35z"/>
</g>
</svg>
