<?xml version="1.0" encoding="utf-8"?>
<!-- Generator: Adobe Illustrator 25.0.0, SVG Export Plug-In . SVG Version: 6.00 Build 0)  -->
<svg version="1.1" id="Layer_1" xmlns="http://www.w3.org/2000/svg" xmlns:xlink="http://www.w3.org/1999/xlink" x="0px" y="0px"
	 viewBox="0 0 500 500" style="enable-background:new 0 0 500 500;" xml:space="preserve">
<style type="text/css">
	.st0{fill:url(#SVGID_1_);}
</style>
<linearGradient id="SVGID_1_" gradientUnits="userSpaceOnUse" x1="47.4783" y1="250" x2="452.5217" y2="250">
	<stop  offset="0" style="stop-color:#F3837A"/>
	<stop  offset="1" style="stop-color:#F8A992"/>
</linearGradient>
<path class="st0" d="M195.66,7.96h-83.97v19.76h83.97V7.96z M215.42,37.6H91.93v19.76h123.49V37.6z M408.07,37.6H284.58v19.76
	h123.49V37.6z M388.31,7.96h-83.97v19.76h83.97V7.96z M427.82,467.34V67.24H264.82v375.41h-29.64V67.24H72.18v400.1h-24.7v24.7
	h405.04v-24.7H427.82z M116.63,442.64h-24.7v-74.09h24.7V442.64z M116.63,348.79h-24.7V274.7h24.7V348.79z M116.63,254.94h-24.7
	v-74.09h24.7V254.94z M116.63,161.09h-24.7V86.99h24.7V161.09z M166.03,442.64h-24.7v-74.09h24.7V442.64z M166.03,348.79h-24.7
	V274.7h24.7V348.79z M166.03,254.94h-24.7v-74.09h24.7V254.94z M166.03,161.09h-24.7V86.99h24.7V161.09z M215.42,442.64h-24.7
	v-74.09h24.7V442.64z M215.42,348.79h-24.7V274.7h24.7V348.79z M215.42,254.94h-24.7v-74.09h24.7V254.94z M215.42,161.09h-24.7
	V86.99h24.7V161.09z M309.27,442.64h-24.7v-74.09h24.7V442.64z M309.27,348.79h-24.7V274.7h24.7V348.79z M309.27,254.94h-24.7
	v-74.09h24.7V254.94z M309.27,161.09h-24.7V86.99h24.7V161.09z M358.67,442.64h-24.7v-74.09h24.7V442.64z M358.67,348.79h-24.7
	V274.7h24.7V348.79z M358.67,254.94h-24.7v-74.09h24.7V254.94z M358.67,161.09h-24.7V86.99h24.7V161.09z M408.07,442.64h-24.7
	v-74.09h24.7V442.64z M408.07,348.79h-24.7V274.7h24.7V348.79z M408.07,254.94h-24.7v-74.09h24.7V254.94z M408.07,161.09h-24.7
	V86.99h24.7V161.09z"/>
</svg>
