<?xml version="1.0" encoding="utf-8"?>
<!-- Generator: Adobe Illustrator 25.0.0, SVG Export Plug-In . SVG Version: 6.00 Build 0)  -->
<svg version="1.1" id="Layer_1" xmlns="http://www.w3.org/2000/svg" xmlns:xlink="http://www.w3.org/1999/xlink" x="0px" y="0px"
	 viewBox="0 0 500 500" style="enable-background:new 0 0 500 500;" xml:space="preserve">
<style type="text/css">
	.st0{fill:url(#SVGID_1_);}
	.st1{fill:url(#SVGID_2_);}
	.st2{fill:url(#SVGID_3_);}
</style>
<linearGradient id="SVGID_1_" gradientUnits="userSpaceOnUse" x1="1650.7192" y1="102.3913" x2="1696.4404" y2="102.3913">
	<stop  offset="0" style="stop-color:#252159"/>
	<stop  offset="1" style="stop-color:#4C2E87"/>
</linearGradient>
<path class="st0" d="M1692.41,109.11V99.7c0.02-7.28-4.18-13.91-10.76-17.01v-1.82c0-4.46-3.61-8.07-8.07-8.07s-8.07,3.61-8.07,8.07
	v1.83c-6.57,3.11-10.75,9.73-10.76,17v9.41c0,1.87-0.3,3.74-0.9,5.51c-0.59,1.79-1.47,3.47-2.6,4.98c-0.89,1.19-0.65,2.87,0.54,3.77
	c0.47,0.35,1.03,0.54,1.61,0.54h12.1c0,4.46,3.61,8.07,8.07,8.07s8.07-3.61,8.07-8.07h12.1c1.49,0,2.69-1.2,2.69-2.69
	c0-0.58-0.19-1.15-0.54-1.61C1693.62,116.58,1692.4,112.9,1692.41,109.11z M1670.89,80.88c-0.01-1.49,1.19-2.7,2.67-2.71
	c0.72,0,1.4,0.28,1.91,0.78c0.51,0.51,0.8,1.2,0.79,1.92v0.19c-0.89-0.13-1.79-0.19-2.69-0.19c-0.54,0-1.06,0-1.6,0.08l0,0
	l-1.04,0.11L1670.89,80.88z M1673.58,126.6c-1.49,0-2.69-1.2-2.69-2.69h5.38C1676.27,125.39,1675.07,126.6,1673.58,126.6z
	 M1678.96,118.53h-20.86c0.32-0.71,0.61-1.43,0.86-2.18c0.78-2.33,1.17-4.78,1.17-7.23V99.7c0-7.43,6.02-13.45,13.44-13.45
	c0.76,0,1.53,0.06,2.28,0.19c2.74,0.48,5.26,1.78,7.23,3.74c2.53,2.52,3.95,5.95,3.94,9.52v9.41c-0.01,3.25,0.68,6.46,2.02,9.41
	H1678.96z"/>
<linearGradient id="SVGID_2_" gradientUnits="userSpaceOnUse" x1="1676.1559" y1="89.5028" x2="1701.9329" y2="89.5028">
	<stop  offset="0" style="stop-color:#F3837A"/>
	<stop  offset="1" style="stop-color:#F7A891"/>
</linearGradient>
<circle class="st1" cx="1689.04" cy="89.5" r="12.89"/>
<linearGradient id="SVGID_3_" gradientUnits="userSpaceOnUse" x1="-3803.0757" y1="-793.7062" x2="-3483.5251" y2="-793.7062" gradientTransform="matrix(-1 0 0 -1 -3393.3003 -543.7062)">
	<stop  offset="0" style="stop-color:#70C49C"/>
	<stop  offset="1" style="stop-color:#7BCEDC"/>
</linearGradient>
<path class="st2" d="M281.93,440.2l114.68-114.68c17.54-17.54,17.54-46.22,0-63.76c-17.54-17.54-46.22-17.54-63.76,0l-37.66,37.66
	l0-207.54c0-24.82-20.11-44.93-44.93-44.93s-44.93,20.11-44.93,44.93l0,207.97l-38.09-38.09c-17.54-17.54-46.22-17.54-63.76,0
	c-8.99,8.99-13.27,20.11-13.27,31.67c0,11.55,4.28,23.11,13.27,31.67l114.68,114.68c8.56,8.56,19.68,13.27,31.67,13.27
	C262.25,453.46,273.8,448.76,281.93,440.2z"/>
</svg>
