<?xml version="1.0" encoding="utf-8"?>
<!-- Generator: Adobe Illustrator 25.0.0, SVG Export Plug-In . SVG Version: 6.00 Build 0)  -->
<svg version="1.1" id="Layer_1" xmlns="http://www.w3.org/2000/svg" xmlns:xlink="http://www.w3.org/1999/xlink" x="0px" y="0px"
	 viewBox="0 0 500 500" style="enable-background:new 0 0 500 500;" xml:space="preserve">
<style type="text/css">
	.st0{fill:url(#SVGID_1_);}
	.st1{fill:url(#SVGID_2_);}
	.st2{fill:url(#SVGID_3_);}
</style>
<linearGradient id="SVGID_1_" gradientUnits="userSpaceOnUse" x1="1650.7192" y1="102.3913" x2="1696.4404" y2="102.3913">
	<stop  offset="0" style="stop-color:#252159"/>
	<stop  offset="1" style="stop-color:#4C2E87"/>
</linearGradient>
<path class="st0" d="M1692.41,109.11V99.7c0.02-7.28-4.18-13.91-10.76-17.01v-1.82c0-4.46-3.61-8.07-8.07-8.07s-8.07,3.61-8.07,8.07
	v1.83c-6.57,3.11-10.75,9.73-10.76,17v9.41c0,1.87-0.3,3.74-0.9,5.51c-0.59,1.79-1.47,3.47-2.6,4.98c-0.89,1.19-0.65,2.87,0.54,3.77
	c0.47,0.35,1.03,0.54,1.61,0.54h12.1c0,4.46,3.61,8.07,8.07,8.07s8.07-3.61,8.07-8.07h12.1c1.49,0,2.69-1.2,2.69-2.69
	c0-0.58-0.19-1.15-0.54-1.61C1693.62,116.58,1692.4,112.9,1692.41,109.11z M1670.89,80.88c-0.01-1.49,1.19-2.7,2.67-2.71
	c0.72,0,1.4,0.28,1.91,0.78c0.51,0.51,0.8,1.2,0.79,1.92v0.19c-0.89-0.13-1.79-0.19-2.69-0.19c-0.54,0-1.06,0-1.6,0.08l0,0
	l-1.04,0.11L1670.89,80.88z M1673.58,126.6c-1.49,0-2.69-1.2-2.69-2.69h5.38C1676.27,125.39,1675.07,126.6,1673.58,126.6z
	 M1678.96,118.53h-20.86c0.32-0.71,0.61-1.43,0.86-2.18c0.78-2.33,1.17-4.78,1.17-7.23V99.7c0-7.43,6.02-13.45,13.44-13.45
	c0.76,0,1.53,0.06,2.28,0.19c2.74,0.48,5.26,1.78,7.23,3.74c2.53,2.52,3.95,5.95,3.94,9.52v9.41c-0.01,3.25,0.68,6.46,2.02,9.41
	H1678.96z"/>
<linearGradient id="SVGID_2_" gradientUnits="userSpaceOnUse" x1="1676.1559" y1="89.5028" x2="1701.9329" y2="89.5028">
	<stop  offset="0" style="stop-color:#F3837A"/>
	<stop  offset="1" style="stop-color:#F7A891"/>
</linearGradient>
<circle class="st1" cx="1689.04" cy="89.5" r="12.89"/>
<g>
	<linearGradient id="SVGID_3_" gradientUnits="userSpaceOnUse" x1="51.7898" y1="250" x2="448.2102" y2="250">
		<stop  offset="0" style="stop-color:#353E96"/>
		<stop  offset="1" style="stop-color:#3F63AD"/>
	</linearGradient>
	<path class="st2" d="M441.34,398.88H296.9v-66.36h64.33c33.23,0,60.28-27.04,60.28-60.28c0-25.27-16.09-48.11-40.06-56.82
		l-1.66-0.62l0.38-1.73c0.88-3.95,1.28-7.77,1.28-12.02c0-21.32-11.55-41.28-30.14-52.1l-0.98-0.58l-0.02-1.13
		c-0.43-33.02-27.47-59.87-60.25-59.87c-14.51,0-28.26,5.04-38.72,14.19l-1.3,1.13l-1.34-1.11c-10.99-9.16-24.76-14.22-38.74-14.22
		c-32.81,0-59.83,26.85-60.28,59.87v1.13l-1,0.58c-18.59,10.82-30.14,30.78-30.14,52.1c0,4.25,0.41,8.07,1.28,12.02l0.38,1.73
		l-1.66,0.62c-23.95,8.71-40.04,31.55-40.04,56.82c0,33.23,27.04,60.28,60.27,60.28h64.31v66.36H58.66c-3.8,0-6.87,3.07-6.87,6.87
		c0,3.78,3.07,6.85,6.87,6.85h382.68c3.78,0,6.87-3.07,6.87-6.85C448.21,401.96,445.12,398.88,441.34,398.88z M138.77,318.78
		c-25.66,0-46.53-20.87-46.53-46.53c0-22.24,15.84-41.41,37.69-45.59c1.94-0.32,3.74-1.62,4.87-3.5c1.17-1.96,0.79-4.29,0.26-5.87
		c-1.81-4.97-2.77-10.61-2.77-16.22c0-18.31,10.78-34.94,27.45-42.35c2.65-1,4.14-3.61,4.14-7.04v-4.01
		c0-25.66,20.87-46.53,46.53-46.53c11.25,0,21.41,3.71,29.37,10.76l1.34,1.17l-1,1.47c-6.47,9.5-9.88,20.79-9.88,32.68v1.17
		l-1.02,0.58c-18.59,10.82-30.14,30.78-30.14,52.1c0,4.25,0.43,8.07,1.3,12.02l0.38,1.75l-1.69,0.6
		c-24.2,8.64-40.49,31.48-40.49,56.82c0,16.31,6.6,32,18.08,43.05l3.63,3.48H138.77z M283.18,398.88h-66.36v-66.36h66.36V398.88z
		 M290.05,167.49c-3.8,0-6.87,3.07-6.87,6.87v41.39l-23.95-23.93c-2.77-2.8-6.81-2.8-9.58,0c-1.34,1.32-2.07,3.03-2.07,4.78
		c0,1.77,0.73,3.46,2.07,4.8l33.53,33.51v38.23l-23.95-23.93c-2.67-2.69-6.92-2.67-9.58,0c-1.34,1.35-2.07,3.03-2.07,4.8
		c0,1.75,0.73,3.46,2.07,4.78l33.53,33.53v26.45h-64.33c-25.66,0-46.53-20.87-46.53-46.53c0-22.24,15.86-41.41,37.69-45.59
		c1.94-0.32,3.76-1.62,4.87-3.5c1.2-1.96,0.79-4.29,0.28-5.87c-1.81-4.97-2.77-10.61-2.77-16.22c0-18.31,10.78-34.94,27.45-42.35
		c2.63-0.98,4.14-3.61,4.14-7.04v-4.01c0-25.66,20.85-46.53,46.51-46.53s46.53,20.87,46.53,46.53l-0.02,4.27
		c-0.32,2.65,1.39,5.4,4.25,6.83c16.58,7.36,27.36,23.99,27.36,42.3c0,6.06-1.11,11.59-3.29,16.41c-0.6,1.47-0.68,3.97,0.34,5.68
		c1.11,1.88,2.92,3.18,4.82,3.5c21.88,4.18,37.74,23.35,37.74,45.59c0,25.66-20.87,46.53-46.53,46.53H296.9v-26l33.53-33.53
		c2.77-2.78,2.77-6.81,0-9.58c-2.77-2.77-6.81-2.77-9.58,0L296.9,273.6v-38.23l33.53-33.51c1.34-1.34,2.07-3.05,2.07-4.8
		c0-1.75-0.73-3.46-2.07-4.8c-2.77-2.77-6.81-2.77-9.58,0l-23.95,23.41v-41.3C296.9,170.57,293.83,167.49,290.05,167.49z"/>
</g>
</svg>
