<?xml version="1.0" encoding="utf-8"?>
<!-- Generator: Adobe Illustrator 25.0.0, SVG Export Plug-In . SVG Version: 6.00 Build 0)  -->
<svg version="1.1" id="Layer_1" xmlns="http://www.w3.org/2000/svg" xmlns:xlink="http://www.w3.org/1999/xlink" x="0px" y="0px"
	 viewBox="0 0 500 500" style="enable-background:new 0 0 500 500;" xml:space="preserve">
<style type="text/css">
	.st0{fill:url(#SVGID_1_);}
	.st1{fill:url(#SVGID_2_);}
	.st2{fill:#FFFFFF;}
	.st3{fill:url(#SVGID_3_);}
	.st4{fill:url(#SVGID_4_);}
	.st5{fill:url(#SVGID_5_);}
	.st6{fill:url(#SVGID_6_);}
	.st7{fill:url(#SVGID_7_);}
	.st8{fill:url(#SVGID_8_);}
	.st9{fill:url(#SVGID_9_);}
	.st10{fill:url(#SVGID_10_);}
	.st11{fill:url(#SVGID_11_);}
	.st12{fill:url(#SVGID_12_);}
	.st13{fill:url(#SVGID_13_);}
	.st14{fill:url(#SVGID_14_);}
</style>
<g>
	<g>
		<g>
			<g>
				<linearGradient id="SVGID_1_" gradientUnits="userSpaceOnUse" x1="108.4242" y1="322.9144" x2="149.1987" y2="322.9144">
					<stop  offset="0" style="stop-color:#353E96"/>
					<stop  offset="1" style="stop-color:#3F63AD"/>
				</linearGradient>
				<path class="st0" d="M128.81,302.53c-11.24,0-20.39,9.15-20.39,20.39s9.15,20.39,20.39,20.39c11.24,0,20.39-9.15,20.39-20.39
					S140.05,302.53,128.81,302.53z M128.81,329.33c-3.56,0-6.44-2.86-6.44-6.42s2.89-6.44,6.44-6.44c3.56,0,6.44,2.89,6.44,6.44
					S132.37,329.33,128.81,329.33z"/>
			</g>
		</g>
		<g>
			<g>
				<linearGradient id="SVGID_2_" gradientUnits="userSpaceOnUse" x1="157.3946" y1="311.4584" x2="175.9775" y2="311.4584">
					<stop  offset="0" style="stop-color:#353E96"/>
					<stop  offset="1" style="stop-color:#3F63AD"/>
				</linearGradient>
				<path class="st1" d="M157.39,302.71l0.95,1.5c1.93,3.09,3.38,6.39,4.3,9.79C161.62,309.9,159.79,306.06,157.39,302.71z
					 M163.01,315.47c0.34,1.57,0.57,3.14,0.7,4.74C163.61,318.58,163.37,317.01,163.01,315.47z M175.26,307.45h-0.03l0.1,0.31
					c0.23,0.7,0.44,1.39,0.64,2.09C175.8,309.05,175.54,308.25,175.26,307.45z"/>
				<path class="st2" d="M157.39,302.71l0.95,1.5c1.93,3.09,3.38,6.39,4.3,9.79C161.62,309.9,159.79,306.06,157.39,302.71z
					 M163.01,315.47c0.34,1.57,0.57,3.14,0.7,4.74C163.61,318.58,163.37,317.01,163.01,315.47z M157.39,302.71l0.95,1.5
					c1.93,3.09,3.38,6.39,4.3,9.79C161.62,309.9,159.79,306.06,157.39,302.71z M163.01,315.47c0.34,1.57,0.57,3.14,0.7,4.74
					C163.61,318.58,163.37,317.01,163.01,315.47z M157.39,302.71l0.95,1.5c1.93,3.09,3.38,6.39,4.3,9.79
					C161.62,309.9,159.79,306.06,157.39,302.71z M163.01,315.47c0.34,1.57,0.57,3.14,0.7,4.74
					C163.61,318.58,163.37,317.01,163.01,315.47z M157.39,302.71l0.95,1.5c1.93,3.09,3.38,6.39,4.3,9.79
					C161.62,309.9,159.79,306.06,157.39,302.71z M163.01,315.47c0.34,1.57,0.57,3.14,0.7,4.74
					C163.61,318.58,163.37,317.01,163.01,315.47z M157.39,302.71l0.95,1.5c1.93,3.09,3.38,6.39,4.3,9.79
					C161.62,309.9,159.79,306.06,157.39,302.71z M163.01,315.47c0.34,1.57,0.57,3.14,0.7,4.74
					C163.61,318.58,163.37,317.01,163.01,315.47z M157.39,302.71l0.95,1.5c1.93,3.09,3.38,6.39,4.3,9.79
					C161.62,309.9,159.79,306.06,157.39,302.71z M163.01,315.47c0.34,1.57,0.57,3.14,0.7,4.74
					C163.61,318.58,163.37,317.01,163.01,315.47z M157.39,302.71l0.95,1.5c1.93,3.09,3.38,6.39,4.3,9.79
					C161.62,309.9,159.79,306.06,157.39,302.71z M163.01,315.47c0.34,1.57,0.57,3.14,0.7,4.74
					C163.61,318.58,163.37,317.01,163.01,315.47z M157.39,302.71l0.95,1.5c1.93,3.09,3.38,6.39,4.3,9.79
					C161.62,309.9,159.79,306.06,157.39,302.71z M163.01,315.47c0.34,1.57,0.57,3.14,0.7,4.74
					C163.61,318.58,163.37,317.01,163.01,315.47z M157.39,302.71l0.95,1.5c1.93,3.09,3.38,6.39,4.3,9.79
					C161.62,309.9,159.79,306.06,157.39,302.71z M163.01,315.47c0.34,1.57,0.57,3.14,0.7,4.74
					C163.61,318.58,163.37,317.01,163.01,315.47z M157.39,302.71l0.95,1.5c1.93,3.09,3.38,6.39,4.3,9.79
					C161.62,309.9,159.79,306.06,157.39,302.71z M163.01,315.47c0.34,1.57,0.57,3.14,0.7,4.74
					C163.61,318.58,163.37,317.01,163.01,315.47z M157.39,302.71l0.95,1.5c1.93,3.09,3.38,6.39,4.3,9.79
					C161.62,309.9,159.79,306.06,157.39,302.71z M163.01,315.47c0.34,1.57,0.57,3.14,0.7,4.74
					C163.61,318.58,163.37,317.01,163.01,315.47z M157.39,302.71l0.95,1.5c1.93,3.09,3.38,6.39,4.3,9.79
					C161.62,309.9,159.79,306.06,157.39,302.71z M163.01,315.47c0.34,1.57,0.57,3.14,0.7,4.74
					C163.61,318.58,163.37,317.01,163.01,315.47z M157.39,302.71l0.95,1.5c1.93,3.09,3.38,6.39,4.3,9.79
					C161.62,309.9,159.79,306.06,157.39,302.71z M163.01,315.47c0.34,1.57,0.57,3.14,0.7,4.74
					C163.61,318.58,163.37,317.01,163.01,315.47z M157.39,302.71l0.95,1.5c1.93,3.09,3.38,6.39,4.3,9.79
					C161.62,309.9,159.79,306.06,157.39,302.71z M163.01,315.47c0.34,1.57,0.57,3.14,0.7,4.74
					C163.61,318.58,163.37,317.01,163.01,315.47z M157.39,302.71l0.95,1.5c1.93,3.09,3.38,6.39,4.3,9.79
					C161.62,309.9,159.79,306.06,157.39,302.71z M163.01,315.47c0.34,1.57,0.57,3.14,0.7,4.74
					C163.61,318.58,163.37,317.01,163.01,315.47z M157.39,302.71l0.95,1.5c1.93,3.09,3.38,6.39,4.3,9.79
					C161.62,309.9,159.79,306.06,157.39,302.71z M163.01,315.47c0.34,1.57,0.57,3.14,0.7,4.74
					C163.61,318.58,163.37,317.01,163.01,315.47z M157.39,302.71l0.95,1.5c1.93,3.09,3.38,6.39,4.3,9.79
					C161.62,309.9,159.79,306.06,157.39,302.71z M163.01,315.47c0.34,1.57,0.57,3.14,0.7,4.74
					C163.61,318.58,163.37,317.01,163.01,315.47z M157.39,302.71l0.95,1.5c1.93,3.09,3.38,6.39,4.3,9.79
					C161.62,309.9,159.79,306.06,157.39,302.71z M163.01,315.47c0.34,1.57,0.57,3.14,0.7,4.74
					C163.61,318.58,163.37,317.01,163.01,315.47z M157.39,302.71l0.95,1.5c1.93,3.09,3.38,6.39,4.3,9.79
					C161.62,309.9,159.79,306.06,157.39,302.71z M163.01,315.47c0.34,1.57,0.57,3.14,0.7,4.74
					C163.61,318.58,163.37,317.01,163.01,315.47z M157.39,302.71l0.95,1.5c1.93,3.09,3.38,6.39,4.3,9.79
					C161.62,309.9,159.79,306.06,157.39,302.71z M163.01,315.47c0.34,1.57,0.57,3.14,0.7,4.74
					C163.61,318.58,163.37,317.01,163.01,315.47z M157.39,302.71l0.95,1.5c1.93,3.09,3.38,6.39,4.3,9.79
					C161.62,309.9,159.79,306.06,157.39,302.71z M163.01,315.47c0.34,1.57,0.57,3.14,0.7,4.74
					C163.61,318.58,163.37,317.01,163.01,315.47z M157.39,302.71l0.95,1.5c1.93,3.09,3.38,6.39,4.3,9.79
					C161.62,309.9,159.79,306.06,157.39,302.71z M163.01,315.47c0.34,1.57,0.57,3.14,0.7,4.74
					C163.61,318.58,163.37,317.01,163.01,315.47z M157.39,302.71l0.95,1.5c1.93,3.09,3.38,6.39,4.3,9.79
					C161.62,309.9,159.79,306.06,157.39,302.71z M163.01,315.47c0.34,1.57,0.57,3.14,0.7,4.74
					C163.61,318.58,163.37,317.01,163.01,315.47z M157.39,302.71l0.95,1.5c1.93,3.09,3.38,6.39,4.3,9.79
					C161.62,309.9,159.79,306.06,157.39,302.71z M163.01,315.47c0.34,1.57,0.57,3.14,0.7,4.74
					C163.61,318.58,163.37,317.01,163.01,315.47z"/>
			</g>
		</g>
		<g>
			<g>
				<linearGradient id="SVGID_3_" gradientUnits="userSpaceOnUse" x1="328.5587" y1="322.9144" x2="369.3332" y2="322.9144">
					<stop  offset="0" style="stop-color:#353E96"/>
					<stop  offset="1" style="stop-color:#3F63AD"/>
				</linearGradient>
				<path class="st3" d="M348.92,302.53c-11.24,0-20.36,9.15-20.36,20.39s9.12,20.39,20.36,20.39c5.46,0,10.57-2.14,14.43-5.98
					c3.87-3.84,5.98-8.97,5.98-14.41C369.33,311.68,360.18,302.53,348.92,302.53z M348.92,329.33c-3.53,0-6.39-2.86-6.39-6.42
					s2.86-6.44,6.39-6.44c1.73,0,3.35,0.67,4.59,1.91c1.21,1.21,1.88,2.83,1.88,4.54C355.39,326.47,352.48,329.33,348.92,329.33z"/>
			</g>
		</g>
		<g>
			<g>
				<linearGradient id="SVGID_4_" gradientUnits="userSpaceOnUse" x1="89.8671" y1="225.2449" x2="96.0526" y2="225.2449">
					<stop  offset="0" style="stop-color:#353E96"/>
					<stop  offset="1" style="stop-color:#3F63AD"/>
				</linearGradient>
				<polygon class="st4" points="96.05,225.1 96,225.33 96,225.39 89.87,225.39 89.87,225.15 90.31,225.15 95.8,225.1 				"/>
				<linearGradient id="SVGID_5_" gradientUnits="userSpaceOnUse" x1="445.0056" y1="239.9359" x2="445.5468" y2="239.9359">
					<stop  offset="0" style="stop-color:#353E96"/>
					<stop  offset="1" style="stop-color:#3F63AD"/>
				</linearGradient>
				<path class="st5" d="M445.55,240.15h-0.28c-0.03-0.05-0.08-0.13-0.13-0.21c-0.03-0.08-0.08-0.15-0.13-0.23h0.26
					c0.08,0.08,0.1,0.15,0.15,0.23C445.47,240.03,445.5,240.08,445.55,240.15z"/>
				<linearGradient id="SVGID_6_" gradientUnits="userSpaceOnUse" x1="34.2211" y1="299.4474" x2="34.4275" y2="299.4474">
					<stop  offset="0" style="stop-color:#353E96"/>
					<stop  offset="1" style="stop-color:#3F63AD"/>
				</linearGradient>
				<path class="st6" d="M34.22,299.23c0.05-0.08,0.1-0.15,0.21-0.23v0.67c-0.1,0.08-0.18,0.15-0.21,0.23V299.23z"/>
				<linearGradient id="SVGID_7_" gradientUnits="userSpaceOnUse" x1="462.9958" y1="284.8338" x2="463.2015" y2="284.8338">
					<stop  offset="0" style="stop-color:#353E96"/>
					<stop  offset="1" style="stop-color:#3F63AD"/>
				</linearGradient>
				<rect x="463" y="284.72" class="st7" width="0.21" height="0.23"/>
				<path class="st2" d="M89.87,225.59h6.31v-0.08L89.87,225.59z M89.87,225.59h6.31v-0.08L89.87,225.59z M96,225.33l-5.93,0.05
					h-0.21v0.21h6.31v-0.08l0.05-0.21L96,225.33z M96,225.33l-5.93,0.05h-0.21v0.21h6.31v-0.08l0.05-0.21L96,225.33z M89.87,225.59
					h6.31v-0.08L89.87,225.59z M445.42,239.95c-0.05-0.08-0.08-0.15-0.15-0.23h-0.52c0.08,0.08,0.13,0.15,0.13,0.23
					c0.08,0.08,0.1,0.13,0.13,0.21h0.54C445.5,240.08,445.47,240.03,445.42,239.95z M89.87,225.59h6.31v-0.08L89.87,225.59z
					 M96,225.33l-5.93,0.05h-0.21v0.21h6.31v-0.08l0.05-0.21L96,225.33z M96,225.33l-5.93,0.05h-0.21v0.21h6.31v-0.08l0.05-0.21
					L96,225.33z M89.87,225.59h6.31v-0.08L89.87,225.59z M89.87,225.59h6.31v-0.08L89.87,225.59z M89.87,225.59h6.31v-0.08
					L89.87,225.59z M95.8,225.1v0.05h-5.93v0.44l6.31-0.08l0.05-0.21l0.05-0.21H95.8z M95.8,225.1v0.05h-5.93v0.44h6.31v-0.08
					l0.05-0.21l0.05-0.21H95.8z M95.8,225.1v0.05h-5.93v0.44h6.31v-0.08l0.05-0.21l0.05-0.21H95.8z M89.87,225.59h6.31v-0.08
					L89.87,225.59z M445.42,239.95c-0.05-0.08-0.08-0.15-0.15-0.23h-0.52c0.08,0.08,0.13,0.15,0.13,0.23
					c0.08,0.08,0.1,0.13,0.13,0.21h0.54C445.5,240.08,445.47,240.03,445.42,239.95z M34.22,299.23c-0.1,0.08-0.18,0.18-0.23,0.26
					v0.67c0.05-0.1,0.13-0.18,0.23-0.26c0.03-0.08,0.1-0.15,0.21-0.23V299C34.32,299.07,34.27,299.15,34.22,299.23z M463,284.72
					v0.23h0.23v-0.23H463z M89.87,225.59h6.31v-0.08L89.87,225.59z M95.8,225.1v0.05h-5.93v0.44h6.31v-0.08l0.05-0.21l0.05-0.21
					H95.8z M95.8,225.1v0.05h-5.93v0.44h6.31v-0.08l0.05-0.21l0.05-0.21H95.8z M95.8,225.1v0.05h-5.93v0.44h6.31v-0.08l0.05-0.21
					l0.05-0.21H95.8z"/>
				<linearGradient id="SVGID_8_" gradientUnits="userSpaceOnUse" x1="29.7107" y1="250" x2="470.2893" y2="250">
					<stop  offset="0" style="stop-color:#353E96"/>
					<stop  offset="1" style="stop-color:#3F63AD"/>
				</linearGradient>
				<path class="st8" d="M463.43,297.63c-0.08-0.08-0.15-0.15-0.23-0.18c-0.08-0.08-0.13-0.13-0.21-0.15v-44.61
					c0,0,0.03-0.49-0.03-1.34c0-0.31-0.03-0.64-0.08-1.06c-0.08-1.13-0.26-2.65-0.62-4.46l-0.18-0.9c-0.33-1.47-0.77-3.07-1.37-4.77
					c-0.03-0.08-0.05-0.15-0.08-0.21c-0.03-0.08-0.05-0.15-0.08-0.23c-1.68-4.69-4.51-10.03-9.28-14.95
					c-10.49-10.82-26.68-16.32-48.07-16.32h-50.8l-0.08-0.1l-34.33-55.36c-0.64-1-15.75-24.87-50.49-24.87H154.12
					c-2.11,0-52.22,0.93-69.8,82.91l-0.03,0.18H71.77c-0.36,0-37.35,0.54-37.35,46.73v41.73c-0.1,0.08-0.18,0.15-0.21,0.23
					c-0.1,0.08-0.18,0.15-0.23,0.26c-2.68,3.17-4.28,7.29-4.28,11.78c0,10.18,8.25,18.45,18.43,18.45h32.27
					c0.03,0.08,0.03,0.15,0.05,0.23c0,0.08,0,0.15,0.03,0.23c3.82,23.22,24.05,41.03,48.35,41.03c24.28,0,44.49-17.81,48.3-41.03
					c0.03-0.08,0.03-0.15,0.03-0.23c0.03-0.08,0.03-0.15,0.05-0.23h0.44l122.45,0.05h0.46c0,0.05,0,0.13,0.03,0.21
					c0,0.08,0.03,0.15,0.05,0.23c3.79,23.22,24,41.01,48.3,41.01c24.3,0,44.51-17.81,48.33-41.03c0.03-0.08,0.03-0.15,0.03-0.23
					c0.03-0.08,0.03-0.15,0.05-0.23h54.51c10.15,0,18.43-8.27,18.43-18.45C470.29,306.16,467.61,300.98,463.43,297.63z
					 M209.72,142.06h57.81c26.5,0,38.17,17.55,38.64,18.3l29.67,47.78l0.13,0.21l0.13,0.23h-0.49l-125.44,1.34h-0.44V142.06z
					 M98.66,210.87c0.03-0.08,0.03-0.13,0.05-0.21c15.57-67.17,53.74-68.59,55.44-68.61h41.63v68.02h-0.46l-96.24,1.03h-0.23
					l-0.23,0.03C98.63,211.06,98.63,210.95,98.66,210.87z M82.34,307.73c-0.88,2.78-1.52,5.65-1.88,8.53l-0.05,0.18H48.14
					c-2.47,0-4.48-2.01-4.48-4.51c0-2.4,1.88-4.36,4.25-4.46v-0.03h34.54L82.34,307.73z M163.35,328.69
					c-0.08,0.59-0.21,1.21-0.36,1.8v0.05c0,0.1-0.03,0.21-0.08,0.31c-3.58,15.49-17.5,27.06-34.07,27.06
					c-17.42,0-31.91-12.76-34.59-29.38c-0.1-0.54-0.18-1.11-0.23-1.65c-0.15-1.32-0.23-2.63-0.23-3.97c0-0.64,0.03-1.29,0.05-1.93
					c0.03-0.33,0.05-0.64,0.08-0.98v-0.08c0-0.05,0-0.13,0.03-0.18c0.05-0.59,0.1-1.13,0.21-1.7c0.08-0.62,0.18-1.21,0.31-1.83
					c0.98-5.26,3.2-10.1,6.29-14.23l0.03-0.03l0.03-0.03c0.03-0.03,0.05-0.05,0.05-0.08c0.39-0.49,0.77-0.98,1.16-1.44l0.03-0.03
					c0.28-0.34,0.57-0.67,0.88-1.01l0.05-0.05c6.39-7.04,15.64-11.44,25.88-11.44c10.23,0,19.46,4.43,25.88,11.47l0.03,0.03
					c0.34,0.36,0.64,0.72,0.95,1.08v0.03c0.57,0.67,1.11,1.37,1.6,2.09l0.08,0.1l0.03,0.03c2.4,3.35,4.23,7.19,5.26,11.29
					c0.13,0.49,0.26,0.98,0.36,1.47c0.36,1.55,0.59,3.12,0.7,4.74c0.1,0.9,0.13,1.8,0.13,2.71
					C163.84,324.87,163.68,326.81,163.35,328.69z M302.48,307.73c-0.88,2.76-1.52,5.62-1.91,8.53l-0.03,0.18h-123.2l-0.03-0.18
					c0-0.03,0-0.03,0-0.05c0-0.08-0.03-0.13-0.03-0.21c-0.1-0.62-0.21-1.29-0.33-1.91c-0.13-0.72-0.28-1.42-0.44-2.14
					c-0.18-0.7-0.36-1.42-0.54-2.11c-0.21-0.7-0.41-1.39-0.64-2.09l-0.1-0.31h127.35L302.48,307.73z M383.95,323.17
					c0,0.08,0,0.18-0.03,0.26c0.03,0.08,0.03,0.13,0,0.21c0,0.36,0,0.72-0.03,1.08c-0.03,0.8-0.1,1.6-0.21,2.37
					c-0.05,0.54-0.13,1.06-0.23,1.6c-2.73,16.57-17.17,29.23-34.51,29.23c-16.57,0-30.49-11.57-34.1-27.04
					c-0.05-0.18-0.1-0.39-0.13-0.57c-0.15-0.64-0.26-1.26-0.36-1.91c-0.28-1.8-0.44-3.63-0.44-5.49c0-0.82,0.03-1.65,0.1-2.45
					c0.05-0.72,0.13-1.42,0.23-2.14c0.08-0.62,0.21-1.26,0.31-1.88c0.1-0.62,0.26-1.26,0.41-1.86c0.1-0.46,0.23-0.9,0.39-1.37
					c0.1-0.46,0.23-0.93,0.41-1.37c0.64-2.06,1.52-4.02,2.58-5.88c0.26-0.52,0.57-1.01,0.88-1.5c0.46-0.77,0.95-1.52,1.5-2.24
					l0.18-0.26c0.41-0.54,0.82-1.08,1.26-1.6c0.28-0.34,0.57-0.67,0.88-1.01l0.05-0.05c6.39-7.04,15.62-11.44,25.85-11.44
					c10.23,0,19.46,4.43,25.88,11.47l0.03,0.03c0.31,0.36,0.62,0.7,0.93,1.06c0.41,0.52,0.82,1.03,1.21,1.55l0.18,0.26
					c2.27,3.07,4.05,6.55,5.21,10.26c0.05,0.13,0.08,0.23,0.1,0.33c0.88,2.91,1.37,5.98,1.44,9.15c0.03,0.08,0.03,0.15,0,0.23
					c0.03,0.23,0.03,0.46,0.03,0.7V323.17z M387.89,293.27c-0.05-0.08-0.1-0.15-0.15-0.21c-8.94-11.65-23.02-19.15-38.79-19.15
					c-15.77,0-29.85,7.5-38.79,19.15c-0.05,0.05-0.1,0.13-0.15,0.21c-0.08,0.08-0.13,0.15-0.18,0.23H167.94
					c-0.05-0.08-0.1-0.15-0.18-0.23c-0.05-0.08-0.1-0.15-0.15-0.21c-8.94-11.65-22.99-19.15-38.76-19.15
					c-15.77,0-29.85,7.5-38.82,19.15c-0.05,0.05-0.1,0.13-0.15,0.21c-0.08,0.08-0.13,0.15-0.18,0.23H48.4v-35.57
					c0-31.44,20.98-32.73,23.38-32.78h18.53l5.49-0.05h0.49l247.89-2.66h0.23l3.99-0.05h54.82c17.35,0,30.08,4,37.86,11.88
					c1.75,1.78,3.12,3.63,4.18,5.44c0.08,0.08,0.1,0.15,0.15,0.23c0.05,0.08,0.08,0.13,0.13,0.21h-6.19
					c-12.22,0-22.17,9.95-22.17,22.17c0,12.24,9.95,22.19,22.17,22.19h9.69v8.99h-60.98C388.02,293.43,387.97,293.35,387.89,293.27z
					 M449.05,254.12v16.42h-9.69c-4.54,0-8.22-3.69-8.22-8.22c0-4.51,3.69-8.2,8.22-8.2H449.05z M451.86,316.45H397.5l-0.05-0.18
					c0-0.03,0-0.03,0-0.05c-0.1-0.72-0.23-1.42-0.36-2.14c-0.1-0.54-0.21-1.08-0.33-1.62c-0.36-1.6-0.8-3.17-1.32-4.69l-0.1-0.31
					h56.52c2.47,0,4.46,2.01,4.46,4.49C456.32,314.43,454.34,316.45,451.86,316.45z"/>
			</g>
		</g>
		<g>
			<g>
				<linearGradient id="SVGID_9_" gradientUnits="userSpaceOnUse" x1="444.8766" y1="240.0516" x2="445.5468" y2="240.0516">
					<stop  offset="0" style="stop-color:#353E96"/>
					<stop  offset="1" style="stop-color:#3F63AD"/>
				</linearGradient>
				<path class="st9" d="M445.42,239.95h-0.54c0.08,0.08,0.1,0.13,0.13,0.21h0.54C445.5,240.08,445.47,240.03,445.42,239.95z"/>
				<path class="st2" d="M463,284.72v0.23h0.23v-0.23H463z M445.42,239.95c-0.05-0.08-0.08-0.15-0.15-0.23h-0.52
					c0.08,0.08,0.13,0.15,0.13,0.23c0.08,0.08,0.1,0.13,0.13,0.21h0.54C445.5,240.08,445.47,240.03,445.42,239.95z"/>
			</g>
		</g>
		<g>
			<g>
				<linearGradient id="SVGID_10_" gradientUnits="userSpaceOnUse" x1="90.0729" y1="225.2449" x2="96.2848" y2="225.2449">
					<stop  offset="0" style="stop-color:#353E96"/>
					<stop  offset="1" style="stop-color:#3F63AD"/>
				</linearGradient>
				<polygon class="st10" points="96.28,225.1 96.23,225.31 96,225.33 90.07,225.39 90.07,225.15 90.31,225.15 95.8,225.1 				"/>
				<path class="st2" d="M90.31,225.15h5.49v-0.05L90.31,225.15z M95.8,225.1l-5.49,0.05h-0.44v0.44l6.31-0.08l0.05-0.21l0.05-0.21
					H95.8z"/>
			</g>
		</g>
		<g>
			<g>
				<linearGradient id="SVGID_11_" gradientUnits="userSpaceOnUse" x1="33.9895" y1="299.7305" x2="34.4275" y2="299.7305">
					<stop  offset="0" style="stop-color:#353E96"/>
					<stop  offset="1" style="stop-color:#3F63AD"/>
				</linearGradient>
				<path class="st11" d="M34.22,299.51c-0.08,0.08-0.15,0.18-0.23,0.26v0.39c0.05-0.1,0.13-0.18,0.23-0.26
					c0.03-0.08,0.1-0.15,0.21-0.23v-0.36C34.35,299.36,34.27,299.43,34.22,299.51z"/>
				<path class="st2" d="M34.22,299.23c-0.1,0.08-0.18,0.18-0.23,0.26v0.67c0.05-0.1,0.13-0.18,0.23-0.26
					c0.03-0.08,0.1-0.15,0.21-0.23V299C34.32,299.07,34.27,299.15,34.22,299.23z"/>
			</g>
		</g>
		<g>
			<g>
				<linearGradient id="SVGID_12_" gradientUnits="userSpaceOnUse" x1="313.9194" y1="316.5483" x2="397.5555" y2="316.5483">
					<stop  offset="0" style="stop-color:#353E96"/>
					<stop  offset="1" style="stop-color:#3F63AD"/>
				</linearGradient>
				<path class="st12" d="M397.35,330.39c-0.03,0.08-0.03,0.15-0.05,0.23c0,0.08,0,0.15-0.03,0.23h0.21
					c0.03-0.08,0.03-0.15,0.03-0.23c0.03-0.08,0.05-0.15,0.05-0.23H397.35z M395.39,307.45h-0.05l0.1,0.31
					c0.52,1.52,0.95,3.09,1.32,4.69C396.42,310.75,395.96,309.07,395.39,307.45z M377.17,302.24l1.26,1.98
					c1.65,2.6,2.99,5.41,3.94,8.27C381.22,308.79,379.44,305.31,377.17,302.24z M319.23,304.49c-0.31,0.49-0.59,0.98-0.88,1.5
					c-0.28,0.51-0.54,1.03-0.77,1.57c0.57-1.13,1.19-2.24,1.88-3.32l1.26-1.98C320.18,302.97,319.69,303.71,319.23,304.49z
					 M313.95,322.91c0-0.82,0.03-1.65,0.08-2.45c-0.08,0.8-0.1,1.62-0.1,2.45c0,1.86,0.15,3.69,0.44,5.49L313.95,322.91z"/>
				<path class="st2" d="M377.17,302.24l1.26,1.98c1.65,2.6,2.99,5.41,3.94,8.27C381.22,308.79,379.44,305.31,377.17,302.24z
					 M319.23,304.49c-0.31,0.49-0.59,0.98-0.88,1.5c-0.28,0.51-0.54,1.03-0.77,1.57c0.57-1.13,1.19-2.24,1.88-3.32l1.26-1.98
					C320.18,302.97,319.69,303.71,319.23,304.49z M313.95,322.91c0-0.82,0.03-1.65,0.08-2.45c-0.08,0.8-0.1,1.62-0.1,2.45
					c0,1.86,0.15,3.69,0.44,5.49L313.95,322.91z M377.17,302.24l1.26,1.98c1.65,2.6,2.99,5.41,3.94,8.27
					C381.22,308.79,379.44,305.31,377.17,302.24z M319.23,304.49c-0.31,0.49-0.59,0.98-0.88,1.5c-0.28,0.51-0.54,1.03-0.77,1.57
					c0.57-1.13,1.19-2.24,1.88-3.32l1.26-1.98C320.18,302.97,319.69,303.71,319.23,304.49z M313.95,322.91
					c0-0.82,0.03-1.65,0.08-2.45c-0.08,0.8-0.1,1.62-0.1,2.45c0,1.86,0.15,3.69,0.44,5.49L313.95,322.91z M377.17,302.24l1.26,1.98
					c1.65,2.6,2.99,5.41,3.94,8.27C381.22,308.79,379.44,305.31,377.17,302.24z M319.23,304.49c-0.31,0.49-0.59,0.98-0.88,1.5
					c-0.28,0.51-0.54,1.03-0.77,1.57c0.57-1.13,1.19-2.24,1.88-3.32l1.26-1.98C320.18,302.97,319.69,303.71,319.23,304.49z
					 M313.95,322.91c0-0.82,0.03-1.65,0.08-2.45c-0.08,0.8-0.1,1.62-0.1,2.45c0,1.86,0.15,3.69,0.44,5.49L313.95,322.91z
					 M377.17,302.24l1.26,1.98c1.65,2.6,2.99,5.41,3.94,8.27C381.22,308.79,379.44,305.31,377.17,302.24z M319.23,304.49
					c-0.31,0.49-0.59,0.98-0.88,1.5c-0.28,0.51-0.54,1.03-0.77,1.57c0.57-1.13,1.19-2.24,1.88-3.32l1.26-1.98
					C320.18,302.97,319.69,303.71,319.23,304.49z M313.95,322.91c0-0.82,0.03-1.65,0.08-2.45c-0.08,0.8-0.1,1.62-0.1,2.45
					c0,1.86,0.15,3.69,0.44,5.49L313.95,322.91z M397.35,330.39c-0.03,0.08-0.03,0.15-0.05,0.23c0,0.08,0,0.15-0.03,0.23h0.44
					c0.03-0.08,0.03-0.15,0.05-0.23c0-0.08,0.03-0.15,0.03-0.23H397.35z M319.23,304.49c-0.31,0.49-0.59,0.98-0.88,1.5
					c-0.28,0.51-0.54,1.03-0.77,1.57c0.57-1.13,1.19-2.24,1.88-3.32l1.26-1.98C320.18,302.97,319.69,303.71,319.23,304.49z
					 M313.95,322.91c0-0.82,0.03-1.65,0.08-2.45c-0.08,0.8-0.1,1.62-0.1,2.45c0,1.86,0.15,3.69,0.44,5.49L313.95,322.91z
					 M377.17,302.24l1.26,1.98c1.65,2.6,2.99,5.41,3.94,8.27C381.22,308.79,379.44,305.31,377.17,302.24z M319.23,304.49
					c-0.31,0.49-0.59,0.98-0.88,1.5c-0.28,0.51-0.54,1.03-0.77,1.57c0.57-1.13,1.19-2.24,1.88-3.32l1.26-1.98
					C320.18,302.97,319.69,303.71,319.23,304.49z M313.95,322.91c0-0.82,0.03-1.65,0.08-2.45c-0.08,0.8-0.1,1.62-0.1,2.45
					c0,1.86,0.15,3.69,0.44,5.49L313.95,322.91z M377.17,302.24l1.26,1.98c1.65,2.6,2.99,5.41,3.94,8.27
					C381.22,308.79,379.44,305.31,377.17,302.24z M319.23,304.49c-0.31,0.49-0.59,0.98-0.88,1.5c-0.28,0.51-0.54,1.03-0.77,1.57
					c0.57-1.13,1.19-2.24,1.88-3.32l1.26-1.98C320.18,302.97,319.69,303.71,319.23,304.49z M313.95,322.91
					c0-0.82,0.03-1.65,0.08-2.45c-0.08,0.8-0.1,1.62-0.1,2.45c0,1.86,0.15,3.69,0.44,5.49L313.95,322.91z M377.17,302.24l1.26,1.98
					c1.65,2.6,2.99,5.41,3.94,8.27C381.22,308.79,379.44,305.31,377.17,302.24z M319.23,304.49c-0.31,0.49-0.59,0.98-0.88,1.5
					c-0.28,0.51-0.54,1.03-0.77,1.57c0.57-1.13,1.19-2.24,1.88-3.32l1.26-1.98C320.18,302.97,319.69,303.71,319.23,304.49z
					 M313.95,322.91c0-0.82,0.03-1.65,0.08-2.45c-0.08,0.8-0.1,1.62-0.1,2.45c0,1.86,0.15,3.69,0.44,5.49L313.95,322.91z
					 M377.17,302.24l1.26,1.98c1.65,2.6,2.99,5.41,3.94,8.27C381.22,308.79,379.44,305.31,377.17,302.24z M319.23,304.49
					c-0.31,0.49-0.59,0.98-0.88,1.5c-0.28,0.51-0.54,1.03-0.77,1.57c0.57-1.13,1.19-2.24,1.88-3.32l1.26-1.98
					C320.18,302.97,319.69,303.71,319.23,304.49z M313.95,322.91c0-0.82,0.03-1.65,0.08-2.45c-0.08,0.8-0.1,1.62-0.1,2.45
					c0,1.86,0.15,3.69,0.44,5.49L313.95,322.91z M377.17,302.24l1.26,1.98c1.65,2.6,2.99,5.41,3.94,8.27
					C381.22,308.79,379.44,305.31,377.17,302.24z M319.23,304.49c-0.31,0.49-0.59,0.98-0.88,1.5c-0.28,0.51-0.54,1.03-0.77,1.57
					c0.57-1.13,1.19-2.24,1.88-3.32l1.26-1.98C320.18,302.97,319.69,303.71,319.23,304.49z M313.95,322.91
					c0-0.82,0.03-1.65,0.08-2.45c-0.08,0.8-0.1,1.62-0.1,2.45c0,1.86,0.15,3.69,0.44,5.49L313.95,322.91z"/>
			</g>
		</g>
		<g>
			<g>
				<g>
					<linearGradient id="SVGID_13_" gradientUnits="userSpaceOnUse" x1="157.3946" y1="315.3239" x2="320.724" y2="315.3239">
						<stop  offset="0" style="stop-color:#353E96"/>
						<stop  offset="1" style="stop-color:#3F63AD"/>
					</linearGradient>
					<path class="st13" d="M319.23,304.49c-0.31,0.49-0.59,0.98-0.88,1.5c-0.28,0.51-0.54,1.03-0.77,1.57
						c0.57-1.13,1.19-2.24,1.88-3.32l1.26-1.98C320.18,302.97,319.69,303.71,319.23,304.49z M313.95,322.91
						c0-0.82,0.03-1.65,0.08-2.45c-0.08,0.8-0.1,1.62-0.1,2.45c0,1.86,0.15,3.69,0.44,5.49L313.95,322.91z M319.23,304.49
						c-0.31,0.49-0.59,0.98-0.88,1.5c-0.28,0.51-0.54,1.03-0.77,1.57c0.57-1.13,1.19-2.24,1.88-3.32l1.26-1.98
						C320.18,302.97,319.69,303.71,319.23,304.49z M313.95,322.91c0-0.82,0.03-1.65,0.08-2.45c-0.08,0.8-0.1,1.62-0.1,2.45
						c0,1.86,0.15,3.69,0.44,5.49L313.95,322.91z M157.39,302.71l0.95,1.5c1.93,3.09,3.38,6.39,4.3,9.79
						C161.62,309.9,159.79,306.06,157.39,302.71z M163.01,315.47c0.34,1.57,0.57,3.14,0.7,4.74
						C163.61,318.58,163.37,317.01,163.01,315.47z M175.26,307.45h-0.03l0.1,0.31c0.23,0.7,0.44,1.39,0.64,2.09
						C175.8,309.05,175.54,308.25,175.26,307.45z M319.23,304.49c-0.31,0.49-0.59,0.98-0.88,1.5c-0.28,0.51-0.54,1.03-0.77,1.57
						c0.57-1.13,1.19-2.24,1.88-3.32l1.26-1.98C320.18,302.97,319.69,303.71,319.23,304.49z M313.95,322.91
						c0-0.82,0.03-1.65,0.08-2.45c-0.08,0.8-0.1,1.62-0.1,2.45c0,1.86,0.15,3.69,0.44,5.49L313.95,322.91z"/>
					<path class="st2" d="M175.26,307.45h-0.03l0.1,0.31c0.23,0.7,0.44,1.39,0.64,2.09C175.8,309.05,175.54,308.25,175.26,307.45z
						 M175.26,307.45h-0.03l0.1,0.31c0.23,0.7,0.44,1.39,0.64,2.09C175.8,309.05,175.54,308.25,175.26,307.45z M175.26,307.45h-0.03
						l0.1,0.31c0.23,0.7,0.44,1.39,0.64,2.09C175.8,309.05,175.54,308.25,175.26,307.45z M175.26,307.45h-0.03l0.1,0.31
						c0.23,0.7,0.44,1.39,0.64,2.09C175.8,309.05,175.54,308.25,175.26,307.45z M175.26,307.45h-0.03l0.1,0.31
						c0.23,0.7,0.44,1.39,0.64,2.09C175.8,309.05,175.54,308.25,175.26,307.45z M175.26,307.45h-0.03l0.1,0.31
						c0.23,0.7,0.44,1.39,0.64,2.09C175.8,309.05,175.54,308.25,175.26,307.45z M175.26,307.45h-0.03l0.1,0.31
						c0.23,0.7,0.44,1.39,0.64,2.09C175.8,309.05,175.54,308.25,175.26,307.45z M175.26,307.45h-0.03l0.1,0.31
						c0.23,0.7,0.44,1.39,0.64,2.09C175.8,309.05,175.54,308.25,175.26,307.45z M175.26,307.45h-0.03l0.1,0.31
						c0.23,0.7,0.44,1.39,0.64,2.09C175.8,309.05,175.54,308.25,175.26,307.45z M175.26,307.45h-0.03l0.1,0.31
						c0.23,0.7,0.44,1.39,0.64,2.09C175.8,309.05,175.54,308.25,175.26,307.45z M175.26,307.45h-0.03l0.1,0.31
						c0.23,0.7,0.44,1.39,0.64,2.09C175.8,309.05,175.54,308.25,175.26,307.45z M175.26,307.45h-0.03l0.1,0.31
						c0.23,0.7,0.44,1.39,0.64,2.09C175.8,309.05,175.54,308.25,175.26,307.45z M175.26,307.45h-0.03l0.1,0.31
						c0.23,0.7,0.44,1.39,0.64,2.09C175.8,309.05,175.54,308.25,175.26,307.45z M175.26,307.45h-0.03l0.1,0.31
						c0.23,0.7,0.44,1.39,0.64,2.09C175.8,309.05,175.54,308.25,175.26,307.45z M175.26,307.45h-0.03l0.1,0.31
						c0.23,0.7,0.44,1.39,0.64,2.09C175.8,309.05,175.54,308.25,175.26,307.45z M175.26,307.45h-0.03l0.1,0.31
						c0.23,0.7,0.44,1.39,0.64,2.09C175.8,309.05,175.54,308.25,175.26,307.45z M175.26,307.45h-0.03l0.1,0.31
						c0.23,0.7,0.44,1.39,0.64,2.09C175.8,309.05,175.54,308.25,175.26,307.45z M175.26,307.45h-0.03l0.1,0.31
						c0.23,0.7,0.44,1.39,0.64,2.09C175.8,309.05,175.54,308.25,175.26,307.45z M175.26,307.45h-0.03l0.1,0.31
						c0.23,0.7,0.44,1.39,0.64,2.09C175.8,309.05,175.54,308.25,175.26,307.45z M175.26,307.45h-0.03l0.1,0.31
						c0.23,0.7,0.44,1.39,0.64,2.09C175.8,309.05,175.54,308.25,175.26,307.45z"/>
				</g>
			</g>
			<g>
				<g>
					<linearGradient id="SVGID_14_" gradientUnits="userSpaceOnUse" x1="377.1686" y1="316.4326" x2="397.7877" y2="316.4326">
						<stop  offset="0" style="stop-color:#353E96"/>
						<stop  offset="1" style="stop-color:#3F63AD"/>
					</linearGradient>
					<path class="st14" d="M377.17,302.24l1.26,1.98c1.65,2.6,2.99,5.41,3.94,8.27C381.22,308.79,379.44,305.31,377.17,302.24z
						 M395.39,307.45h-0.05l0.1,0.31c0.52,1.52,0.95,3.09,1.32,4.69C396.42,310.75,395.96,309.07,395.39,307.45z M377.17,302.24
						l1.26,1.98c1.65,2.6,2.99,5.41,3.94,8.27C381.22,308.79,379.44,305.31,377.17,302.24z M395.39,307.45h-0.05l0.1,0.31
						c0.52,1.52,0.95,3.09,1.32,4.69C396.42,310.75,395.96,309.07,395.39,307.45z M377.17,302.24l1.26,1.98
						c1.65,2.6,2.99,5.41,3.94,8.27C381.22,308.79,379.44,305.31,377.17,302.24z M395.39,307.45h-0.05l0.1,0.31
						c0.52,1.52,0.95,3.09,1.32,4.69C396.42,310.75,395.96,309.07,395.39,307.45z M377.17,302.24l1.26,1.98
						c1.65,2.6,2.99,5.41,3.94,8.27C381.22,308.79,379.44,305.31,377.17,302.24z M395.39,307.45h-0.05l0.1,0.31
						c0.52,1.52,0.95,3.09,1.32,4.69C396.42,310.75,395.96,309.07,395.39,307.45z M377.17,302.24l1.26,1.98
						c1.65,2.6,2.99,5.41,3.94,8.27C381.22,308.79,379.44,305.31,377.17,302.24z M395.39,307.45h-0.05l0.1,0.31
						c0.52,1.52,0.95,3.09,1.32,4.69C396.42,310.75,395.96,309.07,395.39,307.45z M377.17,302.24l1.26,1.98
						c1.65,2.6,2.99,5.41,3.94,8.27C381.22,308.79,379.44,305.31,377.17,302.24z M395.39,307.45h-0.05l0.1,0.31
						c0.52,1.52,0.95,3.09,1.32,4.69C396.42,310.75,395.96,309.07,395.39,307.45z M377.17,302.24l1.26,1.98
						c1.65,2.6,2.99,5.41,3.94,8.27C381.22,308.79,379.44,305.31,377.17,302.24z M395.39,307.45h-0.05l0.1,0.31
						c0.52,1.52,0.95,3.09,1.32,4.69C396.42,310.75,395.96,309.07,395.39,307.45z M377.17,302.24l1.26,1.98
						c1.65,2.6,2.99,5.41,3.94,8.27C381.22,308.79,379.44,305.31,377.17,302.24z M395.39,307.45h-0.05l0.1,0.31
						c0.52,1.52,0.95,3.09,1.32,4.69C396.42,310.75,395.96,309.07,395.39,307.45z M377.17,302.24l1.26,1.98
						c1.65,2.6,2.99,5.41,3.94,8.27C381.22,308.79,379.44,305.31,377.17,302.24z M395.39,307.45h-0.05l0.1,0.31
						c0.52,1.52,0.95,3.09,1.32,4.69C396.42,310.75,395.96,309.07,395.39,307.45z M377.17,302.24l1.26,1.98
						c1.65,2.6,2.99,5.41,3.94,8.27C381.22,308.79,379.44,305.31,377.17,302.24z M395.39,307.45h-0.05l0.1,0.31
						c0.52,1.52,0.95,3.09,1.32,4.69C396.42,310.75,395.96,309.07,395.39,307.45z M377.17,302.24l1.26,1.98
						c1.65,2.6,2.99,5.41,3.94,8.27C381.22,308.79,379.44,305.31,377.17,302.24z M395.39,307.45h-0.05l0.1,0.31
						c0.52,1.52,0.95,3.09,1.32,4.69C396.42,310.75,395.96,309.07,395.39,307.45z M377.17,302.24l1.26,1.98
						c1.65,2.6,2.99,5.41,3.94,8.27C381.22,308.79,379.44,305.31,377.17,302.24z M395.39,307.45h-0.05l0.1,0.31
						c0.52,1.52,0.95,3.09,1.32,4.69C396.42,310.75,395.96,309.07,395.39,307.45z M377.17,302.24l1.26,1.98
						c1.65,2.6,2.99,5.41,3.94,8.27C381.22,308.79,379.44,305.31,377.17,302.24z M395.39,307.45h-0.05l0.1,0.31
						c0.52,1.52,0.95,3.09,1.32,4.69C396.42,310.75,395.96,309.07,395.39,307.45z M377.17,302.24l1.26,1.98
						c1.65,2.6,2.99,5.41,3.94,8.27C381.22,308.79,379.44,305.31,377.17,302.24z M395.39,307.45h-0.05l0.1,0.31
						c0.52,1.52,0.95,3.09,1.32,4.69C396.42,310.75,395.96,309.07,395.39,307.45z M377.17,302.24l1.26,1.98
						c1.65,2.6,2.99,5.41,3.94,8.27C381.22,308.79,379.44,305.31,377.17,302.24z M395.39,307.45h-0.05l0.1,0.31
						c0.52,1.52,0.95,3.09,1.32,4.69C396.42,310.75,395.96,309.07,395.39,307.45z M377.17,302.24l1.26,1.98
						c1.65,2.6,2.99,5.41,3.94,8.27C381.22,308.79,379.44,305.31,377.17,302.24z M395.39,307.45h-0.05l0.1,0.31
						c0.52,1.52,0.95,3.09,1.32,4.69C396.42,310.75,395.96,309.07,395.39,307.45z M377.17,302.24l1.26,1.98
						c1.65,2.6,2.99,5.41,3.94,8.27C381.22,308.79,379.44,305.31,377.17,302.24z M395.39,307.45h-0.05l0.1,0.31
						c0.52,1.52,0.95,3.09,1.32,4.69C396.42,310.75,395.96,309.07,395.39,307.45z M377.17,302.24l1.26,1.98
						c1.65,2.6,2.99,5.41,3.94,8.27C381.22,308.79,379.44,305.31,377.17,302.24z M395.39,307.45h-0.05l0.1,0.31
						c0.52,1.52,0.95,3.09,1.32,4.69C396.42,310.75,395.96,309.07,395.39,307.45z M397.35,330.39c-0.03,0.08-0.03,0.15-0.05,0.23
						h0.46c0-0.08,0.03-0.15,0.03-0.23H397.35z M395.39,307.45h-0.05l0.1,0.31c0.52,1.52,0.95,3.09,1.32,4.69
						C396.42,310.75,395.96,309.07,395.39,307.45z M377.17,302.24l1.26,1.98c1.65,2.6,2.99,5.41,3.94,8.27
						C381.22,308.79,379.44,305.31,377.17,302.24z M395.39,307.45h-0.05l0.1,0.31c0.52,1.52,0.95,3.09,1.32,4.69
						C396.42,310.75,395.96,309.07,395.39,307.45z M377.17,302.24l1.26,1.98c1.65,2.6,2.99,5.41,3.94,8.27
						C381.22,308.79,379.44,305.31,377.17,302.24z M395.39,307.45h-0.05l0.1,0.31c0.52,1.52,0.95,3.09,1.32,4.69
						C396.42,310.75,395.96,309.07,395.39,307.45z M377.17,302.24l1.26,1.98c1.65,2.6,2.99,5.41,3.94,8.27
						C381.22,308.79,379.44,305.31,377.17,302.24z M395.39,307.45h-0.05l0.1,0.31c0.52,1.52,0.95,3.09,1.32,4.69
						C396.42,310.75,395.96,309.07,395.39,307.45z M377.17,302.24l1.26,1.98c1.65,2.6,2.99,5.41,3.94,8.27
						C381.22,308.79,379.44,305.31,377.17,302.24z M395.39,307.45h-0.05l0.1,0.31c0.52,1.52,0.95,3.09,1.32,4.69
						C396.42,310.75,395.96,309.07,395.39,307.45z M377.17,302.24l1.26,1.98c1.65,2.6,2.99,5.41,3.94,8.27
						C381.22,308.79,379.44,305.31,377.17,302.24z M395.39,307.45h-0.05l0.1,0.31c0.52,1.52,0.95,3.09,1.32,4.69
						C396.42,310.75,395.96,309.07,395.39,307.45z M377.17,302.24l1.26,1.98c1.65,2.6,2.99,5.41,3.94,8.27
						C381.22,308.79,379.44,305.31,377.17,302.24z M395.39,307.45h-0.05l0.1,0.31c0.52,1.52,0.95,3.09,1.32,4.69
						C396.42,310.75,395.96,309.07,395.39,307.45z M377.17,302.24l1.26,1.98c1.65,2.6,2.99,5.41,3.94,8.27
						C381.22,308.79,379.44,305.31,377.17,302.24z M395.39,307.45h-0.05l0.1,0.31c0.52,1.52,0.95,3.09,1.32,4.69
						C396.42,310.75,395.96,309.07,395.39,307.45z M377.17,302.24l1.26,1.98c1.65,2.6,2.99,5.41,3.94,8.27
						C381.22,308.79,379.44,305.31,377.17,302.24z M395.39,307.45h-0.05l0.1,0.31c0.52,1.52,0.95,3.09,1.32,4.69
						C396.42,310.75,395.96,309.07,395.39,307.45z M377.17,302.24l1.26,1.98c1.65,2.6,2.99,5.41,3.94,8.27
						C381.22,308.79,379.44,305.31,377.17,302.24z M395.39,307.45h-0.05l0.1,0.31c0.52,1.52,0.95,3.09,1.32,4.69
						C396.42,310.75,395.96,309.07,395.39,307.45z M377.17,302.24l1.26,1.98c1.65,2.6,2.99,5.41,3.94,8.27
						C381.22,308.79,379.44,305.31,377.17,302.24z M395.39,307.45h-0.05l0.1,0.31c0.52,1.52,0.95,3.09,1.32,4.69
						C396.42,310.75,395.96,309.07,395.39,307.45z M377.17,302.24l1.26,1.98c1.65,2.6,2.99,5.41,3.94,8.27
						C381.22,308.79,379.44,305.31,377.17,302.24z M395.39,307.45h-0.05l0.1,0.31c0.52,1.52,0.95,3.09,1.32,4.69
						C396.42,310.75,395.96,309.07,395.39,307.45z M377.17,302.24l1.26,1.98c1.65,2.6,2.99,5.41,3.94,8.27
						C381.22,308.79,379.44,305.31,377.17,302.24z M395.39,307.45h-0.05l0.1,0.31c0.52,1.52,0.95,3.09,1.32,4.69
						C396.42,310.75,395.96,309.07,395.39,307.45z M377.17,302.24l1.26,1.98c1.65,2.6,2.99,5.41,3.94,8.27
						C381.22,308.79,379.44,305.31,377.17,302.24z M395.39,307.45h-0.05l0.1,0.31c0.52,1.52,0.95,3.09,1.32,4.69
						C396.42,310.75,395.96,309.07,395.39,307.45z M377.17,302.24l1.26,1.98c1.65,2.6,2.99,5.41,3.94,8.27
						C381.22,308.79,379.44,305.31,377.17,302.24z M395.39,307.45h-0.05l0.1,0.31c0.52,1.52,0.95,3.09,1.32,4.69
						C396.42,310.75,395.96,309.07,395.39,307.45z M377.17,302.24l1.26,1.98c1.65,2.6,2.99,5.41,3.94,8.27
						C381.22,308.79,379.44,305.31,377.17,302.24z M395.39,307.45h-0.05l0.1,0.31c0.52,1.52,0.95,3.09,1.32,4.69
						C396.42,310.75,395.96,309.07,395.39,307.45z M377.17,302.24l1.26,1.98c1.65,2.6,2.99,5.41,3.94,8.27
						C381.22,308.79,379.44,305.31,377.17,302.24z M395.39,307.45h-0.05l0.1,0.31c0.52,1.52,0.95,3.09,1.32,4.69
						C396.42,310.75,395.96,309.07,395.39,307.45z M377.17,302.24l1.26,1.98c1.65,2.6,2.99,5.41,3.94,8.27
						C381.22,308.79,379.44,305.31,377.17,302.24z M395.39,307.45h-0.05l0.1,0.31c0.52,1.52,0.95,3.09,1.32,4.69
						C396.42,310.75,395.96,309.07,395.39,307.45z M377.17,302.24l1.26,1.98c1.65,2.6,2.99,5.41,3.94,8.27
						C381.22,308.79,379.44,305.31,377.17,302.24z M377.17,302.24l1.26,1.98c1.65,2.6,2.99,5.41,3.94,8.27
						C381.22,308.79,379.44,305.31,377.17,302.24z"/>
					<path class="st2" d="M395.39,307.45h-0.05l0.1,0.31c0.52,1.52,0.95,3.09,1.32,4.69C396.42,310.75,395.96,309.07,395.39,307.45z
						 M395.39,307.45h-0.05l0.1,0.31c0.52,1.52,0.95,3.09,1.32,4.69C396.42,310.75,395.96,309.07,395.39,307.45z M395.39,307.45
						h-0.05l0.1,0.31c0.52,1.52,0.95,3.09,1.32,4.69C396.42,310.75,395.96,309.07,395.39,307.45z M395.39,307.45h-0.05l0.1,0.31
						c0.52,1.52,0.95,3.09,1.32,4.69C396.42,310.75,395.96,309.07,395.39,307.45z M395.39,307.45h-0.05l0.1,0.31
						c0.52,1.52,0.95,3.09,1.32,4.69C396.42,310.75,395.96,309.07,395.39,307.45z M395.39,307.45h-0.05l0.1,0.31
						c0.52,1.52,0.95,3.09,1.32,4.69C396.42,310.75,395.96,309.07,395.39,307.45z M395.39,307.45h-0.05l0.1,0.31
						c0.52,1.52,0.95,3.09,1.32,4.69C396.42,310.75,395.96,309.07,395.39,307.45z M395.39,307.45h-0.05l0.1,0.31
						c0.52,1.52,0.95,3.09,1.32,4.69C396.42,310.75,395.96,309.07,395.39,307.45z M395.39,307.45h-0.05l0.1,0.31
						c0.52,1.52,0.95,3.09,1.32,4.69C396.42,310.75,395.96,309.07,395.39,307.45z M395.39,307.45h-0.05l0.1,0.31
						c0.52,1.52,0.95,3.09,1.32,4.69C396.42,310.75,395.96,309.07,395.39,307.45z M395.39,307.45h-0.05l0.1,0.31
						c0.52,1.52,0.95,3.09,1.32,4.69C396.42,310.75,395.96,309.07,395.39,307.45z M395.39,307.45h-0.05l0.1,0.31
						c0.52,1.52,0.95,3.09,1.32,4.69C396.42,310.75,395.96,309.07,395.39,307.45z M395.39,307.45h-0.05l0.1,0.31
						c0.52,1.52,0.95,3.09,1.32,4.69C396.42,310.75,395.96,309.07,395.39,307.45z M395.39,307.45h-0.05l0.1,0.31
						c0.52,1.52,0.95,3.09,1.32,4.69C396.42,310.75,395.96,309.07,395.39,307.45z M395.39,307.45h-0.05l0.1,0.31
						c0.52,1.52,0.95,3.09,1.32,4.69C396.42,310.75,395.96,309.07,395.39,307.45z M395.39,307.45h-0.05l0.1,0.31
						c0.52,1.52,0.95,3.09,1.32,4.69C396.42,310.75,395.96,309.07,395.39,307.45z M395.39,307.45h-0.05l0.1,0.31
						c0.52,1.52,0.95,3.09,1.32,4.69C396.42,310.75,395.96,309.07,395.39,307.45z M395.39,307.45h-0.05l0.1,0.31
						c0.52,1.52,0.95,3.09,1.32,4.69C396.42,310.75,395.96,309.07,395.39,307.45z M395.39,307.45h-0.05l0.1,0.31
						c0.52,1.52,0.95,3.09,1.32,4.69C396.42,310.75,395.96,309.07,395.39,307.45z M395.39,307.45h-0.05l0.1,0.31
						c0.52,1.52,0.95,3.09,1.32,4.69C396.42,310.75,395.96,309.07,395.39,307.45z M395.39,307.45h-0.05l0.1,0.31
						c0.52,1.52,0.95,3.09,1.32,4.69C396.42,310.75,395.96,309.07,395.39,307.45z M395.39,307.45h-0.05l0.1,0.31
						c0.52,1.52,0.95,3.09,1.32,4.69C396.42,310.75,395.96,309.07,395.39,307.45z M395.39,307.45h-0.05l0.1,0.31
						c0.52,1.52,0.95,3.09,1.32,4.69C396.42,310.75,395.96,309.07,395.39,307.45z M395.39,307.45h-0.05l0.1,0.31
						c0.52,1.52,0.95,3.09,1.32,4.69C396.42,310.75,395.96,309.07,395.39,307.45z M397.35,330.39c-0.03,0.08-0.03,0.15-0.05,0.23
						c0,0.08,0,0.15-0.03,0.23h0.44c0.03-0.08,0.03-0.15,0.05-0.23c0-0.08,0.03-0.15,0.03-0.23H397.35z M395.39,307.45h-0.05
						l0.1,0.31c0.52,1.52,0.95,3.09,1.32,4.69C396.42,310.75,395.96,309.07,395.39,307.45z M395.39,307.45h-0.05l0.1,0.31
						c0.52,1.52,0.95,3.09,1.32,4.69C396.42,310.75,395.96,309.07,395.39,307.45z M395.39,307.45h-0.05l0.1,0.31
						c0.52,1.52,0.95,3.09,1.32,4.69C396.42,310.75,395.96,309.07,395.39,307.45z M395.39,307.45h-0.05l0.1,0.31
						c0.52,1.52,0.95,3.09,1.32,4.69C396.42,310.75,395.96,309.07,395.39,307.45z M395.39,307.45h-0.05l0.1,0.31
						c0.52,1.52,0.95,3.09,1.32,4.69C396.42,310.75,395.96,309.07,395.39,307.45z M395.39,307.45h-0.05l0.1,0.31
						c0.52,1.52,0.95,3.09,1.32,4.69C396.42,310.75,395.96,309.07,395.39,307.45z M395.39,307.45h-0.05l0.1,0.31
						c0.52,1.52,0.95,3.09,1.32,4.69C396.42,310.75,395.96,309.07,395.39,307.45z M395.39,307.45h-0.05l0.1,0.31
						c0.52,1.52,0.95,3.09,1.32,4.69C396.42,310.75,395.96,309.07,395.39,307.45z M395.39,307.45h-0.05l0.1,0.31
						c0.52,1.52,0.95,3.09,1.32,4.69C396.42,310.75,395.96,309.07,395.39,307.45z M395.39,307.45h-0.05l0.1,0.31
						c0.52,1.52,0.95,3.09,1.32,4.69C396.42,310.75,395.96,309.07,395.39,307.45z M395.39,307.45h-0.05l0.1,0.31
						c0.52,1.52,0.95,3.09,1.32,4.69C396.42,310.75,395.96,309.07,395.39,307.45z M395.39,307.45h-0.05l0.1,0.31
						c0.52,1.52,0.95,3.09,1.32,4.69C396.42,310.75,395.96,309.07,395.39,307.45z M395.39,307.45h-0.05l0.1,0.31
						c0.52,1.52,0.95,3.09,1.32,4.69C396.42,310.75,395.96,309.07,395.39,307.45z M395.39,307.45h-0.05l0.1,0.31
						c0.52,1.52,0.95,3.09,1.32,4.69C396.42,310.75,395.96,309.07,395.39,307.45z M395.39,307.45h-0.05l0.1,0.31
						c0.52,1.52,0.95,3.09,1.32,4.69C396.42,310.75,395.96,309.07,395.39,307.45z M395.39,307.45h-0.05l0.1,0.31
						c0.52,1.52,0.95,3.09,1.32,4.69C396.42,310.75,395.96,309.07,395.39,307.45z M395.39,307.45h-0.05l0.1,0.31
						c0.52,1.52,0.95,3.09,1.32,4.69C396.42,310.75,395.96,309.07,395.39,307.45z M395.39,307.45h-0.05l0.1,0.31
						c0.52,1.52,0.95,3.09,1.32,4.69C396.42,310.75,395.96,309.07,395.39,307.45z M395.39,307.45h-0.05l0.1,0.31
						c0.52,1.52,0.95,3.09,1.32,4.69C396.42,310.75,395.96,309.07,395.39,307.45z M395.39,307.45h-0.05l0.1,0.31
						c0.52,1.52,0.95,3.09,1.32,4.69C396.42,310.75,395.96,309.07,395.39,307.45z M395.39,307.45h-0.05l0.1,0.31
						c0.52,1.52,0.95,3.09,1.32,4.69C396.42,310.75,395.96,309.07,395.39,307.45z M395.39,307.45h-0.05l0.1,0.31
						c0.52,1.52,0.95,3.09,1.32,4.69C396.42,310.75,395.96,309.07,395.39,307.45z M395.39,307.45h-0.05l0.1,0.31
						c0.52,1.52,0.95,3.09,1.32,4.69C396.42,310.75,395.96,309.07,395.39,307.45z M395.39,307.45h-0.05l0.1,0.31
						c0.52,1.52,0.95,3.09,1.32,4.69C396.42,310.75,395.96,309.07,395.39,307.45z M395.39,307.45h-0.05l0.1,0.31
						c0.52,1.52,0.95,3.09,1.32,4.69C396.42,310.75,395.96,309.07,395.39,307.45z M395.39,307.45h-0.05l0.1,0.31
						c0.52,1.52,0.95,3.09,1.32,4.69C396.42,310.75,395.96,309.07,395.39,307.45z"/>
				</g>
			</g>
		</g>
	</g>
</g>
</svg>
