<?xml version="1.0" encoding="utf-8"?>
<!-- Generator: Adobe Illustrator 25.0.0, SVG Export Plug-In . SVG Version: 6.00 Build 0)  -->
<svg version="1.1" id="Layer_1" xmlns="http://www.w3.org/2000/svg" xmlns:xlink="http://www.w3.org/1999/xlink" x="0px" y="0px"
	 viewBox="0 0 500 500" style="enable-background:new 0 0 500 500;" xml:space="preserve">
<style type="text/css">
	.st0{fill:url(#SVGID_1_);}
	.st1{fill:url(#SVGID_2_);}
	.st2{fill:url(#SVGID_3_);}
	.st3{fill:url(#SVGID_4_);}
</style>
<linearGradient id="SVGID_1_" gradientUnits="userSpaceOnUse" x1="1650.7192" y1="102.3913" x2="1696.4404" y2="102.3913">
	<stop  offset="0" style="stop-color:#252159"/>
	<stop  offset="1" style="stop-color:#4C2E87"/>
</linearGradient>
<path class="st0" d="M1692.41,109.11V99.7c0.02-7.28-4.18-13.91-10.76-17.01v-1.82c0-4.46-3.61-8.07-8.07-8.07s-8.07,3.61-8.07,8.07
	v1.83c-6.57,3.11-10.75,9.73-10.76,17v9.41c0,1.87-0.3,3.74-0.9,5.51c-0.59,1.79-1.47,3.47-2.6,4.98c-0.89,1.19-0.65,2.87,0.54,3.77
	c0.47,0.35,1.03,0.54,1.61,0.54h12.1c0,4.46,3.61,8.07,8.07,8.07s8.07-3.61,8.07-8.07h12.1c1.49,0,2.69-1.2,2.69-2.69
	c0-0.58-0.19-1.15-0.54-1.61C1693.62,116.58,1692.4,112.9,1692.41,109.11z M1670.89,80.88c-0.01-1.49,1.19-2.7,2.67-2.71
	c0.72,0,1.4,0.28,1.91,0.78c0.51,0.51,0.8,1.2,0.79,1.92v0.19c-0.89-0.13-1.79-0.19-2.69-0.19c-0.54,0-1.06,0-1.6,0.08l0,0
	l-1.04,0.11L1670.89,80.88z M1673.58,126.6c-1.49,0-2.69-1.2-2.69-2.69h5.38C1676.27,125.39,1675.07,126.6,1673.58,126.6z
	 M1678.96,118.53h-20.86c0.32-0.71,0.61-1.43,0.86-2.18c0.78-2.33,1.17-4.78,1.17-7.23V99.7c0-7.43,6.02-13.45,13.44-13.45
	c0.76,0,1.53,0.06,2.28,0.19c2.74,0.48,5.26,1.78,7.23,3.74c2.53,2.52,3.95,5.95,3.94,9.52v9.41c-0.01,3.25,0.68,6.46,2.02,9.41
	H1678.96z"/>
<linearGradient id="SVGID_2_" gradientUnits="userSpaceOnUse" x1="1676.1559" y1="89.5028" x2="1701.9329" y2="89.5028">
	<stop  offset="0" style="stop-color:#F3837A"/>
	<stop  offset="1" style="stop-color:#F7A891"/>
</linearGradient>
<circle class="st1" cx="1689.04" cy="89.5" r="12.89"/>
<g>
	<linearGradient id="SVGID_3_" gradientUnits="userSpaceOnUse" x1="74.3537" y1="262.7393" x2="428.6646" y2="262.7393">
		<stop  offset="0" style="stop-color:#353E96"/>
		<stop  offset="1" style="stop-color:#3F63AD"/>
	</linearGradient>
	<path class="st2" d="M427.54,194.15l-24.16-40.26c-1.48-2.43-4.09-3.91-6.93-3.91h-32.21c-4.43,0-8.05,3.61-8.05,8.05
		c0,4.43,3.62,8.05,8.05,8.05h16.11c0,0.01,0,0.02,0,0.03v33.21c0,17.22,14,31.21,32.21,31.21c0.01,0,0.01,0,0.02,0v129.84
		c0,8.33-6.76,15.11-15.11,15.11h-2.01c-8.34,0-15.11-6.78-15.11-15.11V255.35c0-13.69-11.13-24.82-24.83-24.82h-7.38v-153
		c0-4.45-3.62-8.05-8.05-8.05H130.72c-4.45,0-8.05,3.61-8.05,8.05v330.15H82.41c-4.45,0-8.05,3.61-8.05,8.05v32.21
		c0,4.44,3.61,8.05,8.05,8.05h306c4.43,0,8.05-3.61,8.05-8.05v-32.21c0-4.44-3.62-8.05-8.05-8.05h-40.26V246.63h7.38
		c4.82,0,8.73,3.91,8.73,8.71v105.02c0,17.21,14.01,31.21,31.21,31.21h2.01c17.2,0,31.2-14,31.2-31.23V198.29
		C428.66,196.82,428.29,195.39,427.54,194.15z M380.35,439.89H90.46v-16.11h40.26h209.37h40.26V439.89z M138.77,407.68V85.58h193.26
		v322.1H138.77z M411.56,214.44c-8.34,0-15.11-6.75-15.11-15.11v-25.69l16.12,26.88v14.02C412.24,214.5,411.9,214.44,411.56,214.44z
		"/>
	<linearGradient id="SVGID_4_" gradientUnits="userSpaceOnUse" x1="154.8785" y1="158.0563" x2="315.9295" y2="158.0563">
		<stop  offset="0" style="stop-color:#353E96"/>
		<stop  offset="1" style="stop-color:#3F63AD"/>
	</linearGradient>
	<path class="st3" d="M307.88,101.69H162.93c-4.44,0-8.05,3.61-8.05,8.05v96.63c0,4.44,3.61,8.05,8.05,8.05h144.95
		c4.43,0,8.05-3.61,8.05-8.05v-96.63C315.93,105.3,312.31,101.69,307.88,101.69z M299.82,198.32H170.98v-80.52h128.84V198.32z"/>
</g>
</svg>
