<?xml version="1.0" encoding="utf-8"?>
<!-- Generator: Adobe Illustrator 25.0.0, SVG Export Plug-In . SVG Version: 6.00 Build 0)  -->
<svg version="1.1" id="Layer_1" xmlns="http://www.w3.org/2000/svg" xmlns:xlink="http://www.w3.org/1999/xlink" x="0px" y="0px"
	 viewBox="0 0 500 500" style="enable-background:new 0 0 500 500;" xml:space="preserve">
<style type="text/css">
	.st0{fill:url(#SVGID_1_);}
</style>
<linearGradient id="SVGID_1_" gradientUnits="userSpaceOnUse" x1="43.8664" y1="250" x2="456.1336" y2="250">
	<stop  offset="0" style="stop-color:#353E96"/>
	<stop  offset="1" style="stop-color:#3F63AD"/>
</linearGradient>
<path class="st0" d="M125.61,170.07c6.67-60.29,55.33-107.28,115.81-111.86c34.68-2.57,68.85,9.53,94.19,33.35
	c50.53,47.17,53.26,126.37,6.09,176.9c-5.56,5.95-11.68,11.35-18.28,16.11v20.31c0,5.87-4.76,10.62-10.62,10.62
	c-5.87,0-10.62-4.76-10.62-10.62v-21.79c0.05-6.05,3.03-11.7,7.99-15.17c46.88-33.11,58.04-97.95,24.93-144.83
	c-4.1-5.8-8.78-11.17-13.97-16.02c-21.07-19.84-49.52-29.89-78.38-27.7c-57.25,4.06-100.36,53.77-96.3,111.01
	c2.21,31.07,18.23,59.51,43.66,77.49c4.99,3.46,8,9.13,8.07,15.21v21.75c0,5.87-4.76,10.62-10.62,10.62s-10.62-4.76-10.62-10.62
	v-20.26C140.64,258.27,121.09,214.65,125.61,170.07z M187.55,335.37h125.12c5.87,0,10.62,4.76,10.62,10.62v27.91
	c-0.15,17.21-10.67,32.62-26.64,39.04v4.25c-0.02,13.76-11.17,24.91-24.94,24.94h-43.04c-13.76-0.02-24.91-11.17-24.94-24.94v-4.25
	c-16-6.39-26.56-21.81-26.72-39.04v-27.91C177.01,340.16,181.72,335.42,187.55,335.37z M198.17,373.9
	c0.01,10.3,7.57,19.05,17.76,20.56c5.2,0.78,9.04,5.24,9.05,10.49v12.36c0,2.04,1.65,3.7,3.7,3.7l0,0h42.91c2.04,0,3.7-1.65,3.7-3.7
	l0,0v-12.45c0.05-5.24,3.91-9.65,9.09-10.41c10.13-1.55,17.62-10.23,17.67-20.48v-17.38H198.17V373.9z M88.47,193.86
	c5.87,0,10.62-4.76,10.62-10.62c0-5.87-4.76-10.62-10.62-10.62H54.49c-5.87,0-10.62,4.76-10.62,10.62c0,5.87,4.76,10.62,10.62,10.62
	H88.47z M76.45,99.97l31.74,20.82c4.99,3.08,11.54,1.52,14.61-3.47c2.95-4.8,1.65-11.06-2.97-14.28L88.09,82.21
	c-4.81-3.35-11.43-2.17-14.79,2.64c-3.35,4.81-2.17,11.43,2.64,14.79C76.11,99.75,76.28,99.86,76.45,99.97z M82.27,286
	c2.07,0,4.09-0.6,5.82-1.74l31.74-20.82c5.16-2.79,7.08-9.24,4.29-14.4c-2.79-5.16-9.24-7.08-14.4-4.29
	c-0.54,0.29-1.05,0.63-1.53,1.01l-31.74,20.82c-4.9,3.22-6.27,9.8-3.05,14.71c1.96,2.99,5.3,4.79,8.87,4.79V286z M400.9,183.24
	c0,5.87,4.76,10.62,10.62,10.62h33.99c5.87,0,10.62-4.76,10.62-10.62c0-5.87-4.76-10.62-10.62-10.62h-34.16
	c-5.87,0-10.62,4.76-10.62,10.62H400.9z M385.86,122.57c2.07,0,4.09-0.6,5.82-1.74l31.74-20.82c4.81-3.35,6-9.97,2.64-14.79
	c-3.22-4.62-9.49-5.93-14.28-2.97l-31.74,20.82c-4.9,3.22-6.27,9.8-3.05,14.71C378.96,120.76,382.29,122.57,385.86,122.57z
	 M411.78,284.31c4.99,3.08,11.54,1.52,14.61-3.47c2.95-4.8,1.65-11.06-2.97-14.28l-31.78-20.77c-4.99-3.08-11.54-1.52-14.61,3.47
	c-2.95,4.8-1.65,11.06,2.97,14.28L411.78,284.31z M250.34,128.52c-5.49-2.06-11.61,0.73-13.67,6.22c0,0.01-0.01,0.02-0.01,0.02
	l-18.95,50.98c-2.04,5.5,0.76,11.61,6.26,13.65c1.18,0.44,2.42,0.66,3.68,0.66h29.74l-13.64,36.62c-2.04,5.5,0.76,11.62,6.27,13.66
	c5.5,2.04,11.62-0.76,13.66-6.27l18.95-50.98c2.04-5.5-0.76-11.61-6.26-13.65c-1.18-0.44-2.42-0.66-3.68-0.66h-29.74l13.64-36.62
	C258.62,136.66,255.82,130.56,250.34,128.52z"/>
</svg>
