<?xml version="1.0" encoding="utf-8"?>
<!-- Generator: Adobe Illustrator 25.0.0, SVG Export Plug-In . SVG Version: 6.00 Build 0)  -->
<svg version="1.1" id="Layer_1" xmlns="http://www.w3.org/2000/svg" xmlns:xlink="http://www.w3.org/1999/xlink" x="0px" y="0px"
	 viewBox="0 0 554.69 554.69" style="enable-background:new 0 0 554.69 554.69;" xml:space="preserve">
<style type="text/css">
	.st0{fill:url(#SVGID_1_);}
</style>
<linearGradient id="SVGID_1_" gradientUnits="userSpaceOnUse" x1="15.063" y1="542.065" x2="492.262" y2="64.8661">
	<stop  offset="0" style="stop-color:#7DC3BE"/>
	<stop  offset="1" style="stop-color:#465DA4"/>
</linearGradient>
<path class="st0" d="M519.28,306.85c6.52,0,11.8,5.28,11.8,11.8c0,6.52-5.28,11.8-11.8,11.8h-11.8v11.8c0,6.52-5.29,11.8-11.8,11.8
	s-11.8-5.28-11.8-11.8v-11.8h-11.8c-6.52,0-11.8-5.28-11.8-11.8c0-6.52,5.28-11.8,11.8-11.8h11.8v-11.8c0-6.52,5.28-11.8,11.8-11.8
	s11.8,5.28,11.8,11.8v11.8H519.28z M355.27,204.67c-1.99-4.03-1.51-8.85,1.23-12.41L462.72,54.17c3.32-4.32,9.17-5.8,14.14-3.59
	c4.98,2.21,7.8,7.54,6.82,12.9l-17.04,93.48h43.61c4.52,0,8.65,2.58,10.62,6.65c1.97,4.07,1.45,8.91-1.36,12.46L410.53,314.16
	c-2.3,2.91-5.74,4.49-9.27,4.49c-1.68,0-3.38-0.36-4.99-1.11c-4.96-2.31-7.68-7.74-6.56-13.1l19.4-93.19h-43.25
	C361.36,211.25,357.26,208.7,355.27,204.67z M389.82,187.65h33.79c3.55,0,6.91,1.6,9.15,4.36s3.12,6.37,2.4,9.85l-12.15,58.38
	l62.89-79.67H452.5c-3.5,0-6.82-1.55-9.06-4.24c-2.24-2.69-3.18-6.23-2.55-9.68l10.84-59.47L389.82,187.65z M167.74,353.05
	c-23.54,0-42.69-19.15-42.69-42.69s19.15-42.69,42.69-42.69c23.54,0,42.69,19.15,42.69,42.69S191.28,353.05,167.74,353.05z
	 M167.74,329.45c10.52,0,19.08-8.56,19.08-19.08s-8.56-19.08-19.08-19.08s-19.08,8.56-19.08,19.08
	C148.65,320.88,157.22,329.45,167.74,329.45z M295.05,82.61h11.8v11.8c0,6.52,5.29,11.8,11.8,11.8s11.8-5.28,11.8-11.8v-11.8h11.8
	c6.52,0,11.8-5.28,11.8-11.8s-5.28-11.8-11.8-11.8h-11.8v-11.8c0-6.52-5.28-11.8-11.8-11.8s-11.8,5.28-11.8,11.8v11.8h-11.8
	c-6.52,0-11.8,5.28-11.8,11.8S288.53,82.61,295.05,82.61z M554.69,401.26c0,6.52-5.28,11.8-11.8,11.8H389.46
	c-13.02,0-23.6,10.59-23.6,23.6c0,13.02,10.59,23.6,23.6,23.6h59.01c26.03,0,47.21,21.18,47.21,47.21s-21.18,47.21-47.21,47.21
	H47.21C21.18,554.69,0,533.51,0,507.48s21.18-47.21,47.21-47.21h82.61c13.02,0,23.6-10.59,23.6-23.6v-0.57
	c-3.32-0.32-6.64-0.76-9.92-1.34c-29.99-5.29-57.41-21.64-77.22-46.03c-19.92-24.53-30.88-55.79-30.88-88.04V188.33H23.6
	c-6.52,0-11.8-5.28-11.8-11.8v-41.18c0-6.52,5.28-11.8,11.8-11.8h47.21V35.41C70.81,15.88,86.7,0,106.22,0
	c19.52,0,35.41,15.88,35.41,35.41v88.14h47.21V35.41C188.83,15.88,204.71,0,224.24,0c19.52,0,35.41,15.88,35.41,35.41v88.14h47.21
	c6.52,0,11.8,5.28,11.8,11.8v41.18c0,6.52-5.29,11.8-11.8,11.8h-11.8V300.7c0,62.01-39.98,116.15-97.23,131.65
	c-6.8,1.84-13.76,3.09-20.79,3.76v0.57c0,26.03-21.18,47.21-47.21,47.21H47.21c-13.02,0-23.6,10.59-23.6,23.6
	c0,13.02,10.59,23.6,23.6,23.6h401.26c13.02,0,23.6-10.59,23.6-23.6c0-13.02-10.59-23.6-23.6-23.6h-59.01
	c-26.03,0-47.21-21.18-47.21-47.21s21.18-47.21,47.21-47.21h153.42C549.4,389.46,554.69,394.75,554.69,401.26z M212.43,123.54h23.6
	V35.41c0-6.51-5.29-11.8-11.8-11.8c-6.51,0-11.8,5.29-11.8,11.8V123.54z M94.42,123.54h23.6V35.41c0-6.51-5.29-11.8-11.8-11.8
	c-6.51,0-11.8,5.29-11.8,11.8V123.54z M47.21,164.72h236.04c0,0,0,0,0,0h11.8v-17.58H35.41v17.58L47.21,164.72
	C47.21,164.72,47.21,164.72,47.21,164.72z M191.65,409.56c46.98-12.72,79.8-57.49,79.8-108.87V188.33H59.01v24.11h139.61
	c6.52,0,11.8,5.28,11.8,11.8s-5.28,11.8-11.8,11.8H59.01v64.66c0,55.15,37.26,101.76,88.6,110.82
	C162.28,414.11,177.43,413.41,191.65,409.56z M259.64,495.68c6.52,0,11.8-5.29,11.8-11.8v-11.8h11.8c6.52,0,11.8-5.28,11.8-11.8
	c0-6.52-5.28-11.8-11.8-11.8h-11.8v-11.8c0-6.52-5.28-11.8-11.8-11.8c-6.52,0-11.8,5.29-11.8,11.8v11.8h-11.8
	c-6.52,0-11.8,5.28-11.8,11.8c0,6.52,5.28,11.8,11.8,11.8h11.8v11.8C247.84,490.39,253.12,495.68,259.64,495.68z"/>
</svg>
