<?xml version="1.0" encoding="utf-8"?>
<!-- Generator: Adobe Illustrator 25.0.0, SVG Export Plug-In . SVG Version: 6.00 Build 0)  -->
<svg version="1.1" id="Layer_1" xmlns="http://www.w3.org/2000/svg" xmlns:xlink="http://www.w3.org/1999/xlink" x="0px" y="0px"
	 viewBox="0 0 500 500" style="enable-background:new 0 0 500 500;" xml:space="preserve">
<style type="text/css">
	.st0{fill:url(#SVGID_1_);}
	.st1{fill:url(#SVGID_2_);}
	.st2{fill:url(#SVGID_3_);}
	.st3{fill:url(#SVGID_4_);}
</style>
<linearGradient id="SVGID_1_" gradientUnits="userSpaceOnUse" x1="1650.7192" y1="102.3913" x2="1696.4404" y2="102.3913">
	<stop  offset="0" style="stop-color:#252159"/>
	<stop  offset="1" style="stop-color:#4C2E87"/>
</linearGradient>
<path class="st0" d="M1692.41,109.11V99.7c0.02-7.28-4.18-13.91-10.76-17.01v-1.82c0-4.46-3.61-8.07-8.07-8.07s-8.07,3.61-8.07,8.07
	v1.83c-6.57,3.11-10.75,9.73-10.76,17v9.41c0,1.87-0.3,3.74-0.9,5.51c-0.59,1.79-1.47,3.47-2.6,4.98c-0.89,1.19-0.65,2.87,0.54,3.77
	c0.47,0.35,1.03,0.54,1.61,0.54h12.1c0,4.46,3.61,8.07,8.07,8.07s8.07-3.61,8.07-8.07h12.1c1.49,0,2.69-1.2,2.69-2.69
	c0-0.58-0.19-1.15-0.54-1.61C1693.62,116.58,1692.4,112.9,1692.41,109.11z M1670.89,80.88c-0.01-1.49,1.19-2.7,2.67-2.71
	c0.72,0,1.4,0.28,1.91,0.78c0.51,0.51,0.8,1.2,0.79,1.92v0.19c-0.89-0.13-1.79-0.19-2.69-0.19c-0.54,0-1.06,0-1.6,0.08l0,0
	l-1.04,0.11L1670.89,80.88z M1673.58,126.6c-1.49,0-2.69-1.2-2.69-2.69h5.38C1676.27,125.39,1675.07,126.6,1673.58,126.6z
	 M1678.96,118.53h-20.86c0.32-0.71,0.61-1.43,0.86-2.18c0.78-2.33,1.17-4.78,1.17-7.23V99.7c0-7.43,6.02-13.45,13.44-13.45
	c0.76,0,1.53,0.06,2.28,0.19c2.74,0.48,5.26,1.78,7.23,3.74c2.53,2.52,3.95,5.95,3.94,9.52v9.41c-0.01,3.25,0.68,6.46,2.02,9.41
	H1678.96z"/>
<linearGradient id="SVGID_2_" gradientUnits="userSpaceOnUse" x1="1676.1559" y1="89.5028" x2="1701.9329" y2="89.5028">
	<stop  offset="0" style="stop-color:#F3837A"/>
	<stop  offset="1" style="stop-color:#F7A891"/>
</linearGradient>
<circle class="st1" cx="1689.04" cy="89.5" r="12.89"/>
<g>
	<linearGradient id="SVGID_3_" gradientUnits="userSpaceOnUse" x1="77.2582" y1="250" x2="385.69" y2="250">
		<stop  offset="0" style="stop-color:#252159"/>
		<stop  offset="1" style="stop-color:#4C2E87"/>
	</linearGradient>
	<path class="st2" d="M358.48,295.36v-63.5c0.11-49.09-28.17-93.82-72.57-114.75v-12.25c0-30.06-24.37-54.43-54.43-54.43
		s-54.43,24.37-54.43,54.43v12.34c-44.29,21.01-72.54,65.64-72.57,114.66v63.5c0,12.64-2.05,25.21-6.08,37.19
		c-3.99,12.06-9.9,23.39-17.51,33.56c-6.01,8.02-4.39,19.39,3.63,25.4c3.14,2.36,6.96,3.63,10.89,3.63h81.64
		c0,30.06,24.37,54.43,54.43,54.43s54.43-24.37,54.43-54.43h81.64c10.02,0,18.14-8.12,18.14-18.14c0-3.93-1.27-7.75-3.63-10.89
		C366.69,345.73,358.41,320.88,358.48,295.36z M213.33,104.86c-0.06-10.02,8.02-18.19,18.04-18.25c4.83-0.03,9.47,1.87,12.9,5.28
		c3.45,3.43,5.38,8.11,5.35,12.97v1.27c-6.01-0.86-12.07-1.28-18.14-1.27c-3.63,0-7.17,0-10.8,0.54l0,0l-6.99,0.73L213.33,104.86z
		 M231.47,413.29c-10.02,0-18.14-8.12-18.14-18.14h36.29C249.62,405.16,241.49,413.29,231.47,413.29z M267.76,358.86h-140.7
		c2.18-4.78,4.11-9.68,5.81-14.7c5.26-15.73,7.92-32.22,7.89-48.8v-63.5c-0.02-50.1,40.58-90.73,90.68-90.75
		c5.15,0,10.29,0.43,15.37,1.3c18.46,3.24,35.49,12.04,48.8,25.22c17.09,17,26.66,40.13,26.58,64.23v63.5
		c-0.05,21.9,4.59,43.55,13.61,63.5H267.76z"/>
	<linearGradient id="SVGID_4_" gradientUnits="userSpaceOnUse" x1="248.8518" y1="163.055" x2="422.7418" y2="163.055">
		<stop  offset="0" style="stop-color:#F3837A"/>
		<stop  offset="1" style="stop-color:#F7A891"/>
	</linearGradient>
	<circle class="st3" cx="335.8" cy="163.05" r="86.95"/>
</g>
</svg>
