<?xml version="1.0" encoding="utf-8"?>
<!-- Generator: Adobe Illustrator 25.0.0, SVG Export Plug-In . SVG Version: 6.00 Build 0)  -->
<svg version="1.1" id="Layer_1" xmlns="http://www.w3.org/2000/svg" xmlns:xlink="http://www.w3.org/1999/xlink" x="0px" y="0px"
	 viewBox="0 0 500 500" style="enable-background:new 0 0 500 500;" xml:space="preserve">
<style type="text/css">
	.st0{fill:url(#SVGID_1_);}
</style>
<linearGradient id="SVGID_1_" gradientUnits="userSpaceOnUse" x1="96.5627" y1="250" x2="403.4373" y2="250">
	<stop  offset="0" style="stop-color:#252159"/>
	<stop  offset="1" style="stop-color:#4C2E87"/>
</linearGradient>
<path class="st0" d="M376.36,295.13v-63.18c0.11-48.84-28.03-93.34-72.21-114.18v-12.18c0-29.91-24.25-54.15-54.15-54.15
	s-54.15,24.25-54.15,54.15v12.27c-44.07,20.9-72.17,65.31-72.21,114.08v63.18c0,12.58-2.04,25.08-6.05,37.01
	c-3.97,12-9.85,23.27-17.42,33.4c-5.98,7.98-4.37,19.29,3.61,25.27c3.12,2.34,6.93,3.61,10.83,3.61h81.23
	c0,29.91,24.25,54.15,54.15,54.15s54.15-24.25,54.15-54.15h81.23c9.97,0,18.05-8.08,18.05-18.05c0-3.91-1.27-7.71-3.61-10.83
	C384.54,345.25,376.29,320.53,376.36,295.13z M231.95,105.59c-0.06-9.97,7.98-18.1,17.95-18.16c4.81-0.03,9.42,1.86,12.83,5.25
	c3.43,3.41,5.35,8.06,5.33,12.91v1.26c-5.98-0.85-12.01-1.27-18.05-1.26c-3.61,0-7.13,0-10.74,0.54l0,0l-6.95,0.72L231.95,105.59z
	 M250,412.46c-9.97,0-18.05-8.08-18.05-18.05h36.1C268.05,404.38,259.97,412.46,250,412.46z M286.1,358.31H146.11
	c2.17-4.75,4.09-9.63,5.78-14.62c5.23-15.65,7.88-32.05,7.85-48.56v-63.18c-0.02-49.85,40.37-90.27,90.22-90.29
	c5.12,0,10.24,0.43,15.29,1.3c18.36,3.22,35.31,11.98,48.56,25.09c17,16.91,26.52,39.92,26.45,63.9v63.18
	c-0.05,21.79,4.56,43.33,13.54,63.18H286.1z"/>
</svg>
